<?xml version="1.0" encoding="utf-8"?>
<!-- Generator: Adobe Illustrator 15.1.0, SVG Export Plug-In . SVG Version: 6.00 Build 0)  -->
<!DOCTYPE svg PUBLIC "-//W3C//DTD SVG 1.1//EN" "http://www.w3.org/Graphics/SVG/1.1/DTD/svg11.dtd">
<svg version="1.1" id="Layer_1" xmlns="http://www.w3.org/2000/svg" xmlns:xlink="http://www.w3.org/1999/xlink" x="0px" y="0px"
	 width="300px" height="150px" viewBox="0 0 300 150" enable-background="new 0 0 300 150" xml:space="preserve">
<polygon fill="#344050" points="258.752,23.98 261.076,10.332 264.796,10.332 262.468,23.98 "/>
<path fill="#344050" d="M275.962,10.668c-0.737-0.277-1.894-0.572-3.337-0.572c-3.673,0-6.264,1.85-6.285,4.502
	c-0.02,1.961,1.848,3.057,3.258,3.709c1.449,0.668,1.938,1.096,1.928,1.693c-0.006,0.914-1.154,1.332-2.224,1.332
	c-1.489,0-2.28-0.205-3.502-0.716l-0.478-0.217l-0.523,3.055c0.868,0.381,2.477,0.71,4.143,0.729c3.912,0,6.451-1.83,6.479-4.661
	c0.014-1.555-0.977-2.736-3.123-3.709c-1.299-0.633-2.098-1.053-2.089-1.693c0-0.567,0.676-1.174,2.13-1.174
	c1.218-0.018,2.098,0.246,2.786,0.523l0.333,0.158L275.962,10.668"/>
<path fill="#344050" d="M285.501,10.346h-2.876c-0.891,0-1.557,0.242-1.947,1.131l-5.524,12.508h3.907c0,0,0.638-1.681,0.785-2.051
	c0.424,0,4.217,0.006,4.76,0.006c0.111,0.479,0.453,2.045,0.453,2.045h3.453L285.501,10.346 M280.913,19.142
	c0.308-0.786,1.481-3.813,1.481-3.813c-0.021,0.035,0.307-0.79,0.494-1.305l0.252,1.178c0,0,0.711,3.257,0.859,3.94H280.913z"/>
<path fill="#344050" d="M255.629,10.342l-3.641,9.307l-0.387-1.892c-0.68-2.18-2.793-4.542-5.154-5.724l3.33,11.936l3.937-0.005
	l5.856-13.622H255.629"/>
<path fill="#344050" d="M248.607,10.334h-5.998l-0.046,0.283c4.666,1.131,7.754,3.859,9.037,7.14l-1.306-6.272
	C250.07,10.622,249.416,10.365,248.607,10.334"/>
<path fill-rule="evenodd" clip-rule="evenodd" fill="#344050" d="M187.033,23.559l1.91-10.234h2.414l0.252,1.009
	c0.432-0.506,1.262-1.009,2.667-1.009l-0.757,2.665c-0.684,0-1.98-0.178-2.811,2.884l-0.865,4.686H187.033z"/>
<path fill-rule="evenodd" clip-rule="evenodd" fill="#344050" d="M150.023,10.723h2.783l-0.572,2.711h1.498l-0.5,2.211h-1.428
	l-0.783,4.14c-0.144,0.783-0.07,1.499,1.536,1.251l-0.177,2.066c-0.61,0.393-1.43,0.5-2.072,0.5c-0.643,0-2.748-0.392-2.211-3.176
	L150.023,10.723z"/>
<path fill-rule="evenodd" clip-rule="evenodd" fill="#344050" d="M162.063,19.674c0.32-3,1.071-6.044-3.817-6.044
	c-4.496,0-5.064,4.29-5.174,4.934c-0.105,0.643-0.179,5.085,4.639,5.085c1.179,0.037,2.891-0.147,3.568-0.504l0.428-2.127
	c-0.428,0.108-2.035,0.577-3.141,0.577c-1.107,0-2.89-0.921-2.57-1.921H162.063z M156.301,16.646
	C156.32,16.567,156.328,16.543,156.301,16.646 M156.289,16.691c-0.013,0.057-0.031,0.141-0.063,0.256
	C156.246,16.86,156.274,16.764,156.289,16.691 M158.39,14.816c1.104,0,1.428,0.857,1.248,1.857h-3.461
	C156.498,15.674,157.283,14.816,158.39,14.816"/>
<path fill-rule="evenodd" clip-rule="evenodd" fill="#344050" d="M147.384,15.717l0.641-2.07c-1.322-0.498-2.353-0.392-2.749-0.392
	c-0.391,0-3.733-0.042-4.243,2.427c-0.393,1.891,0.298,2.675,0.963,2.961c1.072,0.464,1.677,0.893,2.246,1.178
	c0.708,0.353,0.579,1.533-0.355,1.533c-0.429,0-2.284,0.215-3.676-0.249l-0.393,2.105c1.286,0.355,2.319,0.355,3.285,0.355
	c0.676,0,3.993,0.181,4.458-2.89c0.227-1.498-0.427-2.177-0.964-2.497c-0.534-0.356-1.427-0.856-1.996-1.106
	c-0.572-0.248-0.999-1.213,0.035-1.498C145.276,15.502,146.597,15.502,147.384,15.717C147.384,15.717,146.597,15.502,147.384,15.717
	"/>
<polygon fill-rule="evenodd" clip-rule="evenodd" fill="#344050" points="129.329,23.565 131.648,11.222 127.083,11.222 
	123.691,18.713 123.157,11.222 118.697,11.222 116.308,23.565 119.091,23.565 120.803,14.646 121.552,23.565 124.193,23.565 
	128.081,14.859 126.437,23.565 "/>
<path fill="#344050" d="M132.566,13.574c0.108-0.02,0.203-0.04,0.281-0.054C132.75,13.539,132.65,13.559,132.566,13.574"/>
<path fill="#344050" d="M132.428,13.602c0.032-0.006,0.084-0.016,0.139-0.027C132.522,13.584,132.479,13.593,132.428,13.602"/>
<path fill="#344050" d="M132.379,13.611c0.019-0.001,0.032-0.004,0.049-0.01C132.398,13.607,132.379,13.611,132.379,13.611"/>
<path fill="#344050" d="M136.02,13.255c-0.857,0.035-1.82,0-3.64,0.356l-0.429,2.214c0.678-0.072,2.498-0.358,3.462-0.323
	c0.963,0.035,2.034-0.105,1.711,1.428c-0.713,0.072-5.707-0.714-6.491,3.566c-0.321,2.107,1.497,3.178,2.923,3.105
	c1.428-0.07,1.822-0.197,2.323-0.551l0.355,0.623h2.605l1.104-5.619C140.229,16.664,140.691,13.255,136.02,13.255 M136.445,20.106
	c-0.179,0.928-1.495,1.521-2.39,1.176c-0.928-0.356-0.678-1.427,0.214-2.033c0.893-0.606,1.926-0.319,2.391-0.249L136.445,20.106z"
	/>
<path fill="#344050" d="M132.848,13.521c0.171-0.034,0.267-0.053,0.31-0.062C133.105,13.471,132.984,13.494,132.848,13.521"/>
<path fill-rule="evenodd" clip-rule="evenodd" fill="#344050" d="M177.494,14.076c-0.711-0.43-1.213-0.5-2.141-0.5
	c-0.924,0-2.994,0.887-3.387,3.39c-0.465,2.96,1.569,4.423,4.422,3.46l0.82,2.498c-0.928,0.428-1.855,0.642-3.391,0.642
	c-2.889,0-6.028-2.569-4.602-7.778c1.053-3.838,4.354-5.244,6.281-5.17c2.281,0.084,3.104,0.854,3.816,1.641L177.494,14.076z"/>
<path fill-rule="evenodd" clip-rule="evenodd" fill="#344050" d="M201.951,12.674l-0.746,2.878c-0.537-0.391-0.857-1.736-2.18-1.736
	c-1.531,0-3.924-0.548-5.278,4.091c-0.905,3.1,0.926,5.791,2.925,5.791c0.928-0.036,1.855-0.44,2.426-0.833l0.357,0.81h2.998
	l2.426-11H201.951z M200.204,18.678c-0.499,1.248-1.142,2.068-2.176,2.068c-0.964,0-1.82-1.104-1.427-2.567
	c0.6-2.237,2.569-3.138,3.424-1.998C200.334,16.592,200.492,17.752,200.204,18.678"/>
<path fill="#344050" d="M179.516,13.604c0.081-0.017,0.263-0.052,0.434-0.084C179.838,13.539,179.697,13.568,179.516,13.604"/>
<path fill="#344050" d="M179.949,13.52c0.133-0.025,0.253-0.049,0.305-0.061C180.21,13.468,180.115,13.486,179.949,13.52"/>
<path fill="#344050" d="M183.113,13.255c-0.855,0.035-1.82,0-3.639,0.356l-0.426,2.214c0.676-0.072,2.496-0.358,3.459-0.323
	s2.035-0.105,1.712,1.428c-0.714,0.072-5.708-0.714-6.491,3.566c-0.324,2.107,1.498,3.178,2.924,3.105
	c1.427-0.07,1.817-0.197,2.32-0.551l0.357,0.623h2.605l1.105-5.619C187.326,16.664,187.787,13.255,183.113,13.255 M183.541,20.106
	c-0.176,0.928-1.494,1.521-2.391,1.176c-0.926-0.356-0.678-1.427,0.215-2.033s1.93-0.319,2.391-0.249L183.541,20.106z"/>
<path fill-rule="evenodd" clip-rule="evenodd" fill="#344050" d="M162.164,23.565l1.889-10.132h2.392l0.247,1
	c0.432-0.499,1.25-1,2.64-1l-0.711,2.676c-0.679,0-1.999-0.213-2.817,2.82l-0.858,4.636H162.164z"/>
<path fill-rule="evenodd" clip-rule="evenodd" fill="#344050" d="M77.404,13.443c-0.773-0.432-1.981-0.65-3.637-0.65
	c-0.818,0-1.639,0.066-2.464,0.197c-0.605,0.092-0.667,0.105-1.043,0.188c-0.775,0.168-0.894,0.942-0.894,0.942l-0.249,1.021
	c-0.141,0.653,0.232,0.63,0.396,0.577c0.338-0.102,0.523-0.203,1.211-0.357c0.661-0.152,1.355-0.265,1.911-0.26
	c0.815,0,1.435,0.093,1.844,0.263c0.414,0.179,0.617,0.485,0.617,0.923c0.002,0.105,0.004,0.203-0.034,0.289
	c-0.032,0.079-0.097,0.155-0.293,0.182c-1.163,0.071-1.998,0.178-3.001,0.324c-0.992,0.139-1.86,0.378-2.584,0.71
	c-0.773,0.344-1.352,0.802-1.75,1.385c-0.387,0.581-0.583,1.291-0.586,2.124c0,0.786,0.284,1.428,0.833,1.928
	c0.553,0.491,1.275,0.735,2.146,0.735c0.545-0.004,0.972-0.044,1.276-0.119c0.303-0.079,0.634-0.185,0.981-0.337
	c0.261-0.107,0.543-0.266,0.839-0.463c0.298-0.199,0.502-0.34,0.767-0.512l0.008,0.015l-0.073,0.328
	c-0.001,0.003-0.005,0.005-0.005,0.005l0.002,0.009c-0.084,0.396,0.152,0.724,0.543,0.763l0.006,0.008h0.033h0.002h1.566h0.29
	c0.021,0,0.021-0.007,0.029-0.011c0.399-0.049,0.782-0.374,0.872-0.764l1.486-6.417c0.035-0.15,0.062-0.324,0.078-0.523
	c0.02-0.204,0.041-0.371,0.032-0.49C78.564,14.547,78.175,13.875,77.404,13.443 M74.534,18.947c-0.023,0.137-0.288,1.225-0.41,1.718
	c-0.033,0.149-0.234,0.364-0.322,0.422c-0.253,0.16-0.519,0.299-0.799,0.413c-0.376,0.152-0.732,0.231-1.062,0.231
	c-0.506,0-0.893-0.073-1.156-0.226c-0.265-0.145-0.402-0.398-0.397-0.76c0-0.414,0.095-0.74,0.294-0.992
	c0.202-0.244,0.498-0.441,0.871-0.586c0.366-0.125,0.816-0.229,1.339-0.301c0.464-0.061,1.383-0.165,1.499-0.165
	C74.508,18.699,74.587,18.636,74.534,18.947"/>
<path fill-rule="evenodd" clip-rule="evenodd" fill="#344050" d="M54.276,12.938c-0.488,0.007-2.442,0-2.442,0
	c-0.436,0-1.008,0.354-1.28,0.777c0,0-2.915,5.001-3.201,5.5c-0.157,0.27-0.314,0.098-0.342-0.001
	c-0.019-0.122-0.903-5.466-0.903-5.466c-0.098-0.43-0.548-0.799-1.11-0.797l-1.818,0.002c-0.439,0-0.713,0.352-0.615,0.775
	c0,0,1.39,7.881,1.66,9.733c0.136,1.024-0.013,1.204-0.013,1.204l-1.802,3.145c-0.263,0.426-0.119,0.775,0.317,0.775l2.109-0.002
	c0.436,0,1.012-0.348,1.272-0.773l8.107-13.713C54.215,14.098,54.993,12.927,54.276,12.938"/>
<path fill-rule="evenodd" clip-rule="evenodd" fill="#344050" d="M30.634,11.654c-0.251-0.492-0.632-0.895-1.116-1.197
	c-0.502-0.309-1.085-0.523-1.765-0.652c-0.686-0.121-1.485-0.182-2.403-0.19L21.1,9.619c-0.439,0.004-0.874,0.35-0.975,0.775
	l-2.864,12.453c-0.098,0.426,0.177,0.779,0.617,0.779h2.034c0.441,0,0.877-0.346,0.976-0.779l0.701-3.023
	c0.094-0.422,0.529-0.771,0.971-0.771h0.58c2.489-0.003,4.421-0.513,5.807-1.532c1.385-1.016,2.078-2.366,2.077-4.032
	C31.025,12.757,30.899,12.145,30.634,11.654 M26.238,15.725c-0.611,0.447-1.462,0.672-2.566,0.672h-0.499
	c-0.44,0-0.718-0.346-0.62-0.777l0.612-2.64c0.094-0.425,0.532-0.777,0.972-0.773l0.666-0.004c0.779,0,1.371,0.132,1.769,0.397
	c0.394,0.258,0.593,0.664,0.585,1.213C27.169,14.636,26.857,15.274,26.238,15.725"/>
<path fill-rule="evenodd" clip-rule="evenodd" fill="#344050" d="M67.585,11.699c-0.252-0.492-0.636-0.891-1.12-1.199
	c-0.498-0.307-1.087-0.523-1.771-0.648c-0.676-0.118-1.479-0.188-2.393-0.189l-4.259,0.002c-0.437,0.008-0.867,0.352-0.968,0.775
	L54.21,22.898c-0.105,0.423,0.18,0.775,0.612,0.773l2.043-0.004c0.433,0.004,0.873-0.347,0.976-0.77l0.692-3.023
	c0.095-0.426,0.537-0.779,0.976-0.772h0.581c2.494,0,4.425-0.511,5.808-1.53c1.38-1.025,2.076-2.369,2.076-4.039
	C67.968,12.803,67.845,12.188,67.585,11.699 M63.191,15.775c-0.607,0.443-1.465,0.666-2.566,0.666h-0.508
	c-0.437,0.006-0.72-0.35-0.615-0.773l0.61-2.645c0.091-0.417,0.534-0.775,0.969-0.769l0.667-0.007
	c0.781,0.007,1.367,0.135,1.768,0.395c0.398,0.261,0.589,0.67,0.593,1.213C64.111,14.686,63.804,15.32,63.191,15.775"/>
<path fill-rule="evenodd" clip-rule="evenodd" fill="#344050" d="M40.445,13.434c-0.772-0.433-1.982-0.649-3.637-0.649
	c-0.816,0-1.638,0.066-2.463,0.194c-0.608,0.092-0.667,0.107-1.044,0.189c-0.774,0.17-0.893,0.943-0.893,0.943l-0.25,1.021
	c-0.14,0.653,0.233,0.627,0.398,0.576c0.337-0.101,0.522-0.203,1.211-0.359c0.657-0.148,1.354-0.261,1.91-0.257
	c0.814,0,1.433,0.089,1.844,0.261c0.412,0.18,0.617,0.486,0.617,0.922c0.002,0.105,0.004,0.203-0.033,0.287
	c-0.034,0.082-0.1,0.16-0.295,0.186c-1.162,0.072-1.995,0.179-3.002,0.322c-0.992,0.141-1.858,0.38-2.582,0.711
	c-0.775,0.342-1.354,0.803-1.75,1.384c-0.389,0.583-0.585,1.291-0.585,2.124c0,0.788,0.284,1.43,0.83,1.929
	c0.555,0.493,1.275,0.735,2.147,0.735c0.545-0.002,0.971-0.043,1.276-0.119c0.304-0.076,0.633-0.185,0.981-0.336
	c0.262-0.109,0.543-0.267,0.84-0.465c0.295-0.196,0.502-0.339,0.767-0.51l0.008,0.016l-0.073,0.329l-0.005,0.003l0.002,0.01
	c-0.085,0.395,0.151,0.724,0.543,0.762l0.004,0.007h0.034l0.003,0.003c0.259,0,1.15-0.003,1.565-0.003h0.29
	c0.021,0,0.022-0.005,0.029-0.011c0.4-0.049,0.781-0.375,0.872-0.763l1.486-6.416c0.033-0.151,0.063-0.325,0.076-0.524
	c0.021-0.205,0.042-0.371,0.035-0.49C41.604,14.537,41.216,13.867,40.445,13.434 M37.576,18.938
	c-0.021,0.135-0.288,1.225-0.41,1.719c-0.035,0.147-0.235,0.365-0.322,0.422c-0.253,0.159-0.52,0.295-0.799,0.409
	c-0.376,0.151-0.735,0.233-1.063,0.233c-0.505,0-0.893-0.07-1.157-0.226c-0.262-0.146-0.401-0.396-0.397-0.757
	c0-0.418,0.097-0.742,0.295-0.996c0.202-0.242,0.499-0.439,0.869-0.586c0.367-0.125,0.822-0.228,1.339-0.301
	c0.467-0.059,1.384-0.162,1.503-0.166C37.549,18.689,37.628,18.626,37.576,18.938"/>
<path fill-rule="evenodd" clip-rule="evenodd" fill="#344050" d="M84.42,9.765H82.6h-0.003h-0.003c-0.416,0-0.838,0.32-0.956,0.726
	c-0.005,0.018-0.014,0.034-0.018,0.051c0,0-0.043,0.195-0.118,0.539l-2.501,11.338c-0.059,0.256-0.097,0.423-0.108,0.467
	l0.005,0.005c-0.087,0.396,0.151,0.725,0.543,0.763l0.003,0.008h1.891c0.415,0,0.836-0.317,0.955-0.719
	c0.007-0.02,0.017-0.038,0.021-0.057l2.729-12.349h-0.005C85.128,10.115,84.857,9.765,84.42,9.765"/>
<text transform="matrix(1 0 0 1 6.6953 90.4902)"><tspan x="0" y="0" fill="#344050" font-family="'NotoSans-Bold'" font-size="9.8736">B</tspan><tspan x="6.545" y="0" fill="#344050" font-family="'NotoSans-Bold'" font-size="9.8736">ANK TRANSFER</tspan></text>
<path fill="#344050" d="M60.44,56.801v1.719h-1.72c0,0.471-0.417,0.857-0.927,0.857H37.297c-0.51,0-0.928-0.387-0.928-0.857H34.65
	v-1.719l12.895-5.159L60.44,56.801z M60.44,73.992v1.72H34.65v-1.72c0-0.469,0.416-0.859,0.926-0.859h23.936
	C60.022,73.133,60.44,73.523,60.44,73.992 M41.527,60.238v10.315h1.719V60.238h3.439v10.315h1.719V60.238h3.439v10.315h1.72V60.238
	H57v10.315h0.793c0.51,0,0.927,0.39,0.927,0.858v0.861H36.369v-0.861c0-0.469,0.418-0.858,0.928-0.858h0.792V60.238H41.527z"/>
<path fill="#344050" d="M120.8,71.969c0.011-0.725,0.171-1.279,0.487-1.658c0.162-0.159,0.37-0.29,0.62-0.401
	c0.26-0.114,0.51-0.168,0.755-0.168h2.964c1.308,0.011,1.97,0.724,1.994,2.144v4.373c-0.011,0.502-0.207,0.939-0.591,1.307
	c-0.378,0.383-0.83,0.578-1.354,0.592h-2.802v3.15H120.8V71.969z M125.545,72.381c-0.011-0.328-0.167-0.5-0.47-0.514h-1.612
	c-0.384,0.025-0.579,0.234-0.59,0.629v2.901c0.011,0.409,0.228,0.618,0.652,0.629h1.48c0.152,0,0.282-0.06,0.383-0.176
	c0.106-0.085,0.157-0.198,0.157-0.337V72.381z"/>
<path fill="#344050" d="M134.052,72.329c0.01-0.32-0.174-0.471-0.558-0.462h-4.174v-2.126h4.699c1.37,0.021,2.065,0.683,2.087,1.988
	v4.452c-0.01,0.565-0.182,1.027-0.518,1.399c-0.349,0.384-0.8,0.575-1.354,0.575h-2.842c-1.383-0.014-2.084-0.643-2.106-1.898
	v-1.717c0.012-1.314,0.68-1.981,2.007-2.003h2.759V72.329z M131.361,75.604c0,0.122,0.055,0.22,0.166,0.291
	c0.098,0.086,0.219,0.131,0.375,0.131h1.592c0.361,0,0.546-0.14,0.558-0.422v-0.597c0-0.32-0.19-0.485-0.572-0.485h-1.578
	c-0.207,0-0.35,0.035-0.43,0.1c-0.074,0.078-0.111,0.229-0.111,0.456V75.604z"/>
<path fill="#344050" d="M141.931,79.178c0.166-0.01,0.304-0.072,0.422-0.176c0.111-0.102,0.166-0.211,0.166-0.342v-0.197v-0.307
	h-2.652c-0.347,0-0.627-0.043-0.831-0.13c-0.216-0.085-0.436-0.231-0.653-0.442c-0.208-0.227-0.357-0.461-0.448-0.705
	c-0.095-0.226-0.144-0.515-0.144-0.854V69.74h2.076v5.611c0,0.449,0.184,0.674,0.554,0.674h1.464c0.174,0,0.325-0.059,0.45-0.175
	c0.122-0.095,0.184-0.214,0.184-0.354V75.27V69.74h2.056v9.273c-0.012,0.686-0.186,1.234-0.527,1.652
	c-0.346,0.414-0.817,0.632-1.417,0.641h-4.84v-2.129H141.931z"/>
<path fill="#344050" d="M146.202,76.025h3.694c0.339-0.01,0.512-0.148,0.525-0.406V75.43c0-0.057-0.018-0.119-0.049-0.184
	c-0.083-0.16-0.186-0.241-0.306-0.241h-0.22h-1.611c-0.542-0.013-1.008-0.2-1.396-0.56c-0.394-0.336-0.597-0.744-0.609-1.227v-1.584
	c0.023-1.246,0.696-1.872,2.021-1.894h4.284v2.126h-3.629c-0.427,0-0.641,0.134-0.641,0.391v0.205c0,0.271,0.219,0.408,0.657,0.408
	h1.824c0.486,0.009,0.902,0.199,1.247,0.56c0.351,0.366,0.528,0.804,0.542,1.308v1.555c-0.014,0.434-0.214,0.867-0.602,1.303
	c-0.19,0.217-0.383,0.361-0.578,0.447c-0.198,0.072-0.471,0.113-0.819,0.113h-4.334V76.025z"/>
<path fill="#344050" d="M158.775,72.329c0.01-0.32-0.176-0.471-0.559-0.462h-4.176v-2.126h4.704
	c1.368,0.021,2.063,0.683,2.084,1.988v4.452c-0.011,0.565-0.185,1.027-0.519,1.399c-0.347,0.384-0.8,0.575-1.354,0.575h-2.844
	c-1.383-0.014-2.084-0.643-2.104-1.898v-1.717c0.01-1.314,0.68-1.981,2.01-2.003h2.756V72.329z M156.083,75.604
	c0,0.122,0.054,0.22,0.168,0.291c0.097,0.086,0.222,0.131,0.373,0.131h1.595c0.361,0,0.547-0.14,0.557-0.422v-0.597
	c0-0.32-0.192-0.485-0.574-0.485h-1.577c-0.208,0-0.351,0.035-0.429,0.1c-0.074,0.078-0.112,0.229-0.112,0.456V75.604z"/>
<path fill="#344050" d="M162.514,68.528c0.012-0.572,0.227-1.032,0.641-1.377c0.401-0.354,0.932-0.536,1.586-0.544h1.316v2.059
	h-0.798c-0.437,0.006-0.661,0.216-0.67,0.623v0.452h1.468v2.126h-1.468v6.289h-2.075V68.528z"/>
<path fill="#344050" d="M169.387,75.297v0.133c0,0.174,0.043,0.309,0.135,0.404c0.063,0.128,0.151,0.191,0.269,0.191h0.261h3.995
	v2.131h-4.524c-0.416,0-0.737-0.041-0.963-0.117c-0.25-0.082-0.473-0.217-0.668-0.4c-0.228-0.229-0.384-0.453-0.461-0.692
	c-0.086-0.247-0.127-0.573-0.127-0.979l-0.02-4.259c0.023-1.292,0.697-1.945,2.02-1.967h2.793c1.291,0.021,1.945,0.696,1.965,2.033
	v1.687L169.387,75.297z M171.952,72.289V72.24c0-0.111-0.044-0.2-0.134-0.271c-0.096-0.068-0.215-0.102-0.357-0.102h-1.443
	c-0.185,0-0.334,0.055-0.449,0.159c-0.143,0.099-0.217,0.228-0.217,0.386v0.858L171.952,72.289z"/>
<path fill="#344050" d="M178.449,78.156c-0.314,0-0.6-0.028-0.859-0.082c-0.273-0.045-0.543-0.172-0.822-0.385
	c-0.285-0.246-0.48-0.529-0.59-0.832c-0.113-0.301-0.166-0.643-0.166-1.029v-3.977c-0.014-0.32,0.02-0.605,0.097-0.852
	c0.069-0.248,0.214-0.491,0.437-0.722c0.252-0.247,0.51-0.417,0.781-0.497c0.261-0.064,0.557-0.1,0.887-0.1h3.176v0.5h-3.103
	c-0.548,0-0.978,0.113-1.292,0.338c-0.322,0.248-0.488,0.668-0.488,1.264v3.978c0,0.284,0.043,0.554,0.129,0.819
	c0.088,0.258,0.231,0.481,0.44,0.681c0.226,0.171,0.449,0.277,0.669,0.323c0.229,0.049,0.475,0.073,0.732,0.073h2.963v0.499H178.449
	z"/>
<path fill="#344050" d="M190.055,75.861c0,0.32-0.023,0.602-0.063,0.85c-0.07,0.267-0.207,0.528-0.416,0.772
	c-0.436,0.458-0.975,0.685-1.617,0.673h-2.478c-0.644,0-1.164-0.191-1.569-0.575c-0.412-0.377-0.621-0.901-0.621-1.577v-1.282
	c0.02-1.446,0.741-2.187,2.16-2.219h4.125v-0.56c0-0.467-0.133-0.87-0.398-1.218c-0.17-0.227-0.37-0.374-0.596-0.45
	c-0.23-0.066-0.488-0.094-0.775-0.094h-4.501v-0.5h4.266c0.392,0,0.745,0.029,1.063,0.084c0.164,0.032,0.313,0.096,0.453,0.189
	c0.146,0.087,0.281,0.22,0.408,0.387c0.381,0.492,0.568,1.061,0.559,1.701V75.861z M189.562,72.998h-4.167
	c-0.496,0.014-0.889,0.17-1.17,0.463c-0.291,0.301-0.434,0.716-0.434,1.24v1.273c0,0.244,0.024,0.466,0.076,0.67
	c0.053,0.213,0.184,0.402,0.391,0.564c0.361,0.302,0.757,0.448,1.193,0.448h2.523c1.055-0.009,1.587-0.568,1.587-1.669V72.998z"/>
<path fill="#344050" d="M194.716,70.182c-1.158,0.021-1.728,0.652-1.704,1.893v6.082h-0.497v-6.08
	c-0.024-1.598,0.736-2.395,2.28-2.395h0.551v0.5H194.716z"/>
<path fill="#344050" d="M203.601,75.801c-0.043,1.604-0.894,2.389-2.547,2.355h-1.841c-0.39,0-0.735-0.031-1.043-0.095
	c-0.316-0.081-0.619-0.278-0.912-0.578c-0.219-0.266-0.359-0.54-0.416-0.819c-0.075-0.281-0.108-0.592-0.098-0.934v-3.619
	c0.022-1.627,0.844-2.441,2.465-2.428h3.896v-2.745h0.496V75.801z M203.104,70.185h-3.926c-0.282,0-0.536,0.031-0.765,0.091
	c-0.24,0.057-0.47,0.203-0.687,0.434c-0.206,0.217-0.337,0.431-0.394,0.645c-0.07,0.216-0.104,0.471-0.092,0.771v3.879
	c0,0.645,0.187,1.085,0.563,1.315c0.188,0.112,0.393,0.196,0.624,0.249c0.23,0.064,0.484,0.093,0.766,0.093h1.717
	c0.641,0,1.168-0.147,1.568-0.443c0.404-0.279,0.609-0.767,0.624-1.448V70.185z"/>
<path fill="#344050" d="M109.285,69.421c0.162-0.073,0.327-0.129,0.489-0.163c0.298-1.427,1.564-2.502,3.079-2.502
	c1.52,0,2.786,1.075,3.084,2.502c0.466,0.09,0.852,0.279,1.152,0.555c0.01-0.271,0.001-0.537-0.032-0.787
	c-0.192-2.157-2.001-3.852-4.209-3.852c-2.273,0-4.122,1.803-4.218,4.051c-0.014,0.196-0.017,0.398-0.011,0.613
	C108.811,69.676,109.028,69.531,109.285,69.421"/>
<path fill="#344050" d="M115.321,69.741h-5.063c-0.245,0-0.498,0.054-0.754,0.168c-0.253,0.111-0.459,0.241-0.622,0.401
	c-0.315,0.379-0.478,0.934-0.489,1.658v3.957c0.011,0.728,0.174,1.278,0.489,1.655c0.163,0.16,0.369,0.294,0.622,0.404
	c0.256,0.114,0.509,0.171,0.754,0.171h5.063c1.308-0.014,1.973-0.729,1.994-2.146v-4.126
	C117.294,70.465,116.629,69.752,115.321,69.741"/>
<path fill="#344050" d="M146.292,89.545v-4.256c0-0.07,0.007-0.135,0.013-0.199c0.065-0.506,0.265-0.724,0.729-0.812
	c0.042-0.007,0.091-0.019,0.134-0.019h1.396c0.07,0,0.135,0.012,0.197,0.025c0.493,0.086,0.743,0.398,0.743,0.963v1.992
	c0,0.154-0.059,0.327-0.178,0.483c-0.039,0.042-0.072,0.085-0.109,0.119c-0.184,0.171-0.398,0.267-0.627,0.267h-1.323v1.436
	C147.26,89.517,146.292,89.545,146.292,89.545 M147.275,86.896c0.021,0.145,0.092,0.207,0.241,0.231
	c0.014,0.007,0.035,0.007,0.058,0.007h0.696h0.044c0.07-0.018,0.122-0.045,0.154-0.086c0.037-0.059,0.057-0.111,0.057-0.146v-1.432
	v-0.034c-0.02-0.112-0.061-0.16-0.182-0.188c-0.014-0.008-0.022-0.008-0.035-0.008h-0.764c-0.12,0-0.191,0.049-0.242,0.165
	c-0.027,0.056-0.035,0.089-0.035,0.125v1.312C147.268,86.859,147.268,86.879,147.275,86.896"/>
<path fill="#344050" d="M150.17,87.24v-0.782c0-0.578,0.359-0.915,0.941-0.915h1.303l-0.006-0.205c0-0.09-0.064-0.125-0.206-0.149
	h-0.052h-1.964V84.26h2.214c0.057,0,0.113,0.012,0.171,0.019c0.492,0.058,0.72,0.265,0.794,0.72c0.02,0.057,0.02,0.115,0.02,0.17
	v2.033c0,0.06,0,0.123-0.02,0.181c-0.082,0.44-0.423,0.728-0.866,0.728h-1.336c-0.57,0-0.893-0.249-0.977-0.702
	C150.191,87.354,150.17,87.24,150.17,87.24 M151.197,87.07c0.027,0.041,0.077,0.071,0.15,0.088c0.019,0.002,0.035,0.002,0.049,0.002
	h0.762c0.094,0,0.148-0.019,0.193-0.067c0.033-0.044,0.057-0.098,0.057-0.155v-0.267c0-0.122-0.008-0.134-0.123-0.194
	c-0.027-0.019-0.064-0.027-0.135-0.027h-0.811l-0.043,0.009c-0.094,0.014-0.134,0.054-0.15,0.185v0.057v0.238
	C151.146,86.968,151.163,87.029,151.197,87.07"/>
<path fill="#344050" d="M154.051,89.545v-0.973h1.952c0.021,0,0.043,0,0.057-0.01c0.136-0.026,0.201-0.105,0.22-0.227V88.25v-0.141
	h-1.258c-0.392,0-0.599-0.098-0.834-0.431c-0.092-0.138-0.137-0.29-0.137-0.544V84.26h0.977v2.57c0,0.205,0.09,0.305,0.264,0.305
	h0.689c0.014,0,0.039,0,0.057-0.007c0.135-0.024,0.224-0.11,0.242-0.235v-0.1V84.26h0.967v4.241c0,0.062,0,0.128-0.012,0.189
	c-0.065,0.472-0.307,0.741-0.703,0.837c-0.067,0.012-0.135,0.018-0.201,0.018H154.051z"/>
<path fill="#344050" d="M158.881,87.111v-1.938c0-0.547,0.221-0.816,0.654-0.896c0.05-0.01,0.109-0.019,0.158-0.019h1.771v0.98
	h-1.317c-0.205,0-0.263,0.027-0.291,0.156v0.121v1.342c0,0.06,0.014,0.118,0.049,0.158c0.05,0.08,0.123,0.117,0.222,0.117h1.338
	v0.975h-1.565C159.201,88.109,158.881,87.787,158.881,87.111"/>
<path fill="#344050" d="M162.029,87.24v-0.782c0-0.578,0.354-0.915,0.936-0.915h1.306l-0.007-0.205c0-0.09-0.064-0.125-0.208-0.149
	h-0.05h-1.967V84.26h2.215c0.059,0,0.113,0.012,0.171,0.019c0.491,0.058,0.721,0.265,0.799,0.72c0.015,0.057,0.015,0.115,0.015,0.17
	v2.033c0,0.06,0,0.123-0.015,0.181c-0.087,0.44-0.426,0.728-0.868,0.728h-1.34c-0.568,0-0.891-0.249-0.977-0.702
	C162.047,87.354,162.029,87.24,162.029,87.24 M163.053,87.07c0.027,0.041,0.077,0.071,0.148,0.088
	c0.021,0.002,0.035,0.002,0.051,0.002h0.762c0.093,0,0.148-0.019,0.193-0.067c0.033-0.044,0.057-0.098,0.057-0.155v-0.267
	c0-0.122-0.01-0.134-0.122-0.194c-0.03-0.019-0.063-0.027-0.136-0.027h-0.811l-0.043,0.009c-0.094,0.014-0.137,0.054-0.15,0.185
	v0.057v0.238C163.002,86.968,163.016,87.029,163.053,87.07"/>
<path fill="#344050" d="M165.805,88.109v-0.975h1.695h0.041c0.115-0.023,0.174-0.059,0.193-0.15
	c0.008-0.017,0.008-0.029,0.008-0.047v-0.078c0-0.018-0.008-0.049-0.022-0.082c-0.034-0.066-0.07-0.093-0.144-0.105h-0.098h-0.74
	c-0.156,0-0.299-0.035-0.42-0.107c-0.349-0.193-0.492-0.412-0.492-0.709v-0.725c0-0.072,0.01-0.15,0.029-0.219
	c0.102-0.418,0.42-0.652,0.919-0.652h1.966l0.006,0.98h-1.672h-0.086h-0.014c-0.031,0.008-0.05,0.015-0.08,0.027
	c-0.006,0.009-0.013,0.014-0.02,0.021c-0.064,0.054-0.088,0.103-0.088,0.13v0.089c0,0.022,0.016,0.068,0.051,0.115
	c0.029,0.037,0.072,0.059,0.185,0.072h0.052h0.819c0.247,0,0.438,0.09,0.611,0.291c0.155,0.195,0.235,0.4,0.235,0.563l-0.014,0.708
	c0,0.161-0.061,0.319-0.15,0.464c-0.215,0.293-0.4,0.389-0.764,0.389H165.805z"/>
<path fill="#344050" d="M169.366,88.109v-5.284h0.976v1.435h1.324c0.055,0,0.105,0.012,0.155,0.019
	c0.42,0.088,0.649,0.321,0.728,0.712c0.004,0.047,0.004,0.1,0.004,0.15v2.969h-0.965v-2.574v-0.081l-0.008-0.035
	c0-0.106-0.061-0.164-0.191-0.179h-0.053h-0.719c-0.118,0-0.171,0.021-0.221,0.072c-0.034,0.03-0.049,0.067-0.055,0.106v0.124v2.566
	H169.366z"/>
<path fill="#344050" d="M173.066,87.519c-0.006-0.165,0.059-0.319,0.173-0.442c0.234-0.241,0.632-0.245,0.864,0
	c0.236,0.232,0.236,0.617-0.003,0.852c-0.229,0.237-0.606,0.237-0.851,0.008C173.141,87.83,173.075,87.682,173.066,87.519"/>
<path fill="#344050" d="M176.859,89.545v-4.256c0-0.07,0.008-0.135,0.016-0.199c0.066-0.506,0.264-0.724,0.726-0.812
	c0.042-0.007,0.093-0.019,0.136-0.019h1.396c0.07,0,0.133,0.012,0.197,0.025c0.492,0.086,0.742,0.398,0.742,0.963v1.992
	c0,0.154-0.059,0.327-0.18,0.483c-0.035,0.042-0.07,0.085-0.107,0.119c-0.185,0.171-0.397,0.267-0.625,0.267h-1.324v1.436
	C177.828,89.517,176.859,89.545,176.859,89.545 M177.845,86.896c0.021,0.145,0.092,0.207,0.241,0.231
	c0.014,0.007,0.035,0.007,0.057,0.007h0.697h0.044c0.069-0.018,0.12-0.045,0.153-0.086c0.039-0.059,0.061-0.111,0.061-0.146v-1.432
	v-0.034c-0.021-0.112-0.066-0.16-0.186-0.188c-0.016-0.008-0.023-0.008-0.037-0.008h-0.76c-0.123,0-0.192,0.049-0.242,0.165
	c-0.028,0.056-0.037,0.089-0.037,0.125v1.312C177.836,86.859,177.836,86.879,177.845,86.896"/>
<path fill="#344050" d="M180.74,87.24v-0.782c0-0.578,0.357-0.915,0.94-0.915h1.302l-0.005-0.205c0-0.09-0.067-0.125-0.209-0.149
	h-0.048h-1.967V84.26h2.215c0.058,0,0.117,0.012,0.171,0.019c0.491,0.058,0.718,0.265,0.798,0.72
	c0.012,0.057,0.012,0.115,0.012,0.17v2.033c0,0.06,0,0.123-0.012,0.181c-0.084,0.44-0.43,0.728-0.871,0.728h-1.336
	c-0.57,0-0.891-0.249-0.977-0.702C180.764,87.354,180.74,87.24,180.74,87.24 M181.766,87.07c0.027,0.041,0.077,0.071,0.15,0.088
	c0.022,0.002,0.035,0.002,0.049,0.002h0.763c0.093,0,0.149-0.019,0.192-0.067c0.035-0.044,0.058-0.098,0.058-0.155v-0.267
	c0-0.122-0.009-0.134-0.122-0.194c-0.029-0.019-0.064-0.027-0.135-0.027h-0.811l-0.045,0.009c-0.093,0.014-0.135,0.054-0.149,0.185
	v0.057v0.238C181.716,86.968,181.73,87.029,181.766,87.07"/>
<path fill="#344050" d="M184.62,89.545v-0.973h1.95c0.023,0,0.043,0,0.059-0.01c0.135-0.026,0.196-0.105,0.221-0.227V88.25v-0.141
	h-1.26c-0.394,0-0.6-0.098-0.836-0.431c-0.094-0.138-0.134-0.29-0.134-0.544V84.26h0.976v2.57c0,0.205,0.092,0.305,0.262,0.305
	h0.691c0.014,0,0.035,0,0.059-0.007c0.133-0.024,0.218-0.11,0.242-0.235v-0.1V84.26h0.967v4.241c0,0.062,0,0.128-0.012,0.189
	c-0.066,0.472-0.308,0.741-0.707,0.837c-0.064,0.012-0.135,0.018-0.197,0.018H184.62z"/>
<path fill="#344050" d="M189.398,88.109v-0.975h1.695h0.041c0.115-0.023,0.17-0.059,0.195-0.15c0.004-0.017,0.004-0.029,0.004-0.047
	v-0.078c0-0.018-0.004-0.049-0.019-0.082c-0.037-0.066-0.069-0.093-0.144-0.105h-0.1h-0.738c-0.158,0-0.303-0.035-0.423-0.107
	c-0.347-0.193-0.491-0.412-0.491-0.709v-0.725c0-0.072,0.008-0.15,0.03-0.219c0.099-0.418,0.421-0.652,0.917-0.652h1.963l0.008,0.98
	h-1.67h-0.086h-0.016c-0.029,0.008-0.049,0.015-0.077,0.027c-0.008,0.009-0.015,0.014-0.022,0.021
	c-0.064,0.054-0.084,0.103-0.084,0.13v0.089c0,0.022,0.014,0.068,0.047,0.115c0.029,0.037,0.072,0.059,0.186,0.072h0.053h0.816
	c0.249,0,0.441,0.09,0.613,0.291c0.154,0.195,0.232,0.4,0.232,0.563l-0.013,0.708c0,0.161-0.058,0.319-0.147,0.464
	c-0.215,0.293-0.4,0.389-0.766,0.389H189.398z"/>
<path fill="#344050" d="M192.959,87.24v-0.782c0-0.578,0.354-0.915,0.938-0.915h1.304l-0.007-0.205c0-0.09-0.064-0.125-0.206-0.149
	h-0.049h-1.968V84.26h2.217c0.057,0,0.113,0.012,0.17,0.019c0.491,0.058,0.721,0.265,0.798,0.72c0.015,0.057,0.015,0.115,0.015,0.17
	v2.033c0,0.06,0,0.123-0.015,0.181c-0.086,0.44-0.429,0.728-0.87,0.728h-1.337c-0.569,0-0.89-0.249-0.978-0.702
	C192.979,87.354,192.959,87.24,192.959,87.24 M193.983,87.07c0.026,0.041,0.079,0.071,0.149,0.088
	c0.021,0.002,0.037,0.002,0.052,0.002h0.761c0.091,0,0.146-0.019,0.191-0.067c0.037-0.044,0.057-0.098,0.057-0.155v-0.267
	c0-0.122-0.006-0.134-0.122-0.194c-0.026-0.019-0.062-0.027-0.133-0.027h-0.812l-0.043,0.009c-0.093,0.014-0.136,0.054-0.149,0.185
	v0.057v0.238C193.935,86.968,193.948,87.029,193.983,87.07"/>
<path fill="#344050" d="M196.839,88.109v-4.396c0-0.489,0.411-0.882,1.038-0.882h0.619v0.935h-0.37c-0.013,0-0.036,0.005-0.05,0.005
	c-0.178,0.03-0.262,0.131-0.262,0.288v0.2h0.682v0.98h-0.682v2.869H196.839z"/>
<path fill="#344050" d="M198.758,85.161c0-0.065,0.009-0.13,0.023-0.19c0.109-0.472,0.4-0.711,0.935-0.711h1.321
	c0.06,0,0.115,0.012,0.174,0.019c0.449,0.07,0.684,0.315,0.742,0.753c0.005,0.051,0.005,0.105,0.005,0.164v0.77l-2.207,0.832v0.063
	c0,0.158,0.069,0.271,0.19,0.271h2.012v0.979h-2.145c-0.316,0-0.445-0.031-0.578-0.105c-0.34-0.188-0.473-0.44-0.473-0.893V85.161z
	 M200.967,85.479v-0.018v-0.018c-0.014-0.064-0.072-0.125-0.186-0.152c-0.019-0.002-0.035-0.002-0.047-0.002h-0.685
	c-0.022,0-0.058,0.002-0.108,0.023c-0.101,0.025-0.148,0.062-0.185,0.124c-0.015,0.034-0.022,0.069-0.022,0.099v0.391
	L200.967,85.479z"/>
<path fill="#344050" d="M202.419,87.519c-0.008-0.165,0.058-0.319,0.173-0.442c0.234-0.241,0.633-0.245,0.868,0
	c0.233,0.232,0.233,0.617-0.007,0.852c-0.229,0.237-0.605,0.237-0.848,0.008C202.49,87.83,202.426,87.682,202.419,87.519"/>
<path fill="#344050" d="M254.777,65.686c-0.816,0-1.607,0.188-2.352,0.537c-1.062,0.504-2.024,1.343-2.812,2.455
	c-0.51,0.723-0.946,1.56-1.29,2.497c-0.646,1.768-0.639,3.202,0.021,4.146c0.375,0.534,1.152,1.173,2.734,1.175h0.004
	c2.881,0,5.033-1.889,6.396-5.613c0.36-0.984,0.835-2.824-0.033-4.064C256.922,66.068,256.026,65.688,254.777,65.686
	 M272.162,65.686c-0.816,0-1.608,0.188-2.352,0.537c-1.063,0.504-2.025,1.343-2.811,2.455c-0.512,0.723-0.949,1.56-1.291,2.497
	c-0.647,1.768-0.639,3.202,0.022,4.146c0.373,0.534,1.149,1.173,2.731,1.175h0.006c2.883,0,5.033-1.889,6.395-5.613
	c0.361-0.984,0.836-2.824-0.031-4.064C274.308,66.068,273.409,65.688,272.162,65.686 M245.526,65.836c-0.95,0-1.871,0-2.696,0.419
	c-0.826,0.418-1.553,1.256-2.115,2.933c-0.121,0.361-0.184,0.67-0.192,0.939c-0.01,0.271,0.039,0.501,0.142,0.701
	c0.125,0.242,0.33,0.471,0.586,0.666c0.256,0.191,0.563,0.35,0.893,0.449c0.012,0.004,0.186,0.053,0.396,0.114
	c0.209,0.06,0.453,0.132,0.609,0.179c0.091,0.027,0.191,0.063,0.28,0.119c0.091,0.053,0.173,0.125,0.224,0.227
	c0.034,0.064,0.053,0.138,0.055,0.215c0.002,0.079-0.012,0.163-0.041,0.251c-0.078,0.228-0.196,0.374-0.418,0.464
	c-0.221,0.09-0.549,0.119-1.043,0.122h-6.189l-0.977,2.688h6.623c0.623,0,1.762,0,2.857-0.466c1.095-0.463,2.146-1.395,2.59-3.254
	c0.166-0.699,0.115-1.27-0.159-1.717s-0.771-0.771-1.495-0.979c0,0-0.162-0.048-0.353-0.103c-0.188-0.054-0.409-0.116-0.521-0.148
	c-0.185-0.055-0.328-0.16-0.412-0.297c-0.084-0.136-0.109-0.303-0.062-0.471c0.05-0.176,0.17-0.316,0.343-0.412
	c0.174-0.097,0.404-0.15,0.672-0.15h3.849c0.026-0.038,0.053-0.08,0.079-0.121c0.705-0.994,1.554-1.799,2.488-2.367H245.526z
	 M262.832,65.836c-1.715,0-2.99,0.867-3.592,2.488l-2.91,7.997h3.188l1.496-4.11l2.818,0.002l0.801-2.201l-2.808-0.002l0.452-1.275
	c0.094-0.228,0.318-0.41,0.648-0.41h3.324c0.027-0.038,0.051-0.08,0.078-0.121c0.703-0.994,1.699-1.799,2.631-2.367H262.832z
	 M277.623,65.842l-3.817,10.486h3.241l1.39-3.691c0.067,0.153,0.887,3.691,0.887,3.691h3.409c0,0-0.62-2.601-1.076-3.65
	c-0.115-0.271-0.24-0.574-0.404-0.826c0.963-0.357,2.36-1.126,2.938-2.684c0.354-0.957,0.334-1.73-0.06-2.297
	c-0.479-0.691-1.451-1.029-2.978-1.029H277.623z M284.274,65.842c0.206,0.162,0.383,0.348,0.53,0.56
	c0.377,0.542,0.523,1.189,0.436,1.931h1.932l-2.912,7.998h2.908l2.914-7.998h3.736l0.906-2.49H284.274z M279.76,68.006h0.535
	c0.979,0.002,1.346,0.287,1.012,1.182c-0.309,0.838-0.869,1.356-1.932,1.356h-0.006l-0.551-0.001L279.76,68.006z M254.012,68.058
	L254.012,68.058c0.998,0.001,1.227,0.579,0.351,2.974c-0.899,2.459-1.551,3.078-2.53,3.078h-0.004c-0.955,0-1.291-0.605-0.396-3.055
	C252.1,69.227,252.965,68.058,254.012,68.058 M271.396,68.058L271.396,68.058c0.997,0.001,1.227,0.579,0.35,2.974
	c-0.897,2.459-1.552,3.078-2.531,3.078h-0.002c-0.959,0-1.293-0.605-0.396-3.055C269.483,69.227,270.35,68.058,271.396,68.058"/>
<path fill="#344050" d="M238.19,77.434c-0.204,0-0.356,0.037-0.459,0.109c-0.101,0.074-0.187,0.207-0.255,0.396
	c-0.066,0.184-0.078,0.311-0.032,0.383c0.048,0.072,0.175,0.108,0.38,0.108c0.206,0,0.36-0.036,0.461-0.112
	c0.102-0.075,0.188-0.207,0.256-0.395c0.065-0.186,0.078-0.313,0.032-0.385C238.528,77.469,238.4,77.434,238.19,77.434
	 M239.949,77.434c-0.207,0-0.359,0.037-0.459,0.109c-0.104,0.074-0.188,0.207-0.256,0.396c-0.068,0.184-0.078,0.311-0.031,0.383
	c0.043,0.072,0.17,0.108,0.377,0.108c0.205,0,0.358-0.036,0.461-0.112c0.103-0.075,0.189-0.207,0.256-0.395
	c0.069-0.186,0.078-0.313,0.033-0.385C240.282,77.469,240.156,77.434,239.949,77.434 M272.774,78.797
	c-0.237,0-0.476,0.03-0.711,0.092c-0.235,0.063-0.456,0.156-0.657,0.279c-0.201,0.127-0.385,0.283-0.546,0.471
	c-0.161,0.189-0.286,0.41-0.378,0.66c-0.079,0.217-0.113,0.402-0.107,0.559s0.041,0.291,0.104,0.404
	c0.062,0.113,0.144,0.211,0.245,0.294c0.102,0.081,0.211,0.155,0.326,0.218c0.115,0.064,0.229,0.127,0.34,0.184
	c0.111,0.059,0.206,0.119,0.285,0.186c0.08,0.066,0.136,0.141,0.17,0.226c0.033,0.084,0.029,0.187-0.016,0.303
	c-0.037,0.103-0.089,0.195-0.158,0.278c-0.066,0.084-0.146,0.152-0.237,0.21c-0.093,0.057-0.192,0.101-0.308,0.13
	c-0.113,0.031-0.234,0.048-0.362,0.048c-0.196,0-0.361-0.023-0.493-0.067c-0.131-0.044-0.242-0.094-0.33-0.146
	c-0.088-0.054-0.158-0.103-0.209-0.146c-0.054-0.045-0.1-0.066-0.138-0.066c-0.025,0-0.052,0.006-0.077,0.021
	c-0.025,0.015-0.051,0.039-0.074,0.072c-0.025,0.037-0.052,0.082-0.076,0.139c-0.027,0.056-0.055,0.127-0.084,0.209
	c-0.047,0.123-0.074,0.219-0.082,0.283c-0.011,0.066-0.002,0.115,0.02,0.151c0.021,0.034,0.064,0.075,0.127,0.122
	c0.063,0.044,0.145,0.088,0.247,0.13c0.104,0.042,0.229,0.075,0.37,0.106c0.145,0.029,0.306,0.043,0.484,0.043
	c0.266,0,0.529-0.034,0.787-0.104c0.262-0.07,0.502-0.174,0.725-0.313c0.225-0.138,0.426-0.309,0.604-0.516
	c0.177-0.207,0.313-0.447,0.415-0.721c0.075-0.209,0.107-0.391,0.102-0.545c-0.009-0.154-0.045-0.289-0.106-0.402
	c-0.065-0.115-0.146-0.213-0.253-0.294c-0.104-0.081-0.215-0.156-0.331-0.22c-0.116-0.064-0.229-0.125-0.345-0.182
	c-0.11-0.059-0.209-0.121-0.291-0.186c-0.084-0.065-0.14-0.142-0.172-0.226c-0.031-0.084-0.027-0.185,0.016-0.302
	c0.027-0.076,0.068-0.15,0.122-0.219c0.055-0.07,0.118-0.131,0.192-0.18c0.076-0.05,0.164-0.09,0.258-0.116
	c0.098-0.03,0.203-0.044,0.319-0.044c0.147,0,0.276,0.018,0.386,0.055c0.11,0.037,0.205,0.076,0.283,0.122
	c0.075,0.044,0.141,0.084,0.192,0.122c0.05,0.038,0.091,0.056,0.119,0.056c0.03,0,0.057-0.007,0.079-0.023
	c0.025-0.017,0.047-0.042,0.07-0.077c0.021-0.033,0.043-0.078,0.067-0.133c0.022-0.053,0.049-0.118,0.077-0.197
	c0.025-0.068,0.045-0.127,0.059-0.174c0.016-0.049,0.024-0.086,0.03-0.117c0.003-0.031,0.005-0.056,0.003-0.074
	c-0.003-0.02-0.014-0.043-0.029-0.068c-0.018-0.027-0.061-0.061-0.129-0.1c-0.07-0.041-0.152-0.078-0.246-0.111
	c-0.096-0.031-0.201-0.057-0.317-0.074C273.019,78.807,272.898,78.797,272.774,78.797 M289.483,78.801
	c-0.41,0-0.805,0.063-1.187,0.188c-0.379,0.128-0.729,0.31-1.051,0.546c-0.324,0.238-0.611,0.525-0.863,0.865
	c-0.254,0.339-0.457,0.723-0.61,1.148c-0.151,0.414-0.226,0.784-0.224,1.108c0.004,0.327,0.076,0.604,0.221,0.83
	c0.146,0.227,0.361,0.399,0.648,0.519c0.285,0.119,0.635,0.179,1.049,0.179c0.145,0,0.287-0.007,0.432-0.019
	c0.146-0.016,0.294-0.034,0.441-0.062s0.293-0.06,0.436-0.097s0.264-0.072,0.363-0.108c0.101-0.035,0.177-0.084,0.226-0.144
	c0.05-0.06,0.089-0.131,0.119-0.211l0.754-2.072c0.019-0.055,0.03-0.102,0.032-0.143c0-0.041-0.005-0.076-0.02-0.107
	c-0.016-0.027-0.037-0.051-0.064-0.066c-0.029-0.014-0.064-0.022-0.105-0.022h-1.76c-0.023,0-0.049,0.009-0.07,0.022
	c-0.025,0.016-0.049,0.039-0.074,0.07c-0.024,0.031-0.051,0.07-0.076,0.121c-0.023,0.051-0.053,0.114-0.078,0.188
	c-0.052,0.147-0.076,0.249-0.072,0.309c0.006,0.062,0.031,0.091,0.08,0.091h0.986l-0.441,1.207
	c-0.115,0.053-0.238,0.094-0.365,0.121c-0.123,0.025-0.246,0.041-0.364,0.041c-0.241,0-0.447-0.04-0.618-0.119
	c-0.173-0.076-0.303-0.192-0.389-0.346c-0.086-0.151-0.127-0.342-0.125-0.568c0.004-0.227,0.061-0.489,0.168-0.786
	c0.099-0.271,0.229-0.519,0.389-0.743c0.156-0.223,0.339-0.416,0.543-0.576c0.203-0.158,0.422-0.281,0.656-0.369
	c0.236-0.086,0.48-0.131,0.732-0.131c0.236,0,0.434,0.024,0.596,0.072c0.16,0.048,0.293,0.102,0.402,0.157
	c0.108,0.057,0.193,0.108,0.254,0.157c0.06,0.049,0.107,0.073,0.143,0.073c0.025,0,0.046-0.009,0.07-0.021
	c0.021-0.014,0.043-0.036,0.069-0.071c0.024-0.032,0.05-0.078,0.077-0.134s0.055-0.124,0.083-0.202
	c0.049-0.133,0.077-0.234,0.085-0.303c0.012-0.068,0.003-0.121-0.02-0.158c-0.022-0.038-0.069-0.083-0.143-0.133
	c-0.072-0.052-0.171-0.1-0.293-0.143c-0.121-0.045-0.27-0.083-0.441-0.113C289.91,78.815,289.709,78.801,289.483,78.801
	 M256.592,78.864c-0.139,0-0.245,0.004-0.324,0.011c-0.08,0.008-0.141,0.025-0.184,0.055c-0.045,0.029-0.076,0.072-0.093,0.127
	c-0.018,0.055-0.032,0.131-0.042,0.229l-0.473,4.541c-0.006,0.065-0.005,0.117,0.006,0.154c0.01,0.04,0.038,0.068,0.084,0.09
	c0.046,0.02,0.114,0.033,0.203,0.041c0.093,0.006,0.215,0.008,0.369,0.008c0.148,0,0.269-0.002,0.359-0.008
	c0.092-0.008,0.17-0.021,0.229-0.043s0.108-0.053,0.147-0.092c0.039-0.037,0.076-0.088,0.111-0.15l1.99-3.299h0.008l-0.368,3.299
	c-0.01,0.065-0.01,0.117,0,0.154c0.011,0.04,0.038,0.068,0.085,0.09c0.045,0.02,0.112,0.033,0.203,0.041
	c0.092,0.006,0.213,0.008,0.365,0.008c0.136,0,0.251-0.002,0.342-0.008c0.092-0.008,0.168-0.021,0.23-0.041
	c0.065-0.021,0.117-0.05,0.16-0.09c0.041-0.037,0.084-0.089,0.123-0.154l2.845-4.529c0.06-0.099,0.103-0.179,0.128-0.236
	s0.027-0.102,0.008-0.131s-0.061-0.047-0.122-0.055c-0.063-0.007-0.153-0.011-0.272-0.011c-0.127,0-0.225,0.004-0.297,0.011
	c-0.074,0.008-0.131,0.02-0.175,0.036c-0.042,0.019-0.077,0.042-0.103,0.073c-0.023,0.032-0.049,0.067-0.072,0.111l-2.359,3.974
	h-0.01l0.46-3.958c0.009-0.055,0.011-0.098,0.003-0.131c-0.007-0.031-0.029-0.055-0.063-0.072c-0.036-0.018-0.091-0.029-0.165-0.035
	s-0.176-0.009-0.305-0.009c-0.121,0-0.22,0.004-0.293,0.011c-0.076,0.008-0.137,0.02-0.185,0.036
	c-0.049,0.019-0.087,0.042-0.116,0.075s-0.058,0.074-0.087,0.125l-2.391,3.958h-0.005l0.539-3.986
	c0.012-0.052,0.014-0.091,0.012-0.118c-0.004-0.028-0.021-0.052-0.055-0.064c-0.032-0.016-0.084-0.025-0.156-0.029
	C256.817,78.867,256.717,78.864,256.592,78.864 M269.147,78.864c-0.104,0-0.188,0.005-0.258,0.014
	c-0.07,0.009-0.128,0.019-0.175,0.032c-0.047,0.013-0.084,0.03-0.107,0.052c-0.025,0.022-0.043,0.046-0.053,0.072l-1.789,4.917
	c-0.012,0.027-0.012,0.052,0,0.073c0.008,0.021,0.031,0.038,0.066,0.052c0.037,0.014,0.084,0.024,0.151,0.032
	c0.063,0.009,0.147,0.013,0.251,0.013s0.191-0.004,0.262-0.013c0.069-0.008,0.129-0.019,0.172-0.032
	c0.047-0.014,0.082-0.031,0.106-0.052c0.024-0.021,0.044-0.046,0.052-0.073l1.791-4.917c0.01-0.026,0.01-0.05,0-0.072
	c-0.009-0.021-0.033-0.039-0.068-0.052c-0.035-0.014-0.084-0.023-0.147-0.032C269.336,78.869,269.25,78.864,269.147,78.864
	 M236.959,78.864c-0.106,0-0.193,0.005-0.264,0.014s-0.127,0.019-0.174,0.032c-0.047,0.013-0.082,0.03-0.105,0.052
	c-0.024,0.022-0.041,0.046-0.052,0.072l-1.153,3.167c-0.119,0.332-0.179,0.623-0.172,0.871c0.004,0.248,0.066,0.455,0.186,0.621
	c0.12,0.167,0.293,0.291,0.525,0.371c0.229,0.084,0.508,0.124,0.836,0.124c0.349,0,0.674-0.046,0.975-0.137
	c0.302-0.091,0.575-0.224,0.82-0.397c0.246-0.176,0.463-0.387,0.647-0.641c0.187-0.252,0.337-0.538,0.453-0.855l1.138-3.124
	c0.01-0.026,0.01-0.05,0.002-0.072c-0.008-0.021-0.029-0.039-0.066-0.052c-0.035-0.014-0.084-0.023-0.148-0.032
	c-0.062-0.009-0.144-0.014-0.246-0.014c-0.102,0-0.188,0.005-0.261,0.014c-0.069,0.009-0.128,0.019-0.174,0.032
	c-0.046,0.013-0.078,0.03-0.103,0.052c-0.024,0.022-0.041,0.046-0.052,0.072l-1.14,3.135c-0.067,0.182-0.151,0.346-0.252,0.489
	c-0.104,0.143-0.217,0.264-0.346,0.361c-0.125,0.098-0.264,0.172-0.414,0.224c-0.149,0.05-0.307,0.075-0.474,0.075
	c-0.164,0-0.303-0.023-0.419-0.075c-0.113-0.048-0.201-0.122-0.261-0.222c-0.058-0.099-0.085-0.223-0.081-0.375
	c0.006-0.153,0.043-0.331,0.119-0.537l1.119-3.075c0.01-0.026,0.01-0.05,0-0.072c-0.01-0.021-0.032-0.039-0.067-0.052
	c-0.036-0.014-0.086-0.023-0.147-0.032C237.144,78.869,237.059,78.864,236.959,78.864 M275.996,78.865
	c-0.107,0-0.195,0.004-0.265,0.013s-0.127,0.018-0.174,0.031c-0.046,0.014-0.081,0.031-0.104,0.053
	c-0.025,0.022-0.041,0.046-0.053,0.073l-1.15,3.166c-0.123,0.332-0.18,0.624-0.174,0.871c0.004,0.248,0.065,0.455,0.186,0.621
	c0.119,0.167,0.293,0.291,0.523,0.371c0.23,0.084,0.51,0.124,0.838,0.124c0.348,0,0.672-0.046,0.974-0.137s0.575-0.224,0.821-0.397
	c0.246-0.176,0.461-0.387,0.646-0.641c0.188-0.252,0.337-0.538,0.453-0.855l1.137-3.123c0.012-0.027,0.012-0.051,0.003-0.073
	c-0.01-0.021-0.03-0.039-0.065-0.053s-0.084-0.022-0.147-0.031s-0.146-0.013-0.248-0.013c-0.101,0-0.188,0.004-0.26,0.013
	s-0.129,0.018-0.175,0.031c-0.045,0.014-0.078,0.031-0.102,0.053c-0.025,0.022-0.041,0.046-0.053,0.073l-1.141,3.134
	c-0.066,0.182-0.15,0.346-0.252,0.489c-0.103,0.143-0.217,0.264-0.342,0.361c-0.127,0.099-0.267,0.172-0.416,0.224
	c-0.15,0.05-0.311,0.075-0.475,0.075s-0.303-0.023-0.418-0.072c-0.113-0.051-0.202-0.125-0.262-0.225
	c-0.059-0.099-0.088-0.225-0.081-0.375c0.004-0.153,0.043-0.331,0.118-0.537l1.119-3.074c0.011-0.027,0.011-0.051,0-0.073
	c-0.008-0.021-0.031-0.039-0.065-0.053c-0.036-0.014-0.087-0.022-0.149-0.031C276.18,78.869,276.095,78.865,275.996,78.865
	 M285.041,78.873c-0.097,0-0.177,0.004-0.242,0.01c-0.063,0.008-0.117,0.02-0.161,0.035c-0.043,0.018-0.075,0.034-0.099,0.057
	c-0.025,0.019-0.041,0.045-0.052,0.072l-0.89,2.442c-0.066,0.185-0.135,0.379-0.205,0.583c-0.07,0.203-0.137,0.398-0.196,0.588
	h-0.004c-0.01-0.107-0.021-0.215-0.032-0.323c-0.012-0.105-0.025-0.216-0.037-0.327c-0.013-0.112-0.028-0.224-0.045-0.334
	c-0.019-0.111-0.035-0.225-0.052-0.34l-0.321-1.903c-0.012-0.105-0.031-0.192-0.053-0.265c-0.023-0.07-0.055-0.125-0.095-0.165
	c-0.041-0.041-0.093-0.069-0.155-0.087s-0.146-0.027-0.248-0.027h-0.568c-0.105,0-0.209,0.033-0.305,0.096
	c-0.097,0.063-0.167,0.158-0.213,0.284l-1.704,4.679c-0.011,0.027-0.013,0.051-0.008,0.073c0.008,0.021,0.024,0.039,0.054,0.053
	c0.03,0.017,0.073,0.027,0.133,0.035c0.06,0.009,0.135,0.013,0.229,0.013c0.098,0,0.176-0.004,0.242-0.013
	c0.064-0.008,0.117-0.019,0.158-0.035c0.041-0.014,0.074-0.032,0.099-0.053c0.021-0.022,0.038-0.046,0.046-0.073l0.993-2.725
	c0.073-0.203,0.144-0.402,0.207-0.592c0.065-0.193,0.126-0.387,0.187-0.578h0.008c0.002,0.157,0.015,0.321,0.031,0.488
	c0.018,0.168,0.036,0.324,0.059,0.469l0.408,2.434c0.02,0.134,0.041,0.244,0.063,0.328c0.022,0.085,0.054,0.152,0.092,0.201
	c0.041,0.051,0.091,0.086,0.152,0.104c0.063,0.02,0.141,0.028,0.233,0.028h0.451c0.051,0,0.104-0.007,0.159-0.021
	c0.054-0.015,0.106-0.04,0.154-0.072c0.049-0.031,0.093-0.071,0.131-0.119c0.039-0.049,0.069-0.103,0.092-0.165l1.704-4.68
	c0.01-0.027,0.012-0.054,0.005-0.072c-0.005-0.022-0.022-0.039-0.049-0.057c-0.026-0.016-0.071-0.027-0.13-0.035
	C285.209,78.877,285.131,78.873,285.041,78.873 M247.477,78.889c-0.09,0-0.174,0.027-0.254,0.079
	c-0.08,0.053-0.141,0.138-0.182,0.255l-1.653,4.539c-0.044,0.119-0.044,0.203-0.003,0.256c0.044,0.053,0.109,0.078,0.195,0.078
	h2.615c0.024,0,0.049-0.006,0.076-0.022c0.023-0.014,0.049-0.038,0.074-0.069c0.027-0.032,0.051-0.074,0.078-0.127
	c0.024-0.052,0.051-0.117,0.08-0.195c0.028-0.078,0.047-0.143,0.061-0.194c0.012-0.053,0.018-0.095,0.018-0.128
	c-0.002-0.032-0.012-0.055-0.025-0.07c-0.016-0.014-0.035-0.021-0.059-0.021h-1.875l0.533-1.468h1.574
	c0.023,0,0.049-0.007,0.072-0.021c0.027-0.013,0.052-0.036,0.076-0.066s0.049-0.072,0.074-0.122
	c0.026-0.051,0.053-0.115,0.082-0.194c0.025-0.075,0.047-0.138,0.059-0.19c0.012-0.051,0.016-0.093,0.015-0.124
	c-0.001-0.03-0.01-0.054-0.026-0.069c-0.015-0.015-0.033-0.021-0.058-0.021h-1.571l0.461-1.271h1.857
	c0.025,0,0.049-0.008,0.073-0.023c0.024-0.014,0.049-0.036,0.075-0.07c0.025-0.031,0.05-0.074,0.076-0.125
	c0.025-0.053,0.053-0.117,0.08-0.191c0.029-0.08,0.049-0.147,0.062-0.199c0.013-0.053,0.018-0.096,0.017-0.129
	s-0.008-0.058-0.023-0.07c-0.012-0.014-0.032-0.021-0.055-0.021H247.477z M251.842,78.889c-0.088,0-0.172,0.027-0.252,0.079
	c-0.079,0.053-0.142,0.138-0.184,0.255l-1.722,4.729c-0.009,0.027-0.011,0.052-0.002,0.073c0.009,0.021,0.03,0.038,0.067,0.052
	c0.035,0.014,0.084,0.024,0.15,0.032c0.064,0.009,0.148,0.013,0.251,0.013s0.192-0.004,0.263-0.013
	c0.068-0.008,0.127-0.019,0.172-0.032s0.08-0.031,0.105-0.052c0.023-0.021,0.043-0.046,0.053-0.073l0.721-1.982h0.33
	c0.113,0,0.207,0.016,0.281,0.053c0.072,0.033,0.129,0.085,0.17,0.154c0.041,0.067,0.067,0.152,0.086,0.255
	c0.017,0.102,0.027,0.218,0.037,0.351l0.045,1.162c-0.002,0.032,0.002,0.06,0.008,0.082c0.009,0.023,0.031,0.043,0.063,0.058
	c0.033,0.015,0.083,0.024,0.148,0.028c0.064,0.006,0.154,0.01,0.267,0.01c0.136,0,0.241-0.004,0.32-0.01
	c0.081-0.004,0.143-0.014,0.188-0.027c0.046-0.014,0.077-0.029,0.095-0.051c0.02-0.02,0.033-0.044,0.043-0.074
	c0.012-0.027,0.017-0.063,0.02-0.111c0.006-0.046,0.006-0.121,0.003-0.223l-0.067-1.026c-0.004-0.123-0.017-0.231-0.037-0.331
	c-0.016-0.098-0.043-0.186-0.075-0.262c-0.032-0.077-0.07-0.141-0.122-0.195c-0.047-0.055-0.102-0.099-0.168-0.137
	c0.18-0.051,0.348-0.118,0.505-0.201c0.153-0.082,0.297-0.182,0.423-0.294c0.128-0.112,0.239-0.24,0.337-0.383
	c0.095-0.144,0.177-0.304,0.238-0.478c0.075-0.207,0.11-0.391,0.108-0.551c-0.004-0.158-0.043-0.297-0.117-0.412
	c-0.074-0.117-0.18-0.211-0.323-0.285c-0.142-0.072-0.31-0.123-0.511-0.152c-0.068-0.008-0.146-0.014-0.234-0.02
	c-0.085-0.006-0.197-0.01-0.333-0.01H251.842z M264.555,78.889c-0.09,0-0.174,0.027-0.254,0.079
	c-0.077,0.053-0.139,0.138-0.182,0.255l-1.652,4.539c-0.043,0.119-0.045,0.203-0.004,0.256c0.043,0.053,0.108,0.078,0.197,0.078
	h2.613c0.025,0,0.053-0.006,0.076-0.022c0.025-0.014,0.05-0.038,0.074-0.069c0.027-0.032,0.053-0.074,0.076-0.127
	c0.027-0.052,0.054-0.117,0.082-0.195c0.029-0.078,0.049-0.143,0.062-0.194c0.013-0.053,0.019-0.095,0.015-0.128
	c0-0.032-0.009-0.055-0.025-0.07c-0.012-0.014-0.032-0.021-0.057-0.021h-1.875l0.534-1.468h1.572c0.026,0,0.049-0.007,0.075-0.021
	c0.025-0.013,0.05-0.036,0.074-0.066s0.049-0.072,0.076-0.122c0.024-0.051,0.051-0.115,0.078-0.194
	c0.027-0.075,0.049-0.138,0.059-0.19c0.015-0.051,0.021-0.093,0.018-0.124c-0.003-0.03-0.012-0.054-0.025-0.069
	c-0.016-0.015-0.035-0.021-0.059-0.021h-1.573l0.464-1.271h1.858c0.022,0,0.047-0.008,0.073-0.023
	c0.021-0.014,0.049-0.036,0.074-0.07c0.023-0.031,0.051-0.074,0.074-0.125c0.025-0.053,0.051-0.117,0.08-0.191
	c0.029-0.08,0.051-0.147,0.061-0.199c0.015-0.053,0.02-0.096,0.019-0.129s-0.01-0.058-0.024-0.07
	c-0.012-0.014-0.031-0.021-0.056-0.021H264.555z M242.482,78.889c-0.089,0-0.173,0.027-0.253,0.079
	c-0.078,0.053-0.14,0.138-0.183,0.257l-1.652,4.538c-0.042,0.118-0.043,0.202-0.001,0.255c0.04,0.052,0.106,0.078,0.192,0.078h1.387
	c0.208,0,0.402-0.012,0.583-0.037c0.179-0.025,0.353-0.065,0.524-0.119c0.168-0.055,0.33-0.123,0.486-0.205
	c0.155-0.084,0.297-0.184,0.43-0.297c0.133-0.115,0.25-0.248,0.355-0.399c0.105-0.15,0.191-0.318,0.26-0.503
	c0.064-0.176,0.098-0.336,0.096-0.479s-0.031-0.266-0.086-0.372c-0.053-0.107-0.131-0.192-0.231-0.261
	c-0.101-0.066-0.22-0.113-0.354-0.14c0.129-0.043,0.252-0.101,0.367-0.169c0.116-0.069,0.221-0.15,0.314-0.242
	c0.096-0.09,0.18-0.192,0.252-0.304c0.072-0.11,0.131-0.229,0.178-0.356c0.084-0.225,0.113-0.42,0.094-0.586
	c-0.021-0.167-0.086-0.305-0.197-0.414c-0.113-0.108-0.27-0.189-0.472-0.242c-0.2-0.055-0.462-0.082-0.78-0.082H242.482z
	 M242.918,79.683h0.535c0.163,0,0.289,0.015,0.377,0.044c0.086,0.029,0.152,0.071,0.195,0.127c0.047,0.056,0.068,0.125,0.071,0.207
	c0.001,0.084-0.017,0.177-0.056,0.281c-0.033,0.095-0.08,0.184-0.14,0.269c-0.063,0.084-0.134,0.159-0.218,0.222
	c-0.081,0.062-0.176,0.111-0.279,0.146c-0.105,0.037-0.234,0.057-0.388,0.057h-0.591L242.918,79.683z M252.291,79.697h0.476
	c0.121,0,0.215,0.005,0.278,0.014c0.066,0.008,0.123,0.02,0.172,0.031c0.16,0.051,0.258,0.131,0.291,0.251
	c0.035,0.116,0.021,0.263-0.041,0.435c-0.041,0.111-0.094,0.214-0.168,0.305c-0.069,0.091-0.155,0.17-0.254,0.236
	c-0.1,0.064-0.211,0.115-0.338,0.152c-0.125,0.035-0.263,0.055-0.414,0.055h-0.539L252.291,79.697z M242.146,81.807h0.627
	c0.192,0,0.343,0.018,0.452,0.053c0.107,0.035,0.189,0.084,0.244,0.148c0.053,0.064,0.082,0.145,0.088,0.24
	c0.008,0.094-0.014,0.203-0.057,0.322c-0.041,0.117-0.1,0.22-0.174,0.309c-0.076,0.09-0.16,0.165-0.256,0.227
	c-0.095,0.059-0.199,0.105-0.313,0.135c-0.11,0.033-0.24,0.046-0.387,0.046h-0.766L242.146,81.807z"/>
<path fill="#344050" d="M60.676,116.27l4.035-0.725v15.494h-4.035V116.27z M66.569,116.27v14.77h4.038v-15.494L66.569,116.27z
	 M54.928,131.039h4.037v-11.332h-4.037V131.039z M28.25,121.31c-0.51-0.034-1.693-0.11-1.693-1.175c0-1.282,1.702-1.282,2.34-1.282
	c1.121,0,2.573,0.33,3.612,0.642c0,0,0.578,0.203,1.07,0.412l0.047,0.013v-0.046v-3.469l-0.064-0.018
	c-1.224-0.429-2.647-0.842-5.288-0.842c-4.55,0-6.163,2.652-6.163,4.924c0,1.309,0.562,4.391,5.773,4.745
	c0.442,0.027,1.616,0.094,1.616,1.193c0,0.907-0.96,1.443-2.575,1.443c-1.77,0-3.487-0.452-4.529-0.88v3.621
	c1.561,0.406,3.32,0.612,5.383,0.612c4.448,0,6.441-2.509,6.441-4.993C34.22,123.393,31.991,121.561,28.25,121.31 M52.653,119.541
	c-3.73,0.119-5.625,1.793-5.625,5.121v6.377h4.07v-5.2c0-1.993,0.262-2.847,2.625-2.929v-3.31
	C53.326,119.514,52.653,119.541,52.653,119.541 M41.702,119.693c-0.09,0.226-0.736,2.051-2.301,3.944v-8.093l-4.165,0.823v14.671
	h4.165v-4.535c1.208,1.809,1.804,4.535,1.804,4.535h4.989c-0.493-2.053-2.652-5.838-2.652-5.838
	c1.937-2.455,2.789-5.074,2.923-5.508H41.702z M56.947,118.621c1.1,0,1.99-0.893,1.99-1.992s-0.89-1.988-1.99-1.988
	c-1.098,0-1.989,0.889-1.989,1.988S55.849,118.621,56.947,118.621"/>
<path fill="#344050" d="M26.732,138.657v-2.393c0-0.272-0.102-0.458-0.375-0.458c-0.209,0-0.412,0.132-0.623,0.334v2.517h-1.177
	v-2.393c0-0.272-0.1-0.458-0.374-0.458c-0.217,0-0.412,0.132-0.623,0.334v2.517h-1.176v-3.818h1.036l0.085,0.522
	c0.343-0.352,0.694-0.602,1.185-0.602c0.522,0,0.81,0.258,0.95,0.602c0.344-0.344,0.717-0.602,1.193-0.602
	c0.709,0,1.084,0.445,1.084,1.187v2.711H26.732z"/>
<path fill="#344050" d="M30.338,138.734c-1.052,0-1.822-0.756-1.822-1.979c0-1.224,0.778-1.996,1.83-1.996
	c1.061,0,1.839,0.764,1.839,1.989C32.185,137.973,31.398,138.734,30.338,138.734 M30.346,135.729c-0.451,0-0.693,0.396-0.693,1.021
	c0,0.614,0.249,1.035,0.693,1.035c0.453,0,0.701-0.413,0.701-1.028S30.799,135.729,30.346,135.729"/>
<path fill="#344050" d="M35.021,138.657v-2.393c0-0.272-0.109-0.458-0.39-0.458c-0.225,0-0.435,0.132-0.645,0.341v2.51h-1.179
	v-3.818h1.038l0.085,0.522c0.343-0.336,0.709-0.602,1.193-0.602c0.709,0,1.083,0.445,1.083,1.187v2.711H35.021z"/>
<path fill="#344050" d="M40.271,137.043H37.98c0.063,0.6,0.421,0.834,0.936,0.834c0.42,0,0.834-0.154,1.254-0.396l0.117,0.825
	c-0.412,0.266-0.92,0.428-1.52,0.428c-1.145,0-1.964-0.607-1.964-1.971c0-1.246,0.765-2.004,1.801-2.004
	c1.169,0,1.691,0.875,1.691,1.98C40.295,136.857,40.287,136.982,40.271,137.043 M38.573,135.523c-0.327,0-0.561,0.289-0.601,0.874
	h1.201C39.134,135.822,38.931,135.523,38.573,135.523"/>
<path fill="#344050" d="M42.98,138.734c-0.343,0.998-0.811,1.341-1.644,1.341c-0.234,0-0.335-0.023-0.444-0.046l-0.148-0.944
	c0.126,0.04,0.242,0.062,0.468,0.062c0.264,0,0.499-0.1,0.623-0.365l0.047-0.114l-1.388-3.733l1.262-0.148l0.742,2.406l0.701-2.353
	h1.137L42.98,138.734z"/>
<path fill="#344050" d="M46.44,138.705c-0.617,0-1.193-0.102-1.636-0.272v-5.216l1.176-0.187v2.229c0.242-0.25,0.569-0.5,1.022-0.5
	c0.777,0,1.37,0.594,1.37,1.888C48.372,138.065,47.616,138.705,46.44,138.705 M46.627,135.813c-0.249,0-0.451,0.146-0.647,0.367
	v1.512c0.157,0.047,0.25,0.07,0.427,0.07c0.46,0,0.788-0.28,0.788-1.037C47.195,136.086,46.963,135.813,46.627,135.813"/>
<path fill="#344050" d="M50.654,138.734c-1.053,0-1.823-0.756-1.823-1.979c0-1.224,0.778-1.996,1.831-1.996
	c1.061,0,1.839,0.764,1.839,1.989C52.501,137.973,51.715,138.734,50.654,138.734 M50.662,135.729c-0.452,0-0.693,0.396-0.693,1.021
	c0,0.614,0.249,1.035,0.693,1.035c0.452,0,0.702-0.413,0.702-1.028S51.114,135.729,50.662,135.729"/>
<path fill="#344050" d="M54.761,138.734c-1.052,0-1.824-0.756-1.824-1.979c0-1.224,0.779-1.996,1.832-1.996
	c1.059,0,1.838,0.764,1.838,1.989C56.606,137.973,55.82,138.734,54.761,138.734 M54.769,135.729c-0.452,0-0.693,0.396-0.693,1.021
	c0,0.614,0.249,1.035,0.693,1.035c0.451,0,0.701-0.413,0.701-1.028S55.22,135.729,54.769,135.729"/>
<polygon fill="#344050" points="59.513,138.711 58.407,136.882 58.407,138.657 57.229,138.657 57.229,133.217 58.407,133.03 
	58.407,136.406 59.428,134.839 60.688,134.839 59.49,136.576 60.737,138.541 "/>
<path fill="#344050" d="M64.289,137.043h-2.292c0.063,0.6,0.421,0.834,0.935,0.834c0.422,0,0.835-0.154,1.256-0.396l0.116,0.825
	c-0.413,0.266-0.919,0.428-1.519,0.428c-1.145,0-1.963-0.607-1.963-1.971c0-1.246,0.762-2.004,1.799-2.004
	c1.17,0,1.691,0.875,1.691,1.98C64.312,136.857,64.304,136.982,64.289,137.043 M62.59,135.523c-0.328,0-0.561,0.289-0.6,0.874h1.201
	C63.151,135.822,62.948,135.523,62.59,135.523"/>
<path fill="#344050" d="M66.118,136.539v2.118h-1.177v-3.818h1.029l0.126,0.757c0.232-0.438,0.551-0.795,1.114-0.836l0.195,1.199
	C66.835,136,66.406,136.228,66.118,136.539"/>
<path fill="#344050" d="M69.256,138.721c-0.606,0-1.176-0.172-1.572-0.383l0.139-0.896c0.454,0.281,1.006,0.451,1.443,0.451
	c0.328,0,0.482-0.108,0.482-0.287c0-0.195-0.108-0.281-0.646-0.414c-0.958-0.248-1.364-0.506-1.364-1.223
	c0-0.709,0.531-1.184,1.465-1.184c0.514,0,1.013,0.102,1.409,0.28l-0.147,0.894c-0.412-0.223-0.889-0.355-1.254-0.355
	c-0.281,0-0.406,0.1-0.406,0.248c0,0.156,0.108,0.24,0.647,0.391c1.013,0.272,1.371,0.529,1.371,1.239
	C70.823,138.284,70.27,138.721,69.256,138.721"/>
<path fill="#344050" d="M192.16,123.768c-0.478,0.334-1.174,0.498-2.125,0.498h-0.414h-0.53l0.723-3.909h0.367h0.328
	c0.789,0,1.366,0.128,1.765,0.386c0.311,0.202,0.678,0.603,0.678,1.363C192.951,123.021,192.524,123.514,192.16,123.768
	 M135.845,128.674h-7.306l0.472-2.557h4.583l0.521-2.878h-4.539l0.439-2.529h7.293L135.845,128.674z M196.098,118.517
	c-1.074-0.736-2.7-1.107-4.831-1.107h-5.582l-2.073,11.265h-7.313l0.469-2.555h4.405l0.524-2.871l-4.404,0.008l0.472-2.544h4.537
	l0.604-3.303h-9.216l-1.97,10.687h-3.379l1.984-10.687h-4.818l-1.969,10.687h-3.295l1.985-10.687h-4.813l-2.079,11.266h-7.363
	l0.464-2.556h4.426l0.521-2.854l-4.419-0.004l0.47-2.55h4.587l0.6-3.303h-28.708l-1.633,8.928l-3.255-8.928h-4.997l-2.689,14.568
	h4.771l1.628-9.173l3.159,9.173h17.102l2.079-11.267h2.676l-2.08,11.267h45.001l1.304-7.112l2.113,7.112h4.773l-2.188-5.812
	l0.5-0.107c1.1-0.236,1.961-0.744,2.559-1.504c0.6-0.767,0.903-1.753,0.903-2.938C197.64,120.239,197.136,119.225,196.098,118.517"
	/>
<path fill="#344050" d="M200.032,130.255l0.649-0.034c0.137-0.006,0.247-0.026,0.323-0.06c0.075-0.032,0.134-0.081,0.17-0.147
	c0.037-0.064,0.054-0.133,0.05-0.207c-0.006-0.109-0.05-0.196-0.132-0.264c-0.082-0.066-0.208-0.092-0.378-0.085l-0.724,0.036
	L200.032,130.255z M199.791,131.548l-0.116-2.292l1.017-0.051c0.203-0.01,0.358,0.003,0.467,0.039
	c0.109,0.035,0.197,0.104,0.266,0.205c0.069,0.1,0.108,0.213,0.112,0.34c0.011,0.162-0.036,0.301-0.136,0.418
	c-0.1,0.116-0.258,0.196-0.476,0.237c0.081,0.036,0.146,0.069,0.187,0.104c0.095,0.076,0.184,0.175,0.268,0.293l0.428,0.604
	l-0.377,0.02l-0.328-0.462c-0.096-0.134-0.173-0.235-0.234-0.305c-0.061-0.071-0.115-0.118-0.161-0.146
	c-0.046-0.026-0.097-0.045-0.142-0.055c-0.035-0.006-0.09-0.006-0.17-0.002l-0.35,0.018l0.051,1.019L199.791,131.548z"/>
<path fill="#344050" d="M198.798,130.439c-0.022-0.475,0.14-0.928,0.457-1.28s0.755-0.56,1.229-0.584
	c0.978-0.052,1.814,0.704,1.864,1.683c0.001,0.029,0.005,0.063,0.005,0.092c0,0.938-0.742,1.726-1.688,1.775
	C199.686,132.174,198.85,131.418,198.798,130.439 M200.464,128.209c-0.569,0.031-1.097,0.279-1.479,0.705
	c-0.383,0.424-0.578,0.974-0.549,1.546c0.062,1.178,1.069,2.087,2.248,2.027c1.178-0.06,2.09-1.069,2.028-2.247v-0.001
	C202.652,129.06,201.645,128.149,200.464,128.209"/>
</svg>
