<?xml version="1.0" encoding="utf-8"?>
<!-- Generator: Adobe Illustrator 19.0.0, SVG Export Plug-In . SVG Version: 6.00 Build 0)  -->
<svg version="1.1" id="Слой_1" xmlns="http://www.w3.org/2000/svg" xmlns:xlink="http://www.w3.org/1999/xlink" x="0px" y="0px"
	 viewBox="0 0 15 11.8" style="enable-background:new 0 0 15 11.8;" xml:space="preserve">
<style type="text/css">
	.st0{fill:none;stroke:#56606E;stroke-width:1.3336;stroke-miterlimit:10;}
	.st1{fill:none;stroke:#56606E;stroke-linecap:round;stroke-linejoin:round;stroke-miterlimit:10;}
</style>
<g>
	<path class="st0" d="M10.9,9.2c-3,2.1-7.4,1.9-9.2,1.7c-0.5-0.1-0.8-0.5-0.8-1.1c0-1.6,0.6-4.9,4.6-7.4c3-1.9,6.1-1.5,7.7-1.2
		c0.7,0.2,1.1,0.6,1.1,1C14.2,3.6,13.6,7.3,10.9,9.2z"/>
	<path class="st0" d="M10.9,0.9c0,0,0.9,2.3,3.1,3.1"/>
	<path class="st0" d="M1.6,6.7c0,0,2.6,2.4,2.6,4.3"/>
	<g>
		<line class="st1" x1="5.2" y1="7.3" x2="10.3" y2="4.2"/>
		<line class="st1" x1="8.2" y1="3.7" x2="9.8" y2="6.2"/>
		<line class="st1" x1="5.7" y1="5.2" x2="7.2" y2="7.8"/>
	</g>
</g>
</svg>
