<?xml version="1.0" encoding="utf-8"?>
<!-- Generator: Adobe Illustrator 19.0.0, SVG Export Plug-In . SVG Version: 6.00 Build 0)  -->
<svg version="1.1" id="Слой_1" xmlns="http://www.w3.org/2000/svg" xmlns:xlink="http://www.w3.org/1999/xlink" x="0px" y="0px"
	 viewBox="0 0 12.5 14.9" style="enable-background:new 0 0 12.5 14.9;" xml:space="preserve">
<style type="text/css">
	.st0{fill:none;stroke:#56606E;stroke-width:1.3336;stroke-linecap:round;stroke-linejoin:round;stroke-miterlimit:10;}
	.st1{fill:#FFFFFF;stroke:#56606E;stroke-width:1.5703;stroke-linecap:round;stroke-linejoin:round;stroke-miterlimit:10;}
</style>
<g>
	<path class="st0" d="M7.6,8.2c0.4-0.4,1.1-0.7,1.7-0.7c1.3,0,2.4,1.1,2.4,2.4c0,0.5-0.2,1-0.5,1.4"/>
	<path class="st1" d="M10.7,1.1L1.4,9.3c0,0-1,0.7,0.3,1.6c1.3,0.9,4,3.1,4,3.1s1.2,0.5,2.1-0.3c0.9-0.8,1.6-1.8,1.8-2.4
		c0.2-0.6-0.4-0.9-0.9-1c-0.4-0.1-4.6-0.6-4.7-1"/>
</g>
</svg>
