<?xml version="1.0" encoding="utf-8"?>
<!-- Generator: Adobe Illustrator 16.0.0, SVG Export Plug-In . SVG Version: 6.00 Build 0)  -->
<!DOCTYPE svg PUBLIC "-//W3C//DTD SVG 1.1//EN" "http://www.w3.org/Graphics/SVG/1.1/DTD/svg11.dtd">
<svg version="1.1" id="Layer_1" xmlns="http://www.w3.org/2000/svg" xmlns:xlink="http://www.w3.org/1999/xlink" x="0px" y="0px"
	 width="80.75px" height="39.549px" viewBox="0 0 80.75 39.549" enable-background="new 0 0 80.75 39.549" xml:space="preserve">
<g>
	<g>
		<path fill="#333F4F" d="M0.333,32.14h2.194c0.999,0,1.725,0.143,2.177,0.427c0.451,0.285,0.677,0.737,0.677,1.357
			c0,0.421-0.099,0.767-0.296,1.036c-0.198,0.271-0.461,0.433-0.789,0.487v0.048c0.447,0.1,0.77,0.286,0.967,0.56
			c0.198,0.273,0.297,0.637,0.297,1.09c0,0.643-0.232,1.145-0.696,1.504c-0.465,0.36-1.096,0.54-1.893,0.54H0.333V32.14z
			 M1.828,34.932h0.867c0.405,0,0.698-0.063,0.88-0.188c0.182-0.125,0.272-0.332,0.272-0.622c0-0.27-0.099-0.463-0.296-0.58
			c-0.198-0.118-0.511-0.177-0.938-0.177H1.828V34.932z M1.828,36.117v1.837h0.974c0.411,0,0.715-0.078,0.911-0.236
			c0.196-0.157,0.294-0.398,0.294-0.723c0-0.585-0.418-0.878-1.253-0.878H1.828z"/>
		<path fill="#333F4F" d="M11.186,39.188l-0.511-1.678h-2.57l-0.511,1.678h-1.61l2.487-7.077h1.827l2.498,7.077H11.186z
			 M10.317,36.257c-0.473-1.52-0.738-2.38-0.798-2.579s-0.102-0.356-0.128-0.473c-0.105,0.412-0.409,1.429-0.911,3.052H10.317z"/>
		<path fill="#333F4F" d="M19.936,39.188h-1.899l-3.065-5.332h-0.044c0.062,0.941,0.092,1.613,0.092,2.015v3.317h-1.336V32.14h1.886
			l3.062,5.279h0.033c-0.048-0.916-0.072-1.563-0.072-1.942V32.14h1.345V39.188z"/>
		<path fill="#333F4F" d="M27.38,39.188h-1.697l-1.846-2.97l-0.632,0.453v2.517H21.71V32.14h1.495v3.226l0.588-0.829l1.909-2.396
			h1.658l-2.458,3.119L27.38,39.188z"/>
		<path fill="#333F4F" d="M33.551,39.188h-1.495v-5.805h-1.914V32.14h5.323v1.244h-1.914V39.188z"/>
		<path fill="#333F4F" d="M38.044,36.483v2.705h-1.495V32.14h2.054c0.958,0,1.667,0.175,2.127,0.523
			c0.459,0.349,0.689,0.878,0.689,1.589c0,0.414-0.114,0.783-0.343,1.106c-0.229,0.322-0.551,0.576-0.969,0.759l2.073,3.071h-1.659
			l-1.683-2.705H38.044z M38.044,35.269h0.481c0.473,0,0.821-0.078,1.047-0.236c0.225-0.157,0.337-0.404,0.337-0.742
			c0-0.334-0.114-0.572-0.345-0.713c-0.229-0.142-0.585-0.213-1.067-0.213h-0.453V35.269z"/>
		<path fill="#333F4F" d="M47.383,39.188l-0.511-1.678h-2.57l-0.511,1.678h-1.61l2.487-7.077h1.827l2.498,7.077H47.383z
			 M46.515,36.257c-0.473-1.52-0.738-2.38-0.798-2.579s-0.102-0.356-0.128-0.473c-0.105,0.412-0.409,1.429-0.911,3.052H46.515z"/>
		<path fill="#333F4F" d="M56.133,39.188h-1.899l-3.065-5.332h-0.044c0.062,0.941,0.092,1.613,0.092,2.015v3.317H49.88V32.14h1.886
			l3.062,5.279h0.033c-0.048-0.916-0.072-1.563-0.072-1.942V32.14h1.345V39.188z"/>
		<path fill="#333F4F" d="M62.068,37.231c0,0.636-0.229,1.138-0.688,1.504s-1.095,0.55-1.911,0.55c-0.752,0-1.418-0.142-1.996-0.425
			v-1.389c0.476,0.213,0.878,0.362,1.208,0.449c0.329,0.086,0.631,0.13,0.903,0.13c0.328,0,0.58-0.063,0.755-0.188
			c0.175-0.125,0.263-0.312,0.263-0.559c0-0.139-0.038-0.262-0.115-0.369s-0.19-0.211-0.34-0.311c-0.15-0.1-0.454-0.259-0.914-0.478
			c-0.431-0.202-0.754-0.397-0.969-0.583c-0.216-0.187-0.388-0.403-0.517-0.651c-0.128-0.247-0.192-0.537-0.192-0.868
			c0-0.623,0.211-1.113,0.634-1.47c0.423-0.357,1.007-0.535,1.753-0.535c0.366,0,0.716,0.043,1.048,0.13
			c0.333,0.087,0.681,0.209,1.044,0.366l-0.481,1.162c-0.376-0.154-0.688-0.262-0.934-0.323c-0.245-0.061-0.487-0.092-0.726-0.092
			c-0.282,0-0.499,0.066-0.65,0.198s-0.227,0.304-0.227,0.516c0,0.132,0.03,0.247,0.092,0.345c0.061,0.098,0.158,0.192,0.291,0.284
			c0.134,0.092,0.449,0.257,0.947,0.494c0.659,0.315,1.11,0.631,1.355,0.947C61.946,36.384,62.068,36.771,62.068,37.231z"/>
		<path fill="#333F4F" d="M64.815,39.188h-1.471V32.14h4.04v1.225h-2.569v1.817h2.392v1.221h-2.392V39.188z"/>
		<path fill="#333F4F" d="M72.823,39.188h-4.06V32.14h4.06v1.225h-2.564v1.548h2.387v1.225h-2.387v1.817h2.564V39.188z"/>
		<path fill="#333F4F" d="M75.789,36.483v2.705h-1.495V32.14h2.054c0.958,0,1.667,0.175,2.127,0.523
			c0.459,0.349,0.689,0.878,0.689,1.589c0,0.414-0.114,0.783-0.343,1.106c-0.229,0.322-0.551,0.576-0.969,0.759l2.073,3.071h-1.659
			l-1.683-2.705H75.789z M75.789,35.269h0.481c0.473,0,0.821-0.078,1.047-0.236c0.225-0.157,0.337-0.404,0.337-0.742
			c0-0.334-0.114-0.572-0.345-0.713c-0.229-0.142-0.585-0.213-1.067-0.213h-0.453V35.269z"/>
	</g>
</g>
<g>
	<path fill="#333F4F" d="M53.191,5.499v1.719h-1.72c0,0.471-0.417,0.857-0.928,0.857H30.048c-0.51,0-0.928-0.387-0.928-0.857h-1.719
		V5.499L40.296,0.34L53.191,5.499z M53.191,22.69v1.72h-25.79v-1.72c0-0.469,0.416-0.859,0.926-0.859h23.937
		C52.773,21.831,53.191,22.222,53.191,22.69z M34.278,8.937v10.315h1.719V8.937h3.439v10.315h1.719V8.937h3.439v10.315h1.72V8.937
		h3.437v10.315h0.793c0.511,0,0.928,0.39,0.928,0.858v0.861H29.12V20.11c0-0.469,0.418-0.858,0.928-0.858h0.792V8.937H34.278z"/>
</g>
</svg>
