<?xml version="1.0" encoding="utf-8"?>
<!-- Generator: Adobe Illustrator 19.0.0, SVG Export Plug-In . SVG Version: 6.00 Build 0)  -->
<svg version="1.1" id="Слой_1" xmlns="http://www.w3.org/2000/svg" xmlns:xlink="http://www.w3.org/1999/xlink" x="0px" y="0px"
	 viewBox="0 0 13.7 13.6" style="enable-background:new 0 0 13.7 13.6;" xml:space="preserve">
<style type="text/css">
	.st0{fill:#56606E;stroke:#56606E;stroke-width:0.5;stroke-miterlimit:10;}
</style>
<path class="st0" d="M12,3.3C11,2,9.6,1,8,0.7C7.6,0.7,7.2,0.6,6.9,0.6c-3,0-5.6,2.1-6.1,5.1c-0.6,3.4,1.6,6.6,5,7.2
	c0.4,0.1,0.7,0.1,1.1,0.1l0,0c3,0,5.6-2.1,6.1-5.1C13.3,6.3,12.9,4.7,12,3.3z M1.4,5.8c0.2-1.1,0.7-2,1.4-2.8
	c0.1,0.2,0.3,0.3,0.4,0.5L2.9,3.8c-0.1,0.1-0.1,0.3,0,0.4C3,4.3,3.1,4.3,3.2,4.3c0.1,0,0.2,0,0.2-0.1l0.2-0.2
	c0.1,0.2,0.2,0.4,0.3,0.6L3.5,4.8C3.3,4.9,3.2,5.1,3.3,5.2c0.1,0.1,0.2,0.2,0.3,0.2c0,0,0.1,0,0.1,0l0.3-0.1
	c0.1,0.2,0.1,0.4,0.2,0.7L3.9,6C3.7,6,3.6,6.1,3.6,6.3c0,0.2,0.2,0.3,0.3,0.3c0,0,0,0,0,0l0.3,0c0,0.2,0,0.4,0,0.6L4,7.2
	c-0.2,0-0.3,0.1-0.3,0.3c0,0.2,0.1,0.3,0.3,0.3l0.3,0c0,0,0,0,0,0c0,0.2-0.1,0.4-0.1,0.6L3.7,8.3c-0.2-0.1-0.3,0-0.4,0.2
	c-0.1,0.2,0,0.3,0.2,0.4l0.3,0.1C3.7,9.3,3.6,9.5,3.5,9.7L3.4,9.5c-0.1-0.1-0.3-0.1-0.4,0c-0.1,0.1-0.1,0.3,0,0.4l0.2,0.2
	c-0.1,0.2-0.2,0.3-0.4,0.5C1.6,9.4,1.1,7.6,1.4,5.8z M6.9,12.4c-0.3,0-0.7,0-1-0.1c-1-0.2-1.9-0.6-2.6-1.2c0.1-0.1,0.3-0.3,0.4-0.5
	l0.2,0.2c0.1,0.1,0.1,0.1,0.2,0.1c0.1,0,0.2,0,0.2-0.1c0.1-0.1,0.1-0.3,0-0.4L4,10.1c0.2-0.3,0.3-0.5,0.4-0.8l0.3,0.1
	c0,0,0.1,0,0.1,0c0.1,0,0.2-0.1,0.3-0.2c0.1-0.2,0-0.3-0.2-0.4L4.6,8.7C4.7,8.5,4.8,8.2,4.8,8c0,0,0-0.1,0-0.1l0.4,0c0,0,0,0,0,0
	c0.2,0,0.3-0.1,0.3-0.3c0-0.2-0.1-0.3-0.3-0.3l-0.3,0c0-0.3,0-0.5,0-0.8l0.3,0c0.2,0,0.3-0.2,0.3-0.3c0-0.2-0.2-0.3-0.3-0.3l-0.3,0
	c0-0.3-0.1-0.6-0.2-0.8l0.3-0.1c0.2-0.1,0.2-0.3,0.2-0.4C5,4.3,4.8,4.3,4.7,4.3L4.4,4.4C4.3,4.1,4.2,3.9,4,3.6l0.3-0.3
	c0.1-0.1,0.1-0.3,0-0.4C4.2,2.8,4,2.8,3.9,2.9L3.7,3.1C3.5,2.9,3.4,2.8,3.2,2.6c1-0.8,2.3-1.3,3.6-1.3c0.3,0,0.7,0,1,0.1
	c1,0.2,1.9,0.6,2.6,1.2c-0.2,0.2-0.3,0.3-0.4,0.5L9.8,2.9c-0.1-0.1-0.3-0.1-0.4,0C9.3,3,9.3,3.2,9.4,3.3l0.3,0.3
	C9.5,3.9,9.4,4.1,9.3,4.4L9,4.3c-0.2-0.1-0.3,0-0.4,0.2c-0.1,0.2,0,0.3,0.2,0.4L9.1,5C9,5.3,8.9,5.6,8.9,5.9l-0.3,0
	c-0.2,0-0.3,0.1-0.3,0.3c0,0.2,0.1,0.3,0.3,0.3l0.3,0c0,0.3,0,0.5,0,0.8l-0.3,0c-0.2,0-0.3,0.2-0.3,0.3c0,0.2,0.2,0.3,0.3,0.3
	c0,0,0,0,0,0l0.4,0c0,0,0,0.1,0,0.1c0,0.3,0.1,0.5,0.2,0.7L8.8,8.8C8.6,8.9,8.6,9.1,8.6,9.3c0.1,0.1,0.2,0.2,0.3,0.2
	c0,0,0.1,0,0.1,0l0.3-0.1c0.1,0.3,0.3,0.5,0.4,0.8l-0.3,0.3c-0.1,0.1-0.1,0.3,0,0.4c0.1,0.1,0.1,0.1,0.2,0.1c0.1,0,0.2,0,0.2-0.1
	l0.2-0.2c0.1,0.2,0.3,0.3,0.4,0.5C9.5,11.9,8.2,12.4,6.9,12.4z M12.4,7.9c-0.2,1.1-0.7,2.1-1.4,2.8c-0.1-0.2-0.3-0.3-0.4-0.5
	l0.2-0.2c0.1-0.1,0.1-0.3,0-0.4c-0.1-0.1-0.3-0.1-0.4,0l-0.2,0.2C10.1,9.5,10,9.3,9.9,9.1l0.3-0.1c0.2-0.1,0.2-0.3,0.2-0.4
	c-0.1-0.2-0.3-0.2-0.4-0.2L9.7,8.5C9.6,8.3,9.5,8.1,9.5,7.9c0,0,0,0,0,0l0.3,0c0.2,0,0.3-0.2,0.3-0.3c0-0.2-0.2-0.3-0.3-0.3l-0.3,0
	c0-0.2,0-0.4,0-0.6l0.3,0c0,0,0,0,0,0c0.2,0,0.3-0.1,0.3-0.3C10.1,6.1,10,6,9.8,6l-0.3,0c0-0.2,0.1-0.4,0.2-0.7L10,5.4
	c0,0,0.1,0,0.1,0c0.1,0,0.2-0.1,0.3-0.2c0.1-0.2,0-0.3-0.2-0.4L9.9,4.7c0.1-0.2,0.2-0.4,0.3-0.6l0.2,0.2c0.1,0.1,0.1,0.1,0.2,0.1
	c0.1,0,0.2,0,0.2-0.1c0.1-0.1,0.1-0.3,0-0.4l-0.3-0.2c0.1-0.2,0.3-0.3,0.4-0.5c0.2,0.2,0.4,0.4,0.5,0.7C12.3,4.9,12.6,6.4,12.4,7.9z
	"/>
</svg>
