<?xml version="1.0" encoding="utf-8"?>
<!-- Generator: Adobe Illustrator 19.0.0, SVG Export Plug-In . SVG Version: 6.00 Build 0)  -->
<svg version="1.1" id="Слой_1" xmlns="http://www.w3.org/2000/svg" xmlns:xlink="http://www.w3.org/1999/xlink" x="0px" y="0px"
	 viewBox="0 0 13.2 13.5" style="enable-background:new 0 0 13.2 13.5;" xml:space="preserve">
<style type="text/css">
	.st0{fill:none;stroke:#56606E;stroke-width:1.3216;stroke-miterlimit:10;}
</style>
<g>
	<path class="st0" d="M12.5,6.8c0,2.1-1.1,4-2.8,5c-0.9,0.6-2,0.9-3.1,0.9c-3.3,0-5.9-2.6-5.9-5.9c0-2.7,1.8-4.9,4.2-5.6
		C5.5,1,6,0.9,6.6,0.9C9.9,0.9,12.5,3.5,12.5,6.8z"/>
	<path class="st0" d="M5.3,1.6C6.2,2.9,7.5,4.9,8.1,6c1.1,2,1.6,4.6,1.9,6"/>
	<path class="st0" d="M0.8,6.4c2.1,0,5.5-0.1,7-0.9c1.3-0.7,2.5-2,3.2-3"/>
	<path class="st0" d="M2.6,11.1c1.3-1.4,3.8-3.7,6-4c1.5-0.2,2.9,0,4,0.2"/>
</g>
</svg>
