<?xml version="1.0" encoding="utf-8"?>
<!-- Generator: Adobe Illustrator 19.0.0, SVG Export Plug-In . SVG Version: 6.00 Build 0)  -->
<svg version="1.1" id="Слой_1" xmlns="http://www.w3.org/2000/svg" xmlns:xlink="http://www.w3.org/1999/xlink" x="0px" y="0px"
	 viewBox="0 0 14.1 13.2" style="enable-background:new 0 0 14.1 13.2;" xml:space="preserve">
<style type="text/css">
	.st0{fill:none;stroke:#56606E;stroke-miterlimit:10;}
	.st1{fill:none;stroke:#56606E;stroke-width:0.9458;stroke-linecap:round;stroke-linejoin:round;stroke-miterlimit:10;}
</style>
<path class="st0" d="M10.3,6.3c-1.8,0-3.2,1.4-3.2,3.2c0,1.8,1.4,3.2,3.2,3.2c1.8,0,3.2-1.4,3.2-3.2C13.5,7.7,12.1,6.3,10.3,6.3z
	 M9.9,6.6c0,0,0.1,0,0.2,0c0.1,0,0.2,0,0.2,0c1.1,0,2,0.6,2.5,1.4C12.9,8.1,13,8.2,13,8.2c-0.9-0.6-2-0.8-3.1-0.7
	C9.8,7.2,9.8,6.9,9.9,6.6z M8.8,12.1c-0.3-0.2-0.6-0.4-0.8-0.6c0,0-0.1-0.1-0.1-0.1c1-0.3,1.8-1,2.4-2c0.5,0,1,0.1,1.4,0.3
	c-0.5,1.3-1.6,2.2-2.8,2.5C9,12.2,8.9,12.1,8.8,12.1z"/>
<g>
	<path class="st1" d="M5.4,4.1C5.7,4.2,6,4.4,6.2,4.5c0.3-0.4-0.9-1.2-0.9-1.2s0.2-0.5,1.9-0.5C6.3,1.9,4.7,2.5,4.7,2.5
		s0.1-0.9,1.1-1.9C4.1,0.7,3.6,2.3,3.6,2.3C2.9,1.9,1.5,2.3,1,2.6c0.9,0.1,1.6,0.5,1.6,0.5C1.7,3.4,0.8,4.7,0.8,5.8
		C1.2,5,1.8,4.5,3.1,4.3C2.9,4.8,2.8,5,3.1,6c0-0.8,0.6-1.4,1-1.7C4.4,5,6,10.5,6,11.7"/>
	<path class="st1" d="M2.7,9.3C2.7,9.3,2.7,9.2,2.7,9.3c-0.4,0.3-0.3,1.1-0.3,1.1c-0.5-0.3-0.6-1.3-0.6-1.3S1.2,9.5,1.1,9.8
		C0.8,9.1,1.3,8.7,1.6,8.4C1.4,8.2,1,8.2,0.7,8.1c0.3-0.3,1-0.3,1.4-0.3c0-0.3,0.2-0.9,0.8-1.1C2.5,7.1,2.8,8,2.8,8s0.1-0.3,0.8-0.4
		c0.7-0.1,1.2,0.1,1.2,0.1s-1,0.3-1.4,0.9c0.7,0,0.9,1,0.9,1C3.9,9.1,3.3,9.1,3,9.1c0,0,1.6,1.4,2.3,2.9"/>
</g>
</svg>
