<?xml version="1.0" encoding="utf-8"?>
<!-- Generator: Adobe Illustrator 19.0.0, SVG Export Plug-In . SVG Version: 6.00 Build 0)  -->
<svg version="1.1" id="Слой_1" xmlns="http://www.w3.org/2000/svg" xmlns:xlink="http://www.w3.org/1999/xlink" x="0px" y="0px"
	 viewBox="0 0 8.3 10.2" style="enable-background:new 0 0 8.3 10.2;" xml:space="preserve">
<style type="text/css">
	.st0{fill:#56606E;}
</style>
<g id="XMLID_297_">
	<path id="XMLID_298_" class="st0" d="M8.3,9.5c0,0.4-0.3,0.7-0.7,0.7h-7C0.3,10.2,0,9.9,0,9.5V5.3C0,5,0.3,4.6,0.7,4.6h0.2V3.2
		C0.9,1.5,2.4,0,4.2,0C6,0,7.4,1.5,7.4,3.2v1.4h0.2C8,4.6,8.3,5,8.3,5.3V9.5z M6,4.6V3.2c0-1-0.8-1.9-1.9-1.9c-1,0-1.9,0.8-1.9,1.9
		v1.4H6z"/>
</g>
</svg>
