<?xml version="1.0" encoding="utf-8"?>
<!-- Generator: Adobe Illustrator 19.0.0, SVG Export Plug-In . SVG Version: 6.00 Build 0)  -->
<svg version="1.1" id="Слой_1" xmlns="http://www.w3.org/2000/svg" xmlns:xlink="http://www.w3.org/1999/xlink" x="0px" y="0px"
	 viewBox="0 0 19.3 12.8" style="enable-background:new 0 0 19.3 12.8;" xml:space="preserve">
<style type="text/css">
	.st0{fill:none;stroke:#56606E;stroke-width:1.322;stroke-linecap:round;stroke-linejoin:round;stroke-miterlimit:10;}
</style>
<path class="st0" d="M10.8,2.5c-0.5,0.6-1.5,1-1.9,0.7c-0.4-0.4,0-1.4,0.5-2c0.5-0.6,1.2-0.7,1.6-0.3C11.3,1.3,11.3,2,10.8,2.5z"/>
<path class="st0" d="M15.3,9.4l-4-2.4c0,0-1.7-2.2-2.8-2.1C6.3,5.2,4.6,4.9,4.6,4.9l0.1,1.4"/>
<polyline class="st0" points="7.8,5 5.7,7.7 10.7,8.7 8.5,12.2 "/>
<line class="st0" x1="9.6" y1="5.7" x2="6.8" y2="7.7"/>
<polyline class="st0" points="5.7,8.7 4.2,10.4 0.7,11.7 "/>
<circle class="st0" cx="17.6" cy="11.1" r="1.1"/>
</svg>
