<?xml version="1.0" encoding="utf-8"?>
<!-- Generator: Adobe Illustrator 19.0.0, SVG Export Plug-In . SVG Version: 6.00 Build 0)  -->
<svg version="1.1" id="Слой_1" xmlns="http://www.w3.org/2000/svg" xmlns:xlink="http://www.w3.org/1999/xlink" x="0px" y="0px"
	 viewBox="0 0 15.8 14.9" style="enable-background:new 0 0 15.8 14.9;" xml:space="preserve">
<style type="text/css">
	.st0{fill:none;stroke:#56606E;stroke-linecap:round;stroke-linejoin:round;stroke-miterlimit:10;}
	.st1{fill:none;stroke:#56606E;stroke-width:1.322;stroke-linecap:round;stroke-linejoin:round;stroke-miterlimit:10;}
</style>
<path class="st0" d="M5.2,1.6c0,0.6-0.4,1.3-0.8,1.3c-0.4,0-0.7-0.8-0.7-1.3c0-0.6,0.4-1,0.8-1C4.9,0.6,5.3,1,5.2,1.6z"/>
<path class="st0" d="M13.8,3.7C13.8,4.3,13.4,5,13,5c-0.4,0-0.6-0.8-0.6-1.4c0.1-0.6,0.4-0.9,0.8-0.9C13.6,2.7,13.9,3.1,13.8,3.7z"
	/>
<polyline class="st1" points="6.2,4.3 8.5,4.7 11.3,4.9 "/>
<path class="st1" d="M4.4,4.2C3.5,4.2,2,4.8,2,4.8l3.9,1.9"/>
<polyline class="st1" points="3.5,7.6 3.1,11 0.7,13.3 "/>
<path class="st1" d="M4.3,8l2.3,2.7c0,0-0.7,2.8-0.8,3.1"/>
<polyline class="st1" points="13.8,6.1 11.3,7.5 9.9,7.3 "/>
<path class="st1" d="M12.5,9.3c-0.4,0.4-2.4,2.6-2.4,2.6l-0.5,2.5"/>
<polyline class="st1" points="12.6,9.2 13.2,12.2 15.1,14.1 "/>
</svg>
