<?xml version="1.0" encoding="UTF-8" standalone="no"?>
<svg width="52px" height="31px" viewBox="0 0 52 31" version="1.1" xmlns="http://www.w3.org/2000/svg" xmlns:xlink="http://www.w3.org/1999/xlink" xmlns:sketch="http://www.bohemiancoding.com/sketch/ns">
    <!-- Generator: Sketch 3.2.2 (9983) - http://www.bohemiancoding.com/sketch -->
    <title>coupon-h</title>
    <desc>Created with Sketch.</desc>
    <defs></defs>
    <g id="Page-1" stroke="none" stroke-width="1" fill="none" fill-rule="evenodd" sketch:type="MSPage">
        <g id="coupon-h" sketch:type="MSLayerGroup">
            <path d="M50.5,26.8 C50.5,28.5 49.2,29.8 47.5,29.8 L20.5,29.8 C18.8,29.8 17.5,28.5 17.5,26.8 L17.5,10.8 C17.5,9.1 18.8,7.8 20.5,7.8 L47.5,7.8 C49.2,7.8 50.5,9.1 50.5,10.8 L50.5,26.8 L50.5,26.8 Z" id="XMLID_9_" stroke="#56606E" stroke-width="2" stroke-dasharray="4.0448,3.0336" sketch:type="MSShapeGroup"></path>
            <g id="XMLID_45_" transform="translate(26.000000, 15.000000)" fill="#56606E" sketch:type="MSShapeGroup">
                <path d="M5.2,9.6 L3.2,9.6 L3.2,4.2 L3.2,3.8 L3.2,3.3 L3.2,2.8 L3.2,2.3 L3.1,2.4 C3.1,2.4 3,2.6 3,2.7 L2.8,2.9 L2.6,3.1 L1.5,4 L0.5,2.8 L3.5,0.4 L5.1,0.4 L5.1,9.6 L5.2,9.6 Z" id="XMLID_49_"></path>
                <path d="M13.9,5 C13.9,5.7 13.8,6.4 13.7,7 C13.6,7.6 13.4,8.1 13.1,8.5 C12.8,8.9 12.5,9.2 12.1,9.4 C11.7,9.6 11.2,9.7 10.6,9.7 C10.1,9.7 9.6,9.6 9.2,9.4 C8.8,9.2 8.5,8.9 8.2,8.5 C7.9,8.1 7.7,7.6 7.6,7 C7.5,6.4 7.4,5.7 7.4,5 C7.4,4.3 7.5,3.6 7.6,3 C7.7,2.4 7.9,1.9 8.2,1.5 C8.5,1.1 8.8,0.8 9.2,0.6 C9.6,0.4 10.1,0.3 10.7,0.3 C11.2,0.3 11.7,0.4 12.1,0.6 C12.5,0.8 12.8,1.1 13.1,1.5 C13.4,1.9 13.6,2.4 13.7,3 C13.8,3.5 13.9,4.2 13.9,5 L13.9,5 Z M9.5,5 C9.5,6.1 9.6,6.9 9.8,7.4 C10,7.9 10.3,8.2 10.7,8.2 C11.1,8.2 11.5,7.9 11.6,7.4 C11.8,6.9 11.9,6.1 11.9,5 C11.9,3.9 11.8,3.1 11.6,2.6 C11.4,2.1 11.1,1.8 10.7,1.8 C10.5,1.8 10.3,1.9 10.1,2 C9.9,2.1 9.8,2.3 9.7,2.6 C9.6,2.9 9.5,3.2 9.5,3.6 C9.5,4 9.5,4.4 9.5,5 L9.5,5 Z" id="XMLID_46_"></path>
            </g>
            <g id="Group" sketch:type="MSShapeGroup">
                <path d="M15.8,8.3 L22.4,13.8 L22,13.6 L22.0000004,14.0295222 L20.3818363,14.806866 L11.8417218,10.0254658 L13.3,10.4 L15.8,8.3 Z" id="Shape" fill="#FECF0A"></path>
                <path d="M22.4,13.4 C22.6,13.6 22.7,13.8 22.7,14.1 C22.7,14.4 22.5,14.6 22.3,14.7 L20.7,15.5 C20.6,15.6 20.5,15.6 20.3,15.6 C20.2,15.6 20,15.6 19.9,15.5 L11.5,10.8 L10.2,11.6 C10.2,11.6 10.1,11.6 10.1,11.7 C10.2,12.1 10.3,12.5 10.2,12.9 C10.2,14 9.3,15.2 8,16.1 C7,16.8 5.8,17.1 4.6,17.1 C3.5,17.1 2.6,16.8 1.9,16.2 C1.2,15.6 0.9,14.6 0.9,13.7 C1,12.5 1.8,11.3 3.2,10.4 C4.2,9.7 5.4,9.4 6.6,9.4 C7.3,9.4 7.9,9.5 8.4,9.8 C8.5,9.7 8.6,9.6 8.7,9.5 L10.2,8.6 L8.7,7.7 C8.6,7.6 8.5,7.5 8.5,7.4 C7.9,7.6 7.3,7.8 6.6,7.8 C5.5,7.8 4.3,7.4 3.2,6.8 C1.9,5.9 1.1,4.7 1,3.5 C0.9,2.5 1.3,1.6 2,1 C2.7,0.4 3.6,0 4.7,0 C5.8,0 7,0.4 8,1 C9.3,1.8 10.2,3 10.3,4.3 C10.3,4.7 10.3,5.1 10.2,5.5 C10.2,5.5 10.3,5.5 10.3,5.6 L11.6,6.4 L20,1.6 C20.1,1.5 20.2,1.5 20.4,1.5 C20.5,1.5 20.6,1.5 20.8,1.6 L22.4,2.4 C22.6,2.5 22.8,2.8 22.8,3 C22.8,3.3 22.7,3.5 22.5,3.7 L16.3,8.5 L22.4,13.4 L22.4,13.4 Z M7,2.7 C6.2,2.2 5.4,1.9 4.7,1.9 C4.1,1.9 3.6,2 3.3,2.3 C2.5,3.1 3,4.3 4.3,5.1 C5,5.6 5.9,5.8 6.6,5.8 C7.2,5.8 7.7,5.7 8,5.4 C8.8,4.7 8.3,3.5 7,2.7 L7,2.7 Z M8,11.7 C7.7,11.4 7.2,11.3 6.6,11.3 C5.9,11.3 5,11.5 4.3,12 C3,12.8 2.5,14.1 3.3,14.7 C3.6,15 4.1,15.1 4.7,15.1 C5.4,15.1 6.3,14.9 7,14.4 C8.3,13.6 8.8,12.4 8,11.7 L8,11.7 Z M13,10.1 L21.9,3.1 L20.3,2.3 L11,7.5 L11,8.9 L9.1,10.1 L9.2,10.2 C9.2,10.2 9.2,10.2 9.3,10.3 C9.4,10.4 9.5,10.5 9.6,10.6 L9.9,10.9 L11.8,9.7 L13,10.1 L13,10.1 Z M10.3,7.7 L10.3,7.6 C10.3,7.3 10.5,7.1 10.7,6.9 L10.9,6.8 L9.9,6.2 L9.6,6.5 C9.5,6.6 9.4,6.7 9.3,6.8 C9.3,6.8 9.2,6.8 9.2,6.9 L9.1,7 L10.3,7.7 L10.3,7.7 Z M13.4,8.5 C13.4,8.9 13,9.3 12.6,9.3 C12.2,9.3 11.8,8.9 11.8,8.5 C11.8,8.1 12.2,7.7 12.6,7.7 C13.1,7.8 13.4,8.1 13.4,8.5 L13.4,8.5 Z M22,14 L15.6,9 L13.5,10.7 C13.5,10.7 13.4,10.8 13.3,10.8 L20.4,14.8 L22,14 L22,14 Z" id="Shape" fill="#56606E"></path>
            </g>
        </g>
    </g>
</svg>