<?xml version="1.0" encoding="utf-8"?>
<!-- Generator: Adobe Illustrator 19.0.0, SVG Export Plug-In . SVG Version: 6.00 Build 0)  -->
<svg version="1.1" id="Слой_1" xmlns="http://www.w3.org/2000/svg" xmlns:xlink="http://www.w3.org/1999/xlink" x="0px" y="0px"
	 viewBox="0 0 52.6 31.2" style="enable-background:new 0 0 52.6 31.2;" xml:space="preserve">
<style type="text/css">
	.st0{fill:none;stroke:#FFFFFF;stroke-width:2;stroke-miterlimit:10;stroke-dasharray:4.0449,3.0336;}
	.st1{fill:#FFFFFF;}
</style>
<g>
	<path id="XMLID_9_" class="st0" d="M51.5,27.2c0,1.7-1.3,3-3,3h-27c-1.7,0-3-1.3-3-3v-16c0-1.7,1.3-3,3-3h27c1.7,0,3,1.3,3,3V27.2z
		"/>
</g>
<g>
	<g id="XMLID_45_">
		<path id="XMLID_49_" class="st1" d="M31.2,24.6h-2v-5.4c0-0.1,0-0.2,0-0.4c0-0.2,0-0.3,0-0.5c0-0.2,0-0.3,0-0.5c0-0.2,0-0.3,0-0.5
			c0,0-0.1,0.1-0.1,0.1S29,17.6,29,17.7c-0.1,0.1-0.1,0.1-0.2,0.2c-0.1,0.1-0.1,0.1-0.2,0.2l-1.1,0.9l-1-1.2l3-2.4h1.6V24.6z"/>
		<path id="XMLID_46_" class="st1" d="M39.9,20c0,0.7-0.1,1.4-0.2,2c-0.1,0.6-0.3,1.1-0.6,1.5c-0.3,0.4-0.6,0.7-1,0.9
			c-0.4,0.2-0.9,0.3-1.5,0.3c-0.5,0-1-0.1-1.4-0.3c-0.4-0.2-0.7-0.5-1-0.9s-0.5-0.9-0.6-1.5c-0.1-0.6-0.2-1.3-0.2-2s0.1-1.4,0.2-2
			c0.1-0.6,0.3-1.1,0.6-1.5c0.3-0.4,0.6-0.7,1-0.9c0.4-0.2,0.9-0.3,1.5-0.3c0.5,0,1,0.1,1.4,0.3c0.4,0.2,0.7,0.5,1,0.9
			c0.3,0.4,0.5,0.9,0.6,1.5C39.8,18.5,39.9,19.2,39.9,20z M35.5,20c0,1.1,0.1,1.9,0.3,2.4c0.2,0.5,0.5,0.8,0.9,0.8
			c0.4,0,0.8-0.3,0.9-0.8C37.9,21.8,38,21,38,20c0-1.1-0.1-1.9-0.3-2.4c-0.2-0.5-0.5-0.8-0.9-0.8c-0.2,0-0.4,0.1-0.6,0.2
			c-0.2,0.1-0.3,0.3-0.4,0.6c-0.1,0.3-0.2,0.6-0.2,1C35.5,19,35.5,19.4,35.5,20z"/>
	</g>
</g>
<g>
	<path class="st1" d="M21.4,13.4c0.2,0.2,0.3,0.4,0.3,0.7c0,0.3-0.2,0.5-0.4,0.6l-1.6,0.8c-0.1,0.1-0.2,0.1-0.4,0.1
		c-0.1,0-0.3,0-0.4-0.1l-8.4-4.7l-1.3,0.8c0,0-0.1,0-0.1,0.1c0.1,0.4,0.2,0.8,0.1,1.2C9.2,14,8.4,15.2,7,16.1c-1,0.7-2.2,1-3.4,1
		c-1.1,0-2-0.3-2.7-0.9c-0.7-0.6-1-1.6-1-2.5c0.1-1.2,0.9-2.4,2.3-3.3c1-0.7,2.2-1,3.4-1c0.7,0,1.3,0.1,1.8,0.4
		c0.1-0.1,0.2-0.2,0.3-0.3l1.5-0.9L7.8,7.7C7.6,7.6,7.6,7.5,7.5,7.4C7,7.6,6.3,7.8,5.7,7.8c-1.1,0-2.3-0.4-3.4-1
		C1,5.9,0.1,4.7,0,3.5C-0.1,2.5,0.3,1.6,1,1c0.7-0.6,1.6-1,2.7-1C4.8,0,6,0.4,7,1c1.3,0.8,2.2,2,2.3,3.3c0,0.4,0,0.8-0.1,1.2
		c0,0,0.1,0,0.1,0.1l1.3,0.8L19,1.6c0.1-0.1,0.2-0.1,0.4-0.1c0.1,0,0.2,0,0.4,0.1l1.6,0.8c0.2,0.1,0.4,0.4,0.4,0.6
		c0,0.3-0.1,0.5-0.3,0.7l-6.2,4.8L21.4,13.4z M6,2.7C5.3,2.2,4.4,1.9,3.7,1.9c-0.6,0-1.1,0.1-1.4,0.4C1.6,3.1,2,4.3,3.3,5.1
		c0.7,0.5,1.6,0.7,2.3,0.7c0.6,0,1.1-0.1,1.4-0.4C7.8,4.7,7.3,3.5,6,2.7z M7,11.7c-0.3-0.3-0.8-0.4-1.4-0.4c-0.7,0-1.6,0.2-2.3,0.7
		c-1.3,0.8-1.8,2.1-1,2.7c0.3,0.3,0.8,0.4,1.4,0.4c0.7,0,1.6-0.2,2.3-0.7C7.3,13.6,7.8,12.4,7,11.7z M12,10.1l8.9-7l-1.6-0.8
		l-9.3,5.2v1.4l-1.9,1.2l0.1,0.1c0,0,0,0,0.1,0.1c0.1,0.1,0.2,0.2,0.3,0.3l0.3,0.3l1.9-1.2L12,10.1z M9.3,7.7V7.6
		c0-0.3,0.2-0.5,0.4-0.7l0.2-0.1l-1-0.6L8.6,6.5C8.5,6.6,8.4,6.7,8.3,6.8c0,0-0.1,0-0.1,0.1L8.2,7L9.3,7.7z M12.4,8.5
		c0,0.4-0.4,0.8-0.8,0.8c-0.4,0-0.8-0.4-0.8-0.8c0-0.4,0.4-0.8,0.8-0.8C12.1,7.8,12.4,8.1,12.4,8.5z"/>
</g>
</svg>
