<?xml version="1.0" encoding="utf-8"?>
<!-- Generator: Adobe Illustrator 19.0.0, SVG Export Plug-In . SVG Version: 6.00 Build 0)  -->
<svg version="1.1" id="Слой_1" xmlns="http://www.w3.org/2000/svg" xmlns:xlink="http://www.w3.org/1999/xlink" x="0px" y="0px"
	 viewBox="0 0 11.6 20.2" style="enable-background:new 0 0 11.6 20.2;" xml:space="preserve">
<style type="text/css">
	.st0{fill:none;stroke:#56606E;stroke-width:1.322;stroke-linecap:round;stroke-linejoin:round;stroke-miterlimit:10;}
	.st1{fill:none;stroke:#56606E;stroke-linecap:round;stroke-linejoin:round;stroke-miterlimit:10;}
</style>
<path id="XMLID_20_" class="st0" d="M6.1,6.2C6.3,6.9,6.2,7.9,5.8,8C5.3,8.2,4.7,7.4,4.4,6.7c-0.2-0.7,0-1.3,0.5-1.4
	C5.4,5.2,5.9,5.5,6.1,6.2z"/>
<path id="XMLID_19_" class="st0" d="M4.5,9.6c0,0,4-1.4,4-1.6c0-0.1-0.2-3.1-0.2-3.1"/>
<polyline id="XMLID_18_" class="st0" points="6.9,10.3 10.7,9.2 9.8,5.2 "/>
<polygon id="XMLID_17_" class="st1" points="1.9,0.5 1.4,0.9 1.7,1.9 9.9,5.2 9.8,4.3 "/>
<polyline id="XMLID_16_" class="st0" points="5.5,8.4 7.1,12.3 4.8,16.1 0.7,18.9 "/>
<polyline id="XMLID_15_" class="st0" points="7.3,14.7 10.9,16.6 10.6,19.6 "/>
</svg>
