<?xml version="1.0" encoding="utf-8"?>
<!-- Generator: Adobe Illustrator 19.0.0, SVG Export Plug-In . SVG Version: 6.00 Build 0)  -->
<svg version="1.1" id="Слой_1" xmlns="http://www.w3.org/2000/svg" xmlns:xlink="http://www.w3.org/1999/xlink" x="0px" y="0px"
	 viewBox="0 0 15.6 12.5" style="enable-background:new 0 0 15.6 12.5;" xml:space="preserve">
<style type="text/css">
	.st0{fill:none;stroke:#56606E;stroke-width:1.3216;stroke-miterlimit:10;}
	.st1{fill:none;stroke:#56606E;stroke-miterlimit:10;}
</style>
<g>
	<path class="st0" d="M12.8,5c1.1,0.6,2,1.9,2,3.1c0,2-1.8,3.6-3.9,3.6H4.9C2.7,11.7,1,10.1,1,8.1C1,6.8,1.8,5.6,3,5"/>
	<path class="st1" d="M2.6,5.4c0,0,0-0.6,0.7-0.8c0.7-0.3,1.2-0.7,1.3-1C4.8,3.3,5.4,2,5.7,1.6c0.4-0.4,0.8-0.8,1.6-0.8
		C7.4,0.9,11,1,11,1c0,0,0.3,0,0.3,0.3c0,0.3,0.2,1-0.3,1c-0.5,0.1-1.5,0.4-2.3,0.3C7.8,2.4,7.1,2.3,6.9,2.3
		C6.8,2.4,6.4,2.8,6.3,2.9c0,0.2,0,0.6,0.1,0.8c0.1,0.2,1.6,0.1,2.1,0.1c0.5,0.1,3.2,0.1,3.6,0.4c0.4,0.3,0.8,0.6,0.8,0.6"/>
	<path class="st0" d="M2.9,5.1c0,0,0.7,0.4,2.2,0.5c1.3,0.1,5.3,0,6,0c0.9,0,1.6-0.2,1.9-0.4"/>
</g>
</svg>
