<?xml version="1.0" encoding="utf-8"?>
<!-- Generator: Adobe Illustrator 19.0.0, SVG Export Plug-In . SVG Version: 6.00 Build 0)  -->
<svg version="1.1" id="Слой_1" xmlns="http://www.w3.org/2000/svg" xmlns:xlink="http://www.w3.org/1999/xlink" x="0px" y="0px"
	 viewBox="0 0 17.4 14.7" style="enable-background:new 0 0 17.4 14.7;" xml:space="preserve">
<style type="text/css">
	.st0{fill:none;stroke:#56606E;stroke-width:1.3216;stroke-linecap:round;stroke-linejoin:round;stroke-miterlimit:10;}
</style>
<path class="st0" d="M6.7,10.5c-0.3,1.9-1.8,3.4-3.4,3.4c-1.6,0-2.7-1.5-2.4-3.4c0.3-1.9,1.8-3.4,3.4-3.4C5.9,7.2,7,8.7,6.7,10.5z"
	/>
<path class="st0" d="M16.6,10.5c-0.3,1.9-1.8,3.4-3.4,3.4c-1.6,0-2.7-1.5-2.4-3.4c0.3-1.9,1.8-3.4,3.4-3.4
	C15.8,7.2,16.9,8.7,16.6,10.5z"/>
<circle class="st0" cx="12.8" cy="2" r="1.2"/>
<path class="st0" d="M10.3,3.9c0,0,1.3,1.8,5.9,1.4"/>
<polyline class="st0" points="8.1,4.9 11,6.6 9.1,11.1 "/>
<line class="st0" x1="8.3" y1="5.1" x2="7.9" y2="13.1"/>
</svg>
