<?xml version="1.0" encoding="utf-8"?>
<!-- Generator: Adobe Illustrator 19.0.0, SVG Export Plug-In . SVG Version: 6.00 Build 0)  -->
<svg version="1.1" id="Слой_1" xmlns="http://www.w3.org/2000/svg" xmlns:xlink="http://www.w3.org/1999/xlink" x="0px" y="0px"
	 viewBox="0 0 21.1 21.7" style="enable-background:new 0 0 21.1 21.7;" xml:space="preserve">
<style type="text/css">
	.st0{fill:none;stroke:#56606E;stroke-width:1.3216;stroke-linecap:round;stroke-linejoin:round;stroke-miterlimit:10;}
</style>
<path id="XMLID_6_" class="st0" d="M15.3,13.7c0,4-3.2,7.2-7.2,7.2c-4,0-7.2-3.2-7.2-7.2c0-4,3.2-7.2,7.2-7.2"/>
<path id="XMLID_5_" class="st0" d="M11.7,13.7c0,2-1.6,3.6-3.6,3.6c-2,0-3.6-1.6-3.6-3.6s1.6-3.6,3.6-3.6"/>
<line id="XMLID_4_" class="st0" x1="8.6" y1="12.6" x2="14.3" y2="6.9"/>
<path id="XMLID_3_" class="st0" d="M13.9,6.7l-0.5-2.4l3-3.5c0,0,0.7,1.2,0.4,2.5C16.4,4.6,13.9,6.7,13.9,6.7z"/>
<path id="XMLID_2_" class="st0" d="M12.6,9l2.6-1.6l5-3.1c0,0-1.3-0.9-2.1-0.8"/>
</svg>
