<?xml version="1.0" encoding="utf-8"?>
<!-- Generator: Adobe Illustrator 19.0.0, SVG Export Plug-In . SVG Version: 6.00 Build 0)  -->
<svg version="1.1" id="Слой_1" xmlns="http://www.w3.org/2000/svg" xmlns:xlink="http://www.w3.org/1999/xlink" x="0px" y="0px"
	 viewBox="0 0 32.1 17" style="enable-background:new 0 0 32.1 17;" xml:space="preserve">
<style type="text/css">
	.st0{fill:#FFFFFF;}
	.st1{fill:none;stroke:#A4ACB7;stroke-miterlimit:10;}
	.st2{fill:none;stroke:#A4ACB7;stroke-miterlimit:10;stroke-dasharray:1,1;}
	.st3{fill:#A4ACB7;}
</style>
<rect x="0.6" y="0.5" class="st0" width="31" height="16"/>
<rect x="0.6" y="0.5" class="st1" width="31" height="16"/>
<line class="st0" x1="16.1" y1="1" x2="16.1" y2="16"/>
<line class="st1" x1="15.6" y1="1" x2="15.6" y2="1"/>
<line class="st2" x1="15.6" y1="2" x2="15.6" y2="15"/>
<line class="st1" x1="15.6" y1="16" x2="15.6" y2="16"/>
<line class="st0" x1="8.1" y1="1" x2="8.1" y2="16"/>
<line class="st1" x1="8.6" y1="1" x2="8.6" y2="1"/>
<line class="st2" x1="8.6" y1="2" x2="8.6" y2="15"/>
<line class="st1" x1="8.6" y1="16" x2="8.6" y2="16"/>
<line class="st0" x1="23.1" y1="1" x2="23.1" y2="16"/>
<line class="st1" x1="23.6" y1="1" x2="23.6" y2="1"/>
<line class="st2" x1="23.6" y1="2" x2="23.6" y2="15"/>
<line class="st1" x1="23.6" y1="16" x2="23.6" y2="16"/>
<rect x="30.1" y="6" class="st3" width="2" height="6"/>
<rect x="1.1" y="6" class="st3" width="1" height="6"/>
</svg>
