<?xml version="1.0" encoding="utf-8"?>
<!-- Generator: Adobe Illustrator 19.0.0, SVG Export Plug-In . SVG Version: 6.00 Build 0)  -->
<svg version="1.1" id="Слой_1" xmlns="http://www.w3.org/2000/svg" xmlns:xlink="http://www.w3.org/1999/xlink" x="0px" y="0px"
	 viewBox="0 0 32 17" style="enable-background:new 0 0 32 17;" xml:space="preserve">
<style type="text/css">
	.st0{fill:#FFFFFF;}
	.st1{fill:none;stroke:#A4ACB7;stroke-miterlimit:10;}
	.st2{fill:none;stroke:#A4ACB7;stroke-miterlimit:10;stroke-dasharray:0.983,0.983;}
	.st3{fill:#A4ACB7;}
</style>
<rect x="0.5" y="0.5" class="st0" width="31" height="16"/>
<rect x="0.5" y="0.5" class="st1" width="31" height="16"/>
<line class="st0" x1="16.2" y1="0.5" x2="16.2" y2="16.2"/>
<line class="st1" x1="16.2" y1="0.5" x2="16.2" y2="1"/>
<line class="st2" x1="16.2" y1="2" x2="16.2" y2="15.3"/>
<line class="st1" x1="16.2" y1="15.7" x2="16.2" y2="16.2"/>
<line class="st0" x1="8.6" y1="0.5" x2="8.6" y2="16.2"/>
<line class="st1" x1="8.6" y1="0.5" x2="8.6" y2="1"/>
<line class="st2" x1="8.6" y1="2" x2="8.6" y2="15.3"/>
<line class="st1" x1="8.6" y1="15.7" x2="8.6" y2="16.2"/>
<line class="st0" x1="23.6" y1="0.5" x2="23.6" y2="16.2"/>
<line class="st1" x1="23.6" y1="0.5" x2="23.6" y2="1"/>
<line class="st2" x1="23.6" y1="2" x2="23.6" y2="15.3"/>
<line class="st1" x1="23.6" y1="15.7" x2="23.6" y2="16.2"/>
<rect x="30.5" y="5.6" class="st3" width="1.5" height="6.8"/>
<rect y="5.6" class="st3" width="1.5" height="6.8"/>
</svg>
