<?xml version="1.0" encoding="utf-8"?>
<!-- Generator: Adobe Illustrator 19.0.0, SVG Export Plug-In . SVG Version: 6.00 Build 0)  -->
<svg version="1.1" id="Слой_1" xmlns="http://www.w3.org/2000/svg" xmlns:xlink="http://www.w3.org/1999/xlink" x="0px" y="0px"
	 viewBox="0 0 31 16" style="enable-background:new 0 0 31 16;" xml:space="preserve">
<style type="text/css">
	.st0{fill:#079247;}
	.st1{fill:none;stroke:#FFFFFF;stroke-miterlimit:10;}
	.st2{fill:none;stroke:#FFFFFF;stroke-miterlimit:10;stroke-dasharray:2,2;}
	.st3{fill:#FFFFFF;}
</style>
<rect id="XMLID_44_" class="st0" width="31" height="16"/>
<line id="XMLID_43_" class="st1" x1="16.5" y1="-1" x2="16.5" y2="16"/>
<line id="XMLID_42_" class="st1" x1="7.5" y1="0" x2="7.5" y2="16"/>
<line id="XMLID_41_" class="st1" x1="31" y1="3.5" x2="30" y2="3.5"/>
<line id="XMLID_40_" class="st2" x1="28" y1="3.5" x2="2" y2="3.5"/>
<line id="XMLID_39_" class="st1" x1="1" y1="3.5" x2="0" y2="3.5"/>
<line id="XMLID_38_" class="st1" x1="31" y1="11.5" x2="30" y2="11.5"/>
<line id="XMLID_37_" class="st2" x1="28" y1="11.5" x2="2" y2="11.5"/>
<line id="XMLID_36_" class="st1" x1="1" y1="11.5" x2="0" y2="11.5"/>
<line id="XMLID_35_" class="st1" x1="23.5" y1="0" x2="23.5" y2="16"/>
<line id="XMLID_34_" class="st1" x1="31.3" y1="3.5" x2="26.7" y2="5.2"/>
<line id="XMLID_33_" class="st1" x1="31.3" y1="10.2" x2="26.7" y2="8.5"/>
<line id="XMLID_32_" class="st3" x1="29" y1="5" x2="29" y2="9"/>
<line id="XMLID_31_" class="st1" x1="28.5" y1="5" x2="28.5" y2="9"/>
<line id="XMLID_30_" class="st1" x1="0.5" y1="3.5" x2="5.1" y2="5.2"/>
<line id="XMLID_29_" class="st1" x1="0.5" y1="10.2" x2="5.1" y2="8.5"/>
<line id="XMLID_28_" class="st1" x1="3.5" y1="5" x2="3.5" y2="9"/>
</svg>
