<?xml version="1.0" encoding="utf-8"?>
<!-- Generator: Adobe Illustrator 19.0.0, SVG Export Plug-In . SVG Version: 6.00 Build 0)  -->
<svg version="1.1" id="Слой_1" xmlns="http://www.w3.org/2000/svg" xmlns:xlink="http://www.w3.org/1999/xlink" x="0px" y="0px"
	 viewBox="0 0 31 16" style="enable-background:new 0 0 31 16;" xml:space="preserve">
<style type="text/css">
	.st0{fill:#55A4DB;}
	.st1{fill:#FFFFFF;}
	.st2{fill:none;stroke:#FFFFFF;stroke-miterlimit:10;}
</style>
<rect class="st0" width="31" height="16"/>
<line class="st1" x1="15.5" y1="0" x2="15.5" y2="16"/>
<line class="st2" x1="15.5" y1="0" x2="15.5" y2="16"/>
<path class="st2" d="M30.5,10.9c-1,0-3.4-1.5-3.4-3.4c0-1.9,2.4-3.4,3.4-3.4V10.9z"/>
<path class="st2" d="M0.5,10.9c1,0,3.4-1.5,3.4-3.4c0-1.9-2.4-3.4-3.4-3.4V10.9z"/>
<circle class="st2" cx="23.1" cy="3.9" r="2.7"/>
<circle class="st2" cx="23.1" cy="10.8" r="2.7"/>
<circle class="st2" cx="15.6" cy="7.5" r="2.7"/>
<circle class="st2" cx="7.5" cy="3.9" r="2.7"/>
<circle class="st2" cx="7.5" cy="10.8" r="2.7"/>
<path class="st1" d="M8,3.9c0,0.3-0.2,0.5-0.5,0.5C7.3,4.4,7,4.1,7,3.9c0-0.3,0.2-0.5,0.5-0.5C7.8,3.4,8,3.6,8,3.9"/>
<path class="st1" d="M8,10.8c0,0.3-0.2,0.5-0.5,0.5c-0.3,0-0.5-0.2-0.5-0.5c0-0.3,0.2-0.5,0.5-0.5C7.8,10.3,8,10.6,8,10.8"/>
<path class="st1" d="M23.7,10.8c0,0.3-0.2,0.5-0.5,0.5s-0.5-0.2-0.5-0.5c0-0.3,0.2-0.5,0.5-0.5S23.7,10.6,23.7,10.8"/>
<path class="st1" d="M23.7,3.8c0,0.3-0.2,0.5-0.5,0.5s-0.5-0.2-0.5-0.5c0-0.3,0.2-0.5,0.5-0.5S23.7,3.6,23.7,3.8"/>
</svg>
