<?xml version="1.0" encoding="utf-8"?>
<!-- Generator: Adobe Illustrator 19.0.0, SVG Export Plug-In . SVG Version: 6.00 Build 0)  -->
<svg version="1.1" id="Слой_1" xmlns="http://www.w3.org/2000/svg" xmlns:xlink="http://www.w3.org/1999/xlink" x="0px" y="0px"
	 viewBox="0 0 16 15.2" style="enable-background:new 0 0 16 15.2;" xml:space="preserve">
<style type="text/css">
	.st0{fill:#56606E;}
	.st1{fill:none;stroke:#56606E;stroke-linecap:round;stroke-linejoin:round;stroke-miterlimit:10;}
</style>
<g id="XMLID_3_">
	<path id="XMLID_4_" class="st0" d="M13.1,11c0,2.3-1.9,4.2-4.2,4.2S4.8,13.3,4.8,11c0-2.3,1.9-4.2,4.2-4.2S13.1,8.7,13.1,11z
		 M12.5,11C12.5,11,12.5,11,12.5,11L12,11.4l-1.1-1l0.3-1.5L11.8,9c-0.4-0.6-1.1-1.1-1.8-1.3l0.2,0.6L8.9,9L7.6,8.2l0.2-0.6
		C7.1,7.9,6.5,8.3,6,9l0.6-0.1l0.3,1.5l-1.1,1L5.4,11c0,0,0,0,0,0c0,0.8,0.3,1.5,0.7,2.1l0.1-0.6l1.5,0.2l0.6,1.4l-0.5,0.3
		c0.3,0.1,0.7,0.2,1.1,0.2c0.4,0,0.8-0.1,1.1-0.2l-0.5-0.3l0.6-1.4l1.5-0.2l0.1,0.6C12.2,12.6,12.5,11.8,12.5,11z M8.9,9.7l1.3,1
		l-0.5,1.6H8.1l-0.5-1.6L8.9,9.7z"/>
</g>
<polyline id="XMLID_2_" class="st1" points="3,10.6 0.5,10.6 0.5,0.6 15.5,0.6 15.5,10.6 14,10.6 "/>
</svg>
