<?xml version="1.0" encoding="utf-8"?>
<!-- Generator: Adobe Illustrator 19.0.0, SVG Export Plug-In . SVG Version: 6.00 Build 0)  -->
<svg version="1.1" id="Слой_1" xmlns="http://www.w3.org/2000/svg" xmlns:xlink="http://www.w3.org/1999/xlink" x="0px" y="0px"
	 viewBox="0 0 16 16.4" style="enable-background:new 0 0 16 16.4;" xml:space="preserve">
<style type="text/css">
	.st0{fill:none;stroke:#56606E;stroke-width:1.3216;stroke-linecap:round;stroke-linejoin:round;stroke-miterlimit:10;}
</style>
<g id="XMLID_2_">
	<path id="XMLID_7_" class="st0" d="M8.2,2.4c0.2,0.7,0,1.7-0.4,1.8C7.3,4.3,6.7,3.6,6.5,2.9C6.3,2.2,6.6,1.6,7.1,1.5
		C7.6,1.4,8.1,1.8,8.2,2.4z"/>
	<path id="XMLID_6_" class="st0" d="M15.3,5.6c0,0-5.2-0.2-7.2,0C6.2,5.8,3.4,7,3.4,7L2.5,4.2"/>
	<polyline id="XMLID_5_" class="st0" points="7.2,7 8.3,9.1 7.2,13.7 2.5,12.6 	"/>
	<polyline id="XMLID_4_" class="st0" points="4.9,15.6 8.7,15.5 11.1,10.9 10.2,5.6 	"/>
	<circle id="XMLID_3_" class="st0" cx="2" cy="2" r="1.1"/>
</g>
</svg>
