<?xml version="1.0" encoding="utf-8"?>
<!-- Generator: Adobe Illustrator 19.0.0, SVG Export Plug-In . SVG Version: 6.00 Build 0)  -->
<svg version="1.1" id="Слой_1" xmlns="http://www.w3.org/2000/svg" xmlns:xlink="http://www.w3.org/1999/xlink" x="0px" y="0px"
	 viewBox="0 0 32 17" style="enable-background:new 0 0 32 17;" xml:space="preserve">
<style type="text/css">
	.st0{fill:#FFFFFF;}
	.st1{fill:none;stroke:#A4ACB7;stroke-miterlimit:10;}
</style>
<rect id="XMLID_61_" x="0.5" y="0.5" class="st0" width="31" height="16"/>
<rect id="XMLID_60_" x="0.5" y="0.5" class="st1" width="31" height="16"/>
<circle id="XMLID_59_" class="st1" cx="15.5" cy="8.3" r="3.3"/>
<line id="XMLID_58_" class="st1" x1="15.5" y1="0" x2="15.5" y2="16"/>
<path id="XMLID_57_" class="st1" d="M31,5.5h-4.3c-1.6,0-2.8,1.3-2.8,2.8c0,1.6,1.3,3.2,2.8,3.2H31"/>
<path id="XMLID_56_" class="st1" d="M31,15.1c-5,0-9.1-2.9-9.1-6.6S26,1.9,31,1.9"/>
<path id="XMLID_55_" class="st1" d="M0,5.5h4.4c1.6,0,2.8,1.3,2.8,2.8c0,1.6-1.3,3.2-2.8,3.2H0"/>
<path id="XMLID_54_" class="st1" d="M0.1,15.1c5,0,9.1-2.9,9.1-6.6S5.1,1.9,0.1,1.9"/>
</svg>
