<?xml version="1.0" encoding="utf-8"?>
<!-- Generator: Adobe Illustrator 19.0.0, SVG Export Plug-In . SVG Version: 6.00 Build 0)  -->
<svg version="1.1" id="Слой_1" xmlns="http://www.w3.org/2000/svg" xmlns:xlink="http://www.w3.org/1999/xlink" x="0px" y="0px"
	 viewBox="0 0 31 16" style="enable-background:new 0 0 31 16;" xml:space="preserve">
<style type="text/css">
	.st0{fill:#56606E;}
	.st1{fill:#FFFFFF;}
	.st2{fill:none;stroke:#FFFFFF;stroke-miterlimit:10;}
	.st3{fill:none;stroke:#FFFFFF;stroke-linecap:round;stroke-linejoin:round;stroke-miterlimit:10;}
</style>
<rect class="st0" width="31" height="16"/>
<line class="st1" x1="15.5" y1="0" x2="15.5" y2="16"/>
<line class="st2" x1="15.5" y1="0" x2="15.5" y2="16"/>
<path class="st2" d="M-0.1,1.9c0.3-0.1,0.6-0.1,1-0.1c2.5,0,4.5,1.8,4.5,4v3.3c0,2.2-2,4-4.5,4c-0.3,0-0.6,0-0.9-0.1"/>
<path class="st2" d="M31.4,1.9c-0.3-0.1-0.8-0.1-1.2-0.1c-2.5,0-4.7,1.8-4.7,4v3.3c0,2.2,2.2,4,4.7,4c0.3,0,0.7,0,1-0.1"/>
<rect x="30" y="4" class="st1" width="2" height="7"/>
<rect x="-1" y="4" class="st1" width="2" height="7"/>
<line class="st3" x1="28.5" y1="7" x2="28.5" y2="8"/>
<line class="st3" x1="3.5" y1="7" x2="3.5" y2="8"/>
</svg>
