<?xml version="1.0" encoding="utf-8"?>
<!-- Generator: Adobe Illustrator 19.0.0, SVG Export Plug-In . SVG Version: 6.00 Build 0)  -->
<svg version="1.1" id="Слой_1" xmlns="http://www.w3.org/2000/svg" xmlns:xlink="http://www.w3.org/1999/xlink" x="0px" y="0px"
	 viewBox="0 0 32.1 17" style="enable-background:new 0 0 32.1 17;" xml:space="preserve">
<style type="text/css">
	.st0{fill:#FFFFFF;}
	.st1{fill:none;stroke:#A4ACB7;stroke-miterlimit:10;}
	.st2{fill:#A4ACB7;}
</style>
<rect x="0.6" y="0.5" class="st0" width="31" height="16"/>
<rect x="0.6" y="0.5" class="st1" width="31" height="16"/>
<line class="st0" x1="15.6" y1="1" x2="15.6" y2="16"/>
<line class="st1" x1="15.6" y1="1" x2="15.6" y2="16"/>
<path class="st0" d="M31.6,11.9c-1,0-3.4-1.5-3.4-3.4c0-1.9,2.4-3.4,3.4-3.4V11.9z"/>
<path class="st1" d="M31.6,11.9c-1,0-3.4-1.5-3.4-3.4c0-1.9,2.4-3.4,3.4-3.4V11.9z"/>
<path class="st0" d="M0.6,11.9c1,0,3.4-1.5,3.4-3.4c0-1.9-2.4-3.4-3.4-3.4V11.9z"/>
<path class="st1" d="M0.6,11.9c1,0,3.4-1.5,3.4-3.4c0-1.9-2.4-3.4-3.4-3.4V11.9z"/>
<path class="st0" d="M25.9,4.8c0,1.5-1.2,2.7-2.7,2.7c-1.5,0-2.7-1.2-2.7-2.7c0-1.5,1.2-2.7,2.7-2.7C24.6,2.1,25.9,3.4,25.9,4.8"/>
<circle class="st1" cx="23.2" cy="4.8" r="2.7"/>
<path class="st0" d="M25.9,11.8c0,1.5-1.2,2.7-2.7,2.7c-1.5,0-2.7-1.2-2.7-2.7c0-1.5,1.2-2.7,2.7-2.7C24.6,9.1,25.9,10.3,25.9,11.8"
	/>
<circle class="st1" cx="23.2" cy="11.8" r="2.7"/>
<circle class="st1" cx="15.7" cy="8.5" r="2.7"/>
<path class="st0" d="M10.3,4.8c0,1.5-1.2,2.7-2.7,2.7c-1.5,0-2.7-1.2-2.7-2.7c0-1.5,1.2-2.7,2.7-2.7C9.1,2.1,10.3,3.4,10.3,4.8"/>
<circle class="st1" cx="7.6" cy="4.8" r="2.7"/>
<path class="st0" d="M10.3,11.8c0,1.5-1.2,2.7-2.7,2.7c-1.5,0-2.7-1.2-2.7-2.7c0-1.5,1.2-2.7,2.7-2.7C9.1,9.1,10.3,10.3,10.3,11.8"
	/>
<circle class="st1" cx="7.6" cy="11.8" r="2.7"/>
<path class="st2" d="M8.1,4.8c0,0.3-0.2,0.5-0.5,0.5c-0.3,0-0.5-0.2-0.5-0.5c0-0.3,0.2-0.5,0.5-0.5C7.9,4.3,8.1,4.6,8.1,4.8"/>
<path class="st2" d="M8.1,11.8c0,0.3-0.2,0.5-0.5,0.5c-0.3,0-0.5-0.2-0.5-0.5c0-0.3,0.2-0.5,0.5-0.5C7.9,11.3,8.1,11.6,8.1,11.8"/>
<path class="st2" d="M23.7,11.8c0,0.3-0.2,0.5-0.5,0.5s-0.5-0.2-0.5-0.5c0-0.3,0.2-0.5,0.5-0.5S23.7,11.6,23.7,11.8"/>
<path class="st2" d="M23.7,4.8c0,0.3-0.2,0.5-0.5,0.5s-0.5-0.2-0.5-0.5c0-0.3,0.2-0.5,0.5-0.5S23.7,4.6,23.7,4.8"/>
</svg>
