<?xml version="1.0" encoding="utf-8"?>
<!-- Generator: Adobe Illustrator 19.0.0, SVG Export Plug-In . SVG Version: 6.00 Build 0)  -->
<svg version="1.1" id="Слой_1" xmlns="http://www.w3.org/2000/svg" xmlns:xlink="http://www.w3.org/1999/xlink" x="0px" y="0px"
	 viewBox="0 0 31 16" style="enable-background:new 0 0 31 16;" xml:space="preserve">
<style type="text/css">
	.st0{fill:#C58E51;}
	.st1{fill:none;stroke:#FFFFFF;stroke-miterlimit:10;}
	.st2{fill:#FFFFFF;}
</style>
<rect class="st0" width="31" height="16"/>
<path class="st0" d="M18.8,7.7c0,1.8-1.5,3.3-3.3,3.3c-1.8,0-3.3-1.5-3.3-3.3c0-1.8,1.5-3.3,3.3-3.3C17.3,4.4,18.8,5.9,18.8,7.7"/>
<circle class="st1" cx="15.5" cy="7.7" r="3.3"/>
<line id="XMLID_55_" class="st2" x1="15.5" y1="0" x2="15.5" y2="15"/>
<line id="XMLID_53_" class="st1" x1="15.5" y1="0" x2="15.5" y2="15"/>
<path class="st1" d="M31,5.5h-4.3c-1.6,0-2.8,0.8-2.8,2.3c0,1.6,1.3,2.7,2.8,2.7H31"/>
<path class="st1" d="M31,14.4c-5,0-9.1-2.9-9.1-6.6S26,1.2,31,1.2"/>
<path class="st1" d="M0,5.5h4.4c1.6,0,2.8,0.8,2.8,2.3c0,1.6-1.3,2.7-2.8,2.7H0"/>
<path class="st1" d="M0.1,14.4c5,0,9.1-2.9,9.1-6.6S5.1,1.2,0.1,1.2"/>
</svg>
