<?xml version="1.0" encoding="utf-8"?>
<!-- Generator: Adobe Illustrator 19.0.0, SVG Export Plug-In . SVG Version: 6.00 Build 0)  -->
<svg version="1.1" id="Слой_1" xmlns="http://www.w3.org/2000/svg" xmlns:xlink="http://www.w3.org/1999/xlink" x="0px" y="0px"
	 viewBox="0 0 41.4 41.4" style="enable-background:new 0 0 41.4 41.4;" xml:space="preserve">
<style type="text/css">
	.st0{fill:#56606E;}
</style>
<g>
	<g>
		<path class="st0" d="M20.7,41.4c-5.5,0-10.7-2.2-14.6-6.1C-0.3,29-1.8,19.3,2.3,11.2c0.4-0.7,1.3-1,2-0.6c0.7,0.4,1,1.3,0.6,2
			c-3.5,6.9-2.2,15.2,3.2,20.7c3.4,3.4,7.8,5.2,12.6,5.2c4.7,0,9.2-1.8,12.6-5.2c3.4-3.4,5.2-7.8,5.2-12.6c0-4.7-1.8-9.2-5.2-12.6
			C29.9,4.8,25.5,3,20.7,3C16,3,11.5,4.8,8.2,8.2c-0.6,0.6-1.5,0.6-2.1,0c-0.6-0.6-0.6-1.5,0-2.1C10,2.2,15.2,0,20.7,0
			s10.7,2.2,14.6,6.1c3.9,3.9,6.1,9.1,6.1,14.6c0,5.5-2.2,10.7-6.1,14.6C31.5,39.3,26.3,41.4,20.7,41.4z"/>
	</g>
	<g>
		<path class="st0" d="M28.1,28.1c-0.3,0-0.6-0.1-0.9-0.3l-7.4-5.9c-0.3-0.3-0.6-0.7-0.6-1.2V8.9c0-0.8,0.7-1.5,1.5-1.5
			c0.8,0,1.5,0.7,1.5,1.5V20l6.8,5.5c0.6,0.5,0.7,1.4,0.2,2.1C29,27.9,28.6,28.1,28.1,28.1z"/>
	</g>
</g>
</svg>
