<?xml version="1.0" encoding="utf-8"?>
<!-- Generator: Adobe Illustrator 19.0.0, SVG Export Plug-In . SVG Version: 6.00 Build 0)  -->
<svg version="1.1" id="Слой_1" xmlns="http://www.w3.org/2000/svg" xmlns:xlink="http://www.w3.org/1999/xlink" x="0px" y="0px"
	 viewBox="0 0 32 17" style="enable-background:new 0 0 32 17;" xml:space="preserve">
<style type="text/css">
	.st0{fill:#FFFFFF;}
	.st1{fill:none;stroke:#A4ACB7;stroke-miterlimit:10;}
	.st2{fill:none;stroke:#A4ACB7;stroke-miterlimit:10;stroke-dasharray:2,2;}
</style>
<rect id="XMLID_29_" x="0.5" y="0.5" class="st0" width="31" height="16"/>
<rect id="XMLID_28_" x="0.5" y="0.5" class="st1" width="31" height="16"/>
<line id="XMLID_27_" class="st0" x1="16.5" y1="0" x2="16.5" y2="16"/>
<line id="XMLID_26_" class="st1" x1="16.5" y1="0" x2="16.5" y2="16"/>
<line id="XMLID_25_" class="st0" x1="7.5" y1="0" x2="7.5" y2="16"/>
<line id="XMLID_24_" class="st1" x1="7.5" y1="0" x2="7.5" y2="16"/>
<line id="XMLID_23_" class="st0" x1="31" y1="4" x2="0" y2="4"/>
<line id="XMLID_22_" class="st1" x1="31" y1="4.5" x2="30" y2="4.5"/>
<line id="XMLID_21_" class="st2" x1="28" y1="4.5" x2="2" y2="4.5"/>
<line id="XMLID_20_" class="st1" x1="1" y1="4.5" x2="0" y2="4.5"/>
<line id="XMLID_19_" class="st0" x1="31" y1="12" x2="0" y2="12"/>
<line id="XMLID_18_" class="st1" x1="31" y1="11.5" x2="30" y2="11.5"/>
<line id="XMLID_17_" class="st2" x1="28" y1="11.5" x2="2" y2="11.5"/>
<line id="XMLID_16_" class="st1" x1="1" y1="11.5" x2="0" y2="11.5"/>
<line id="XMLID_15_" class="st0" x1="23.5" y1="0" x2="23.5" y2="16"/>
<line id="XMLID_14_" class="st1" x1="23.5" y1="0" x2="23.5" y2="16"/>
<line id="XMLID_13_" class="st0" x1="31.3" y1="4.2" x2="26.7" y2="5.9"/>
<line id="XMLID_12_" class="st1" x1="31.3" y1="4.2" x2="26.7" y2="5.9"/>
<line id="XMLID_11_" class="st0" x1="31.3" y1="10.9" x2="26.7" y2="9.2"/>
<line id="XMLID_10_" class="st1" x1="31.3" y1="10.9" x2="26.7" y2="9.2"/>
<line id="XMLID_9_" class="st0" x1="28.5" y1="5" x2="28.5" y2="10"/>
<line id="XMLID_8_" class="st1" x1="28.5" y1="5" x2="28.5" y2="10"/>
<line id="XMLID_7_" class="st0" x1="0.5" y1="4.2" x2="5.1" y2="5.9"/>
<line id="XMLID_6_" class="st1" x1="0.5" y1="4.2" x2="5.1" y2="5.9"/>
<line id="XMLID_5_" class="st0" x1="0.5" y1="10.9" x2="5.1" y2="9.2"/>
<line id="XMLID_4_" class="st1" x1="0.5" y1="10.9" x2="5.1" y2="9.2"/>
<line id="XMLID_3_" class="st0" x1="3.5" y1="5" x2="3.5" y2="10"/>
<line id="XMLID_2_" class="st1" x1="3.5" y1="5" x2="3.5" y2="10"/>
</svg>
