<?xml version="1.0" encoding="utf-8"?>
<!-- Generator: Adobe Illustrator 19.0.0, SVG Export Plug-In . SVG Version: 6.00 Build 0)  -->
<svg version="1.1" id="Слой_1" xmlns="http://www.w3.org/2000/svg" xmlns:xlink="http://www.w3.org/1999/xlink" x="0px" y="0px"
	 viewBox="0 0 184 42" style="enable-background:new 0 0 184 42;" xml:space="preserve">
<style type="text/css">
	.st0{fill:#56606E;}
	.st1{fill:#FFFFFF;}
</style>
<g id="XMLID_2_">
	<path id="XMLID_21_" class="st0" d="M183.8,11.5c0.4,0.4,0.3,0.7-0.3,0.7h-11.2c-0.5,0-1-0.4-1-1v-11c0-0.5,0.3-0.7,0.7-0.3
		L183.8,11.5z"/>
	<path id="XMLID_17_" class="st0" d="M0,41.6V14h10c3.6,0,6.3,0.7,8.2,2c1.9,1.3,2.8,3.2,2.8,5.7c0,1.4-0.3,2.7-1,3.7
		c-0.7,1-1.6,1.8-2.9,2.2c1.5,0.4,2.6,1.1,3.4,2.1c0.8,1,1.2,2.3,1.2,3.8c0,2.7-0.9,4.7-2.6,6.1c-1.7,1.4-4.3,2.1-7.7,2.1H0z
		 M6.7,25.5h3.5c1.5,0,2.5-0.3,3.1-0.8c0.6-0.5,0.9-1.3,0.9-2.3c0-1.2-0.3-2-1-2.5c-0.7-0.5-1.8-0.8-3.3-0.8H6.7V25.5z M6.7,29.9
		v6.6h4.4c1.2,0,2.1-0.3,2.8-0.8c0.7-0.5,1-1.3,1-2.3c0-2.3-1.2-3.5-3.5-3.5H6.7z"/>
	<path id="XMLID_15_" class="st0" d="M42.4,29.9H31.9v6.6h12.5v5.1H25.1V14h19.3v5.1H31.9V25h10.6V29.9z"/>
	<path id="XMLID_13_" class="st0" d="M71.1,19.1h-8.4v22.5h-6.7V19.1h-8.2V14h23.3V19.1z"/>
	<path id="XMLID_11_" class="st1" d="M88,34.3c0-1-0.3-1.7-1-2.3c-0.7-0.5-1.9-1.1-3.7-1.7c-1.8-0.6-3.2-1.1-4.3-1.7
		c-3.6-1.8-5.4-4.2-5.4-7.2c0-1.5,0.5-2.9,1.4-4.1c0.9-1.2,2.2-2.1,3.8-2.7c1.6-0.7,3.5-1,5.6-1c2,0,3.8,0.4,5.4,1.1
		c1.6,0.7,2.8,1.7,3.7,3c0.9,1.3,1.3,2.8,1.3,4.5H88c0-1.1-0.3-2-1-2.6c-0.7-0.6-1.6-0.9-2.8-0.9c-1.2,0-2.2,0.3-2.8,0.8
		c-0.7,0.5-1,1.2-1,2c0,0.7,0.4,1.4,1.2,1.9c0.8,0.6,2.1,1.2,4,1.8c1.9,0.6,3.5,1.3,4.8,2c3,1.7,4.5,4.1,4.5,7.1
		c0,2.4-0.9,4.3-2.8,5.7c-1.8,1.4-4.4,2.1-7.6,2.1c-2.3,0-4.3-0.4-6.1-1.2c-1.8-0.8-3.2-1.9-4.1-3.3c-0.9-1.4-1.4-3-1.4-4.8h6.8
		c0,1.5,0.4,2.6,1.2,3.3c0.8,0.7,2,1.1,3.8,1.1c1.1,0,2-0.2,2.6-0.7C87.7,35.8,88,35.1,88,34.3z"/>
	<path id="XMLID_8_" class="st1" d="M121.6,28.4c0,2.7-0.5,5.1-1.5,7.2c-1,2.1-2.4,3.7-4.3,4.8c-1.9,1.1-4,1.7-6.4,1.7
		c-2.4,0-4.5-0.5-6.3-1.6c-1.8-1.1-3.3-2.6-4.3-4.6c-1-2-1.6-4.3-1.6-6.9v-1.6c0-2.7,0.5-5.1,1.5-7.2c1-2.1,2.4-3.7,4.3-4.8
		c1.9-1.1,4-1.7,6.4-1.7c2.4,0,4.5,0.6,6.3,1.7c1.9,1.1,3.3,2.7,4.3,4.8c1,2.1,1.6,4.4,1.6,7.1V28.4z M114.8,27.2
		c0-2.7-0.5-4.8-1.4-6.3c-0.9-1.4-2.3-2.1-4-2.1c-3.4,0-5.2,2.5-5.4,7.5l0,2c0,2.7,0.5,4.8,1.4,6.2c0.9,1.5,2.3,2.2,4,2.2
		c1.7,0,3-0.7,3.9-2.1c0.9-1.4,1.4-3.5,1.4-6.2V27.2z"/>
	<path id="XMLID_6_" class="st1" d="M131.6,36.5h11.7v5.1h-18.5V14h6.7V36.5z"/>
	<path id="XMLID_3_" class="st1" d="M167.8,28.4c0,2.7-0.5,5.1-1.5,7.2c-1,2.1-2.4,3.7-4.3,4.8c-1.9,1.1-4,1.7-6.4,1.7
		c-2.4,0-4.5-0.5-6.3-1.6c-1.8-1.1-3.3-2.6-4.3-4.6c-1-2-1.6-4.3-1.6-6.9v-1.6c0-2.7,0.5-5.1,1.5-7.2c1-2.1,2.4-3.7,4.3-4.8
		c1.9-1.1,4-1.7,6.4-1.7c2.4,0,4.5,0.6,6.3,1.7c1.9,1.1,3.3,2.7,4.3,4.8c1,2.1,1.6,4.4,1.6,7.1V28.4z M160.9,27.2
		c0-2.7-0.5-4.8-1.4-6.3c-0.9-1.4-2.3-2.1-4-2.1c-3.4,0-5.2,2.5-5.4,7.5l0,2c0,2.7,0.5,4.8,1.4,6.2c0.9,1.5,2.3,2.2,4,2.2
		c1.7,0,3-0.7,3.9-2.1c0.9-1.4,1.4-3.5,1.4-6.2V27.2z"/>
</g>
</svg>
