<?xml version="1.0" encoding="utf-8"?>
<!-- Generator: Adobe Illustrator 19.0.0, SVG Export Plug-In . SVG Version: 6.00 Build 0)  -->
<svg version="1.1" id="Слой_1" xmlns="http://www.w3.org/2000/svg" xmlns:xlink="http://www.w3.org/1999/xlink" x="0px" y="0px"
	 viewBox="0 0 63.8 9.4" style="enable-background:new 0 0 63.8 9.4;" xml:space="preserve">
<style type="text/css">
	.st0{fill-rule:evenodd;clip-rule:evenodd;fill:#344050;}
	.st1{fill:#344050;}
</style>
<g>
	<path class="st0" d="M50.9,9.3L52.3,2H54l0.2,0.7C54.5,2.3,55.1,2,56.1,2l-0.5,1.9c-0.5,0-1.4-0.1-2,2.1l-0.6,3.4H50.9L50.9,9.3z"
		/>
	<path class="st0" d="M24.3,0.1h2l-0.4,2h1.1l-0.4,1.6h-1l-0.6,3c-0.1,0.6-0.1,1.1,1.1,0.9L26,9c-0.4,0.3-1,0.4-1.5,0.4
		s-2-0.3-1.6-2.3L24.3,0.1L24.3,0.1z"/>
	<path class="st0" d="M32.9,5.9c0.2-2,0.8-4.1-2.7-4.1c-3.2,0-3.6,3.2-3.7,3.7c-0.1,0.5-0.1,3.7,3.3,3.7c0.8,0,2.1-0.1,2.6-0.3
		l0.3-1.5c-0.3,0.1-1.5,0.1-2.3,0.1s-2.1-0.7-1.8-1.7H32.9z M28.8,4.3C28.8,4.3,28.8,4.3,28.8,4.3L28.8,4.3z M28.8,4.4
		c0,0,0,0.1,0,0.2C28.8,4.5,28.8,4.4,28.8,4.4z M30.3,2.6c0.8,0,1,0.3,0.9,1.3h-2.5C28.9,2.9,29.5,2.6,30.3,2.6z"/>
	<path class="st0" d="M22.4,3.7l0.5-1.5c-1-0.4-1.7-0.3-2-0.3c-0.3,0-2.7,0-3.1,1.7C17.5,5,18,5.6,18.5,5.8c0.8,0.3,1.2,0.6,1.6,0.8
		c0.5,0.3,0.4,1.1-0.3,1.1c-0.3,0-1.6,0.2-2.6-0.2l-0.3,1.5c0.9,0.3,1.7,0.3,2.4,0.3c0.5,0,2.9,0.1,3.2-2.1c0.2-1.1-0.3-1.6-0.7-1.8
		c-0.4-0.3-1-0.6-1.4-0.8c-0.4-0.2-0.7-0.9,0-1.1C20.9,3.5,21.8,3.5,22.4,3.7C22.4,3.7,21.8,3.5,22.4,3.7L22.4,3.7z"/>
	<polygon class="st0" points="9.4,9.3 11,0.4 7.8,0.4 5.3,5.8 4.9,0.4 1.7,0.4 0,9.3 2,9.3 3.2,2.9 3.8,9.3 5.7,9.3 8.5,3.1 
		7.3,9.3 9.4,9.3 	"/>
	<g>
		<path class="st1" d="M11.7,2.1c0.1,0,0.1,0,0.2,0C11.8,2.1,11.8,2.1,11.7,2.1z"/>
		<path class="st1" d="M11.6,2.2C11.6,2.1,11.7,2.1,11.6,2.2C11.7,2.1,11.6,2.1,11.6,2.2z"/>
		<path class="st1" d="M11.6,2.2C11.6,2.2,11.6,2.2,11.6,2.2C11.6,2.2,11.6,2.2,11.6,2.2z"/>
		<path class="st1" d="M14.2,1.9c-0.6,0-1.3,0-2.6,0.3l-0.3,1.6c0.5-0.1,1.8-0.3,2.5-0.2c0.7,0,1.5-0.1,1.2,1
			c-0.5,0.1-4.1-0.5-4.7,2.6c-0.2,1.5,1.1,2.3,2.1,2.2c1-0.1,1.3-0.4,1.7-0.6l0.3,0.2h1.9L17,5.1C17.2,4.1,17.6,1.9,14.2,1.9z
			 M14.5,6.8c-0.1,0.7-1.1,1.1-1.7,0.8c-0.7-0.3-0.5-1,0.2-1.5C13.6,5.8,14.3,6,14.7,6L14.5,6.8z"/>
		<path class="st1" d="M11.9,2.1c0.1,0,0.2,0,0.2,0C12.1,2.1,12,2.1,11.9,2.1z"/>
	</g>
	<path class="st0" d="M44.1,2.5c-0.5-0.3-0.9-0.4-1.5-0.4c-0.7,0-2.2,0.6-2.4,2.4c-0.3,2.1,1.1,3.2,3.2,2.5l0.6,1.8
		c-0.7,0.3-1.3,0.5-2.4,0.5c-2.1,0-4.3-1.8-3.3-5.6C38.8,1,41.2,0,42.6,0c1.6,0.1,2.2,0.6,2.7,1.2L44.1,2.5L44.1,2.5z"/>
	<path class="st0" d="M61.7,0.9l-0.5,2.3c-0.4-0.3-0.6-1.1-1.6-1.1c-1.1,0-2.8-0.3-3.8,3c-0.7,2.2,0.7,4.2,2.1,4.2
		c0.7,0,1.3-0.5,1.7-0.8l0.3,0.4H62l1.7-8H61.7z M60.4,5.8c-0.4,0.9-0.8,1.5-1.6,1.5c-0.7,0-1.3-0.8-1-1.8c0.4-1.6,1.8-2.3,2.5-1.4
		C60.5,4.3,60.6,5.1,60.4,5.8z"/>
	<g>
		<path class="st1" d="M45.5,2.2c0.1,0,0.2,0,0.3-0.1C45.7,2.1,45.6,2.1,45.5,2.2z"/>
		<path class="st1" d="M45.8,2.1c0.1,0,0.2,0,0.2,0C46,2.1,45.9,2.1,45.8,2.1z"/>
		<path class="st1" d="M48.1,1.9c-0.6,0-1.3,0-2.6,0.3l-0.3,1.6c0.5-0.1,1.8-0.3,2.5-0.2c0.7,0,1.5-0.1,1.2,1
			c-0.5,0.1-4.1-0.5-4.7,2.6c-0.2,1.5,1.1,2.3,2.1,2.2c1-0.1,1.3-0.4,1.7-0.6l0.3,0.2h1.9l0.8-3.8C51.1,4.1,51.5,1.9,48.1,1.9z
			 M48.4,6.8c-0.1,0.7-1.1,1.1-1.7,0.8c-0.7-0.3-0.5-1,0.2-1.5C47.5,5.8,48.2,6,48.6,6L48.4,6.8z"/>
	</g>
	<path class="st0" d="M33,9.3L34.4,2h1.7l0.2,0.7C36.6,2.4,37.2,2,38.2,2L37.7,4c-0.5,0-1.4-0.2-2,2L35,9.3H33L33,9.3z"/>
</g>
</svg>
