<?xml version="1.0" encoding="utf-8"?>
<!-- Generator: Adobe Illustrator 19.0.0, SVG Export Plug-In . SVG Version: 6.00 Build 0)  -->
<svg version="1.1" id="Слой_1" xmlns="http://www.w3.org/2000/svg" xmlns:xlink="http://www.w3.org/1999/xlink" x="0px" y="0px"
	 viewBox="0 0 19 8.5" style="enable-background:new 0 0 19 8.5;" xml:space="preserve">
<style type="text/css">
	.st0{fill:none;stroke:#56606E;stroke-width:0.7876;stroke-miterlimit:10;}
	.st1{fill:none;stroke:#56606E;stroke-width:0.7034;stroke-miterlimit:10;}
	.st2{fill:none;stroke:#56606E;stroke-width:0.7876;stroke-linecap:round;stroke-linejoin:round;stroke-miterlimit:10;}
	.st3{fill:none;stroke:#56606E;stroke-width:0.7034;stroke-linecap:round;stroke-linejoin:round;stroke-miterlimit:10;}
	.st4{fill:none;stroke:#56606E;stroke-width:1.3336;stroke-linecap:round;stroke-miterlimit:10;}
</style>
<g id="XMLID_2_">
	<g id="XMLID_45_">
		<path id="XMLID_51_" class="st0" d="M16.3,6.4c0.2,0,0.6,0,0.8,0c0,0,0.7,0,0.8-0.2c0.1-0.1,0.3-0.8,0.3-1c0-0.3-0.3-1.3-0.7-1.6
			c-0.5-0.3-3.4-0.9-4-1c-0.6-0.1-1.8-1.7-2.8-1.8c-1-0.1-6.7,0.5-6.7,0.5c-0.2,0-0.5,0.1-0.7,0.3l-1.4,1C1.6,2.7,1.4,3,1.4,3.2
			L1.1,4.5c0,0.2,0,0.5,0.1,0.7l0.1,0.2c0.1,0.2,0.4,0.4,0.6,0.4l0.1,0C2.2,6,2.6,6,2.8,6.1"/>
		<path id="XMLID_50_" class="st0" d="M5.6,6.5l1.2,0.2c0.2,0,0.6,0.1,0.8,0l5.7-0.2"/>
		<circle id="XMLID_49_" class="st1" cx="14.8" cy="6.4" r="1.4"/>
		<circle id="XMLID_48_" class="st1" cx="4.2" cy="6.4" r="1.4"/>
		<line id="XMLID_47_" class="st2" x1="12" y1="3.2" x2="4.5" y2="2.7"/>
		<line id="XMLID_46_" class="st3" x1="4.9" y1="1.3" x2="1.4" y2="1.6"/>
	</g>
	<g id="XMLID_38_">
		<path id="XMLID_44_" class="st4" d="M16.3,6.4c0.2,0,0.6,0,0.8,0c0,0,0.7,0,0.8-0.2c0.1-0.1,0.3-0.8,0.3-1c0-0.3-0.3-1.3-0.7-1.6
			c-0.5-0.3-3.4-0.9-4-1c-0.6-0.1-1.8-1.7-2.8-1.8c-1-0.1-6.7,0.5-6.7,0.5c-0.2,0-0.5,0.1-0.7,0.3l-1.4,1C1.6,2.7,1.4,3,1.4,3.2
			L1.1,4.5c0,0.2,0,0.5,0.1,0.7l0.1,0.2c0.1,0.2,0.4,0.4,0.6,0.4l0.1,0C2.2,6,2.6,6,2.8,6.1"/>
		<path id="XMLID_43_" class="st4" d="M5.6,6.5l1.2,0.2c0.2,0,0.6,0.1,0.8,0l5.7-0.2"/>
		<circle id="XMLID_42_" class="st4" cx="14.8" cy="6.4" r="1.4"/>
		<circle id="XMLID_41_" class="st4" cx="4.2" cy="6.4" r="1.4"/>
		<line id="XMLID_40_" class="st4" x1="12" y1="3.2" x2="4.5" y2="2.7"/>
		<line id="XMLID_39_" class="st4" x1="4.9" y1="1.3" x2="1.4" y2="1.6"/>
	</g>
</g>
</svg>
