<?xml version="1.0" encoding="utf-8"?>
<!-- Generator: Adobe Illustrator 19.0.0, SVG Export Plug-In . SVG Version: 6.00 Build 0)  -->
<svg version="1.1" id="Слой_1" xmlns="http://www.w3.org/2000/svg" xmlns:xlink="http://www.w3.org/1999/xlink" x="0px" y="0px"
	 viewBox="0 0 45.8 10.7" style="enable-background:new 0 0 45.8 10.7;" xml:space="preserve">
<style type="text/css">
	.st0{fill:#344050;}
</style>
<path class="st0" d="M30.9,4.8c-0.4,0.3-1,0.5-1.8,0.5h-0.3c-0.3,0-0.5-0.2-0.4-0.5l0.4-1.8c0.1-0.3,0.4-0.5,0.7-0.5h0.5
	c0.5,0,0.9,0.1,1.2,0.3c0.3,0.2,0.4,0.5,0.4,0.8C31.6,4,31.3,4.4,30.9,4.8 M34,1.9c-0.2-0.3-0.4-0.6-0.8-0.8
	c-0.3-0.2-0.7-0.4-1.2-0.4c-0.5-0.1-1-0.1-1.7-0.1h-2.9c-0.3,0-0.6,0.2-0.7,0.5l-2,8.6c-0.1,0.3,0.1,0.5,0.4,0.5h1.4
	c0.3,0,0.6-0.2,0.7-0.5l0.5-2.1c0.1-0.3,0.4-0.5,0.7-0.5h0.4c1.7,0,3-0.4,4-1.1c1-0.7,1.4-1.6,1.4-2.8C34.2,2.7,34.1,2.3,34,1.9"/>
<path class="st0" d="M38.2,7.1c-0.2,0.2-0.5,0.3-0.7,0.4c-0.3,0.1-0.5,0.2-0.7,0.2c-0.3,0-0.6,0-0.8-0.2c-0.2-0.1-0.3-0.3-0.3-0.5
	c0-0.3,0.1-0.5,0.2-0.7C36,6.1,36.2,6,36.5,5.9c0.3-0.1,0.6-0.2,0.9-0.2c0.4,0,0.7-0.1,1.2-0.1L38.2,7.1z M37.8,9h1.8
	c0.3,0,0.6-0.2,0.7-0.5l1-4.4c0-0.1,0-0.2,0.1-0.4c0-0.1,0-0.2,0-0.3c0-0.6-0.3-1.1-0.8-1.4C40,1.7,39.2,1.5,38,1.5
	c-0.6,0-1.1,0-1.7,0.1c-0.6,0.1-1,0.2-1.3,0.2l-0.2,1.2c-0.1,0.3,0,0.5,0.1,0.5c0.2-0.1,0.6-0.2,1-0.3c0.5-0.1,0.9-0.2,1.3-0.2
	c0.6,0,1,0.1,1.3,0.2c0.3,0.1,0.4,0.3,0.4,0.6c0,0.1,0,0.1,0,0.2c0,0.1,0,0.1,0,0.1c-0.8,0-1.5,0.1-2.2,0.2C36,4.6,35.4,4.7,34.9,5
	c-0.5,0.2-0.9,0.6-1.2,1c-0.3,0.4-0.4,0.9-0.4,1.5c0,0.5,0.2,1,0.6,1.3c0.4,0.3,0.9,0.5,1.5,0.5c0.4,0,0.7,0,0.9-0.1
	c0.2-0.1,0.4-0.1,0.7-0.2c0.2-0.1,0.4-0.2,0.6-0.3c0.2-0.1,0.4-0.3,0.5-0.3L37.8,9"/>
<path class="st0" d="M45.8,0.6l-2,9c-0.1,0.3-0.4,0.5-0.7,0.5h-1.3c-0.3,0-0.5-0.2-0.4-0.5l1.9-8.5c0.1-0.3,0.4-0.5,0.7-0.5H45.8"/>
<path class="st0" d="M6.2,4.8c-0.4,0.3-1,0.5-1.8,0.5H4.1C3.8,5.2,3.6,5,3.7,4.7l0.4-1.8c0.1-0.3,0.4-0.5,0.7-0.5h0.5
	c0.5,0,0.9,0.1,1.2,0.3c0.3,0.2,0.4,0.5,0.4,0.8C6.8,4,6.6,4.4,6.2,4.8 M9.2,1.9C9.1,1.6,8.8,1.3,8.5,1.1C8.1,0.9,7.7,0.8,7.2,0.7
	c-0.5-0.1-1-0.1-1.7-0.1H2.7C2.4,0.5,2.1,0.8,2,1.1L0,9.7c-0.1,0.3,0.1,0.5,0.4,0.5h1.4c0.3,0,0.6-0.2,0.7-0.5L3,7.6
	c0.1-0.3,0.4-0.5,0.7-0.5h0.4c1.7,0,3-0.4,4-1.1s1.4-1.6,1.4-2.8C9.5,2.7,9.4,2.3,9.2,1.9"/>
<path class="st0" d="M13.5,7.1c-0.2,0.2-0.5,0.3-0.7,0.4c-0.3,0.1-0.5,0.2-0.7,0.2c-0.3,0-0.6-0.1-0.8-0.2C11.1,7.4,11,7.3,11,7
	c0-0.3,0.1-0.5,0.2-0.7c0.1-0.2,0.3-0.3,0.6-0.4c0.3-0.1,0.6-0.2,0.9-0.2c0.4,0,0.8-0.1,1.2-0.1L13.5,7.1z M13.1,9h1.8
	c0.3,0,0.6-0.2,0.7-0.5l1-4.4c0-0.1,0-0.2,0.1-0.4c0-0.1,0-0.2,0-0.3c0-0.6-0.3-1.1-0.8-1.4c-0.5-0.3-1.4-0.4-2.5-0.4
	c-0.6,0-1.1,0-1.7,0.1c-0.6,0.1-1,0.2-1.3,0.2l-0.2,1.2c-0.1,0.3,0,0.5,0.1,0.5c0.2-0.1,0.6-0.2,1-0.3c0.5-0.1,0.9-0.2,1.3-0.2
	c0.6,0,1,0.1,1.3,0.2c0.3,0.1,0.4,0.3,0.4,0.6c0,0.1,0,0.1,0,0.2c0,0.1,0,0.1,0,0.1c-0.8,0-1.5,0.1-2.2,0.2
	c-0.7,0.1-1.3,0.3-1.8,0.5c-0.5,0.2-0.9,0.6-1.2,1C8.7,6.3,8.5,6.8,8.5,7.4c0,0.5,0.2,1,0.6,1.3c0.4,0.3,0.9,0.5,1.5,0.5
	c0.4,0,0.7,0,0.9-0.1c0.2-0.1,0.4-0.1,0.7-0.2c0.2-0.1,0.4-0.2,0.6-0.3c0.2-0.1,0.4-0.3,0.5-0.4L13.1,9"/>
<path class="st0" d="M23.7,0c-0.3,0-0.7,0.2-0.9,0.5l-2.5,4.3l-0.7-4.2C19.6,0.2,19.3,0,19,0h-1.3c-0.3,0-0.5,0.2-0.4,0.5l1.1,7
	c0,0.2,0,0.3,0.1,0.4l-1.3,2.3c-0.2,0.3-0.1,0.5,0.2,0.5h1.4c0.3,0,0.7-0.2,0.9-0.5l6-10.2H23.7z"/>
</svg>
