<?xml version="1.0" encoding="utf-8"?>
<!-- Generator: Adobe Illustrator 19.0.0, SVG Export Plug-In . SVG Version: 6.00 Build 0)  -->
<svg version="1.1" id="Слой_1" xmlns="http://www.w3.org/2000/svg" xmlns:xlink="http://www.w3.org/1999/xlink" x="0px" y="0px"
	 viewBox="0 0 53.8 15.1" style="enable-background:new 0 0 53.8 15.1;" xml:space="preserve">
<style type="text/css">
	.st0{fill-rule:evenodd;clip-rule:evenodd;fill:#344050;}
</style>
<path class="st0" d="M47.7,3c-0.6-0.3-1.6-0.5-2.9-0.5c-0.6,0-1.3,0.1-2,0.2c-0.5,0.1-0.5,0.1-0.8,0.2c-0.6,0.1-0.7,0.7-0.7,0.7
	l-0.2,0.8c-0.1,0.5,0.2,0.5,0.3,0.5c0.3-0.1,0.4-0.2,1-0.3C43,4.4,43.5,4.4,44,4.4c0.6,0,1.1,0.1,1.5,0.2c0.3,0.1,0.5,0.4,0.5,0.7
	c0,0.1,0,0.2,0,0.2c0,0.1-0.1,0.1-0.2,0.1c-0.9,0.1-1.6,0.1-2.4,0.3c-0.8,0.1-1.5,0.3-2.1,0.6c-0.6,0.3-1.1,0.6-1.4,1.1
	c-0.3,0.5-0.5,1-0.5,1.7c0,0.6,0.2,1.1,0.7,1.5c0.4,0.4,1,0.6,1.7,0.6c0.4,0,0.8,0,1-0.1c0.2-0.1,0.5-0.1,0.8-0.3
	c0.2-0.1,0.4-0.2,0.7-0.4c0.2-0.2,0.4-0.3,0.6-0.4l0,0l-0.1,0.3c0,0,0,0,0,0l0,0c-0.1,0.3,0.1,0.6,0.4,0.6l0,0h0l0,0
	c0.2,0,0.9,0,1.2,0h0.2c0,0,0,0,0,0c0.3,0,0.6-0.3,0.7-0.6l1.2-5.1c0-0.1,0-0.3,0.1-0.4c0-0.2,0-0.3,0-0.4C48.7,3.9,48.4,3.4,47.7,3
	 M45.5,7.4c0,0.1-0.2,1-0.3,1.4c0,0.1-0.2,0.3-0.3,0.3c-0.2,0.1-0.4,0.2-0.6,0.3c-0.3,0.1-0.6,0.2-0.8,0.2c-0.4,0-0.7-0.1-0.9-0.2
	c-0.2-0.1-0.3-0.3-0.3-0.6c0-0.3,0.1-0.6,0.2-0.8c0.2-0.2,0.4-0.3,0.7-0.5c0.3-0.1,0.7-0.2,1.1-0.2c0.4,0,1.1-0.1,1.2-0.1
	C45.5,7.2,45.5,7.2,45.5,7.4"/>
<path class="st0" d="M29.4,2.6c-0.4,0-1.9,0-1.9,0c-0.3,0-0.8,0.3-1,0.6c0,0-2.3,4-2.5,4.4c-0.1,0.2-0.2,0.1-0.3,0
	c0-0.1-0.7-4.3-0.7-4.3c-0.1-0.3-0.4-0.6-0.9-0.6l-1.4,0c-0.3,0-0.6,0.3-0.5,0.6c0,0,1.1,6.3,1.3,7.7c0.1,0.8,0,1,0,1L20,14.4
	c-0.2,0.3-0.1,0.6,0.3,0.6l1.7,0c0.3,0,0.8-0.3,1-0.6l6.4-10.9C29.3,3.6,30,2.6,29.4,2.6"/>
<path class="st0" d="M10.6,1.6c-0.2-0.4-0.5-0.7-0.9-1C9.3,0.4,8.9,0.3,8.3,0.2C7.8,0.1,7.2,0,6.4,0L3.1,0C2.7,0,2.4,0.3,2.3,0.6
	L0,10.5c-0.1,0.3,0.1,0.6,0.5,0.6h1.6c0.4,0,0.7-0.3,0.8-0.6l0.6-2.4c0.1-0.3,0.4-0.6,0.8-0.6h0.5c2,0,3.5-0.4,4.6-1.2
	c1.1-0.8,1.6-1.9,1.6-3.2C10.9,2.5,10.8,2,10.6,1.6 M7.1,4.8C6.7,5.2,6,5.4,5.1,5.4H4.7c-0.3,0-0.6-0.3-0.5-0.6l0.5-2.1
	c0.1-0.3,0.4-0.6,0.8-0.6l0.5,0c0.6,0,1.1,0.1,1.4,0.3c0.3,0.2,0.5,0.5,0.5,1C7.9,4,7.6,4.5,7.1,4.8"/>
<path class="st0" d="M40,1.7c-0.2-0.4-0.5-0.7-0.9-1c-0.4-0.2-0.9-0.4-1.4-0.5C37.1,0.1,36.5,0,35.8,0l-3.4,0
	c-0.3,0-0.7,0.3-0.8,0.6l-2.3,9.9c-0.1,0.3,0.1,0.6,0.5,0.6l1.6,0c0.3,0,0.7-0.3,0.8-0.6l0.5-2.4c0.1-0.3,0.4-0.6,0.8-0.6H34
	c2,0,3.5-0.4,4.6-1.2c1.1-0.8,1.6-1.9,1.6-3.2C40.3,2.5,40.2,2,40,1.7 M36.5,4.9c-0.5,0.4-1.2,0.5-2,0.5H34c-0.3,0-0.6-0.3-0.5-0.6
	L34,2.7c0.1-0.3,0.4-0.6,0.8-0.6l0.5,0c0.6,0,1.1,0.1,1.4,0.3c0.3,0.2,0.5,0.5,0.5,1C37.2,4,37,4.5,36.5,4.9"/>
<path class="st0" d="M18.4,3c-0.6-0.3-1.6-0.5-2.9-0.5c-0.6,0-1.3,0.1-2,0.2c-0.5,0.1-0.5,0.1-0.8,0.1C12.1,3,12,3.6,12,3.6
	l-0.2,0.8c-0.1,0.5,0.2,0.5,0.3,0.5c0.3-0.1,0.4-0.2,1-0.3c0.5-0.1,1.1-0.2,1.5-0.2c0.6,0,1.1,0.1,1.5,0.2c0.3,0.1,0.5,0.4,0.5,0.7
	c0,0.1,0,0.2,0,0.2c0,0.1-0.1,0.1-0.2,0.1c-0.9,0.1-1.6,0.1-2.4,0.3c-0.8,0.1-1.5,0.3-2.1,0.6c-0.6,0.3-1.1,0.6-1.4,1.1
	C10.2,8,10,8.6,10,9.3c0,0.6,0.2,1.1,0.7,1.5c0.4,0.4,1,0.6,1.7,0.6c0.4,0,0.8,0,1-0.1c0.2-0.1,0.5-0.1,0.8-0.3
	c0.2-0.1,0.4-0.2,0.7-0.4c0.2-0.2,0.4-0.3,0.6-0.4l0,0l-0.1,0.3c0,0,0,0,0,0l0,0c-0.1,0.3,0.1,0.6,0.4,0.6l0,0h0l0,0
	c0.2,0,0.9,0,1.2,0h0.2c0,0,0,0,0,0c0.3,0,0.6-0.3,0.7-0.6l1.2-5.1c0-0.1,0-0.3,0.1-0.4c0-0.2,0-0.3,0-0.4C19.3,3.9,19,3.4,18.4,3
	 M16.1,7.4c0,0.1-0.2,1-0.3,1.4c0,0.1-0.2,0.3-0.3,0.3c-0.2,0.1-0.4,0.2-0.6,0.3c-0.3,0.1-0.6,0.2-0.8,0.2c-0.4,0-0.7-0.1-0.9-0.2
	c-0.2-0.1-0.3-0.3-0.3-0.6c0-0.3,0.1-0.6,0.2-0.8c0.2-0.2,0.4-0.3,0.7-0.5c0.3-0.1,0.7-0.2,1.1-0.2c0.4,0,1.1-0.1,1.2-0.1
	C16.1,7.2,16.2,7.2,16.1,7.4"/>
<path class="st0" d="M53.3,0.1h-1.4h0h0c-0.3,0-0.7,0.3-0.8,0.6c0,0,0,0,0,0c0,0,0,0.2-0.1,0.4l-2,9c0,0.2-0.1,0.3-0.1,0.4l0,0
	c-0.1,0.3,0.1,0.6,0.4,0.6l0,0h1.5c0.3,0,0.7-0.3,0.8-0.6c0,0,0,0,0,0l2.2-9.8l0,0C53.9,0.4,53.7,0.1,53.3,0.1"/>
</svg>
