<?xml version="1.0" encoding="utf-8"?>
<!-- Generator: Adobe Illustrator 19.0.0, SVG Export Plug-In . SVG Version: 6.00 Build 0)  -->
<svg version="1.1" id="Слой_1" xmlns="http://www.w3.org/2000/svg" xmlns:xlink="http://www.w3.org/1999/xlink" x="0px" y="0px"
	 viewBox="0 0 72 20.3" style="enable-background:new 0 0 72 20.3;" xml:space="preserve">
<style type="text/css">
	.st0{fill:#56606E;}
</style>
<g>
	<path class="st0" d="M48.6,6.6c-0.7,0.5-1.6,0.7-2.8,0.7h-0.5c-0.5,0-0.8-0.4-0.7-0.8l0.7-2.9c0.1-0.5,0.6-0.8,1.1-0.8H47
		c0.8,0,1.5,0.1,1.9,0.4c0.4,0.3,0.6,0.7,0.6,1.3C49.6,5.4,49.3,6.1,48.6,6.6 M53.3,2.2c-0.3-0.5-0.7-1-1.2-1.3
		c-0.5-0.3-1.2-0.6-1.9-0.7C49.5,0.1,48.6,0,47.6,0H43c-0.5,0-0.9,0.4-1.1,0.8l-3.1,13.5c-0.1,0.5,0.2,0.8,0.7,0.8h2.2
		c0.5,0,0.9-0.4,1.1-0.8l0.8-3.3c0.1-0.5,0.6-0.8,1.1-0.8h0.6c2.7,0,4.8-0.6,6.3-1.7C53,7.5,53.8,6,53.8,4.2
		C53.8,3.4,53.6,2.7,53.3,2.2"/>
	<path class="st0" d="M60.1,12.2c-0.4,0.3-0.7,0.5-1.2,0.6c-0.4,0.2-0.8,0.3-1.1,0.3c-0.5,0-1-0.1-1.3-0.2c-0.3-0.2-0.4-0.4-0.4-0.8
		c0-0.4,0.1-0.8,0.3-1.1c0.2-0.3,0.5-0.5,0.9-0.6c0.4-0.1,0.9-0.2,1.5-0.3c0.6-0.1,1.2-0.1,1.8-0.2L60.1,12.2z M59.4,15.2h2.8
		c0.5,0,0.9-0.4,1.1-0.8l1.6-6.9c0-0.2,0.1-0.4,0.1-0.6c0-0.2,0-0.4,0-0.5c0-1-0.4-1.7-1.3-2.2c-0.8-0.5-2.1-0.7-3.9-0.7
		c-0.9,0-1.8,0.1-2.7,0.2c-0.9,0.1-1.6,0.3-2,0.4l-0.4,1.9c-0.1,0.5,0,0.8,0.2,0.8c0.4-0.1,0.9-0.3,1.6-0.5c0.7-0.2,1.4-0.3,2-0.3
		c0.9,0,1.6,0.1,2,0.3c0.4,0.2,0.7,0.5,0.7,1c0,0.1,0,0.2,0,0.3c0,0.1,0,0.2,0,0.2c-1.3,0.1-2.4,0.2-3.5,0.3c-1.1,0.2-2,0.4-2.8,0.8
		c-0.8,0.4-1.5,0.9-1.9,1.5c-0.4,0.6-0.6,1.4-0.6,2.3c0,0.9,0.3,1.6,0.9,2.1c0.6,0.5,1.4,0.8,2.3,0.8c0.6,0,1,0,1.4-0.1
		c0.3-0.1,0.7-0.2,1.1-0.4c0.3-0.1,0.6-0.3,0.9-0.5c0.3-0.2,0.6-0.4,0.8-0.5L59.4,15.2"/>
	<path class="st0" d="M72,0.1l-3.1,14.2c-0.1,0.5-0.6,0.8-1.1,0.8h-2c-0.5,0-0.8-0.4-0.7-0.8l3-13.4c0.1-0.5,0.6-0.8,1.1-0.8H72"/>
	<path class="st0" d="M9.7,6.6C9.1,7.1,8.2,7.4,7,7.4H6.4C5.9,7.4,5.6,7,5.8,6.5l0.7-2.9C6.5,3.2,7,2.8,7.5,2.8h0.7
		C9,2.8,9.7,3,10.1,3.3c0.4,0.3,0.6,0.7,0.6,1.3C10.7,5.5,10.4,6.2,9.7,6.6 M14.5,2.2c-0.3-0.5-0.7-1-1.2-1.3
		c-0.5-0.3-1.2-0.6-1.9-0.7C10.6,0.1,9.8,0,8.8,0H4.2C3.7,0,3.2,0.4,3.1,0.9L0,14.4c-0.1,0.5,0.2,0.8,0.7,0.8h2.2
		c0.5,0,0.9-0.4,1.1-0.8l0.8-3.3c0.1-0.5,0.6-0.8,1.1-0.8h0.6c2.7,0,4.8-0.6,6.3-1.7c1.5-1.1,2.2-2.6,2.2-4.4
		C14.9,3.4,14.8,2.8,14.5,2.2"/>
	<path class="st0" d="M21.2,12.2c-0.4,0.3-0.7,0.5-1.2,0.6c-0.4,0.2-0.8,0.2-1.2,0.2c-0.5,0-1-0.1-1.3-0.2c-0.3-0.2-0.4-0.4-0.4-0.8
		c0-0.4,0.1-0.8,0.3-1.1c0.2-0.3,0.5-0.5,0.9-0.6c0.4-0.1,0.9-0.3,1.4-0.3c0.6-0.1,1.2-0.1,1.8-0.2L21.2,12.2z M20.5,15.2h2.8
		c0.5,0,0.9-0.4,1.1-0.8l1.6-7c0-0.2,0.1-0.4,0.1-0.6c0-0.2,0-0.4,0-0.5c0-1-0.4-1.7-1.3-2.2c-0.8-0.5-2.1-0.7-3.9-0.7
		c-0.9,0-1.8,0.1-2.7,0.2c-0.9,0.1-1.6,0.3-2,0.4l-0.4,1.9c-0.1,0.5,0,0.8,0.2,0.8c0.4-0.1,0.9-0.3,1.6-0.5c0.7-0.2,1.4-0.3,2-0.3
		c0.9,0,1.5,0.1,2,0.3c0.4,0.2,0.7,0.5,0.7,1c0,0.1,0,0.2,0,0.3c0,0.1,0,0.2,0,0.2c-1.3,0.1-2.4,0.2-3.5,0.3c-1.1,0.2-2,0.4-2.8,0.8
		c-0.8,0.4-1.5,0.9-1.9,1.5c-0.4,0.6-0.6,1.4-0.6,2.3c0,0.9,0.3,1.6,0.9,2.1c0.6,0.5,1.4,0.8,2.3,0.8c0.6,0,1,0,1.4-0.1
		c0.3-0.1,0.7-0.2,1.1-0.4c0.3-0.1,0.6-0.3,0.9-0.5c0.3-0.2,0.6-0.4,0.8-0.6L20.5,15.2"/>
	<path class="st0" d="M37.3,3.4c-0.5,0-1.1,0.4-1.4,0.8L32,10.9L31,4.3c-0.1-0.5-0.6-0.8-1.1-0.8h-2c-0.5,0-0.8,0.4-0.7,0.8l1.7,11
		c0,0.2,0.1,0.4,0.1,0.6l-2.1,3.6c-0.3,0.5-0.1,0.8,0.3,0.8h2.3c0.5,0,1.1-0.4,1.4-0.8l9.5-16H37.3z"/>
</g>
</svg>
