<?xml version="1.0" encoding="utf-8"?>
<!-- Generator: Adobe Illustrator 16.0.0, SVG Export Plug-In . SVG Version: 6.00 Build 0)  -->
<!DOCTYPE svg PUBLIC "-//W3C//DTD SVG 1.1//EN" "http://www.w3.org/Graphics/SVG/1.1/DTD/svg11.dtd">
<svg version="1.1" id="Layer_1" xmlns="http://www.w3.org/2000/svg" xmlns:xlink="http://www.w3.org/1999/xlink" x="0px" y="0px"
	 width="96.129px" height="24.887px" viewBox="0 0 96.129 24.887" enable-background="new 0 0 96.129 24.887" xml:space="preserve">
<g>
	<path fill="#fff" d="M13.026,7.167c0.011-0.725,0.171-1.279,0.487-1.658c0.162-0.16,0.37-0.29,0.62-0.401
		c0.26-0.114,0.51-0.168,0.755-0.168h2.964c1.308,0.011,1.97,0.724,1.994,2.144v4.373c-0.011,0.502-0.207,0.939-0.591,1.307
		c-0.378,0.383-0.83,0.578-1.354,0.592H15.1v3.15h-2.073V7.167z M17.771,7.579c-0.011-0.328-0.167-0.5-0.47-0.514h-1.612
		C15.306,7.091,15.11,7.3,15.1,7.694v2.901c0.011,0.409,0.228,0.618,0.652,0.628h1.479c0.152,0,0.282-0.059,0.383-0.175
		c0.106-0.085,0.157-0.198,0.157-0.337V7.579z"/>
	<path fill="#fff" d="M26.279,7.527c0.01-0.319-0.175-0.471-0.559-0.462h-4.174V4.939h4.699c1.37,0.021,2.064,0.683,2.087,1.988
		v4.452c-0.01,0.565-0.182,1.027-0.519,1.399c-0.349,0.384-0.8,0.575-1.354,0.575h-2.842c-1.383-0.014-2.084-0.643-2.106-1.898
		V9.739c0.012-1.314,0.681-1.981,2.007-2.003h2.76V7.527z M23.588,10.802c0,0.122,0.055,0.22,0.166,0.291
		c0.098,0.086,0.219,0.131,0.375,0.131h1.592c0.361,0,0.546-0.14,0.559-0.422v-0.596c0-0.321-0.19-0.486-0.572-0.486h-1.578
		c-0.207,0-0.35,0.035-0.43,0.1c-0.074,0.078-0.111,0.229-0.111,0.456V10.802z"/>
	<path fill="#fff" d="M34.157,14.376c0.166-0.01,0.304-0.072,0.422-0.176c0.111-0.102,0.166-0.211,0.166-0.342v-0.197v-0.307
		h-2.652c-0.347,0-0.627-0.043-0.83-0.13c-0.217-0.085-0.437-0.231-0.653-0.442c-0.208-0.227-0.357-0.461-0.448-0.705
		c-0.095-0.226-0.144-0.514-0.144-0.854V4.939h2.075v5.61c0,0.449,0.185,0.674,0.555,0.674h1.464c0.174,0,0.325-0.059,0.45-0.175
		c0.122-0.095,0.184-0.214,0.184-0.354v-0.227V4.939h2.056v9.272c-0.012,0.687-0.186,1.234-0.526,1.652
		c-0.346,0.414-0.817,0.632-1.417,0.641h-4.84v-2.129H34.157z"/>
	<path fill="#fff" d="M38.429,11.224h3.694c0.339-0.01,0.512-0.148,0.524-0.406v-0.189c0-0.057-0.018-0.119-0.049-0.184
		c-0.083-0.16-0.186-0.242-0.306-0.242h-0.221h-1.61c-0.542-0.012-1.008-0.199-1.396-0.559c-0.394-0.336-0.597-0.744-0.608-1.227
		V6.833c0.022-1.246,0.695-1.872,2.021-1.894h4.284v2.126h-3.629c-0.427,0-0.641,0.134-0.641,0.391V7.66
		c0,0.272,0.219,0.409,0.656,0.409h1.824c0.487,0.009,0.902,0.199,1.247,0.56c0.35,0.366,0.529,0.804,0.542,1.308v1.555
		c-0.013,0.434-0.214,0.867-0.602,1.303c-0.19,0.217-0.383,0.361-0.578,0.447c-0.198,0.072-0.472,0.113-0.819,0.113h-4.334V11.224z"
		/>
	<path fill="#fff" d="M51.002,7.527c0.01-0.319-0.177-0.471-0.559-0.462h-4.176V4.939h4.704c1.368,0.021,2.063,0.683,2.084,1.988
		v4.452c-0.011,0.565-0.185,1.027-0.519,1.399c-0.347,0.384-0.8,0.575-1.354,0.575h-2.843c-1.383-0.014-2.085-0.643-2.104-1.898
		V9.739c0.01-1.314,0.68-1.981,2.01-2.003h2.756V7.527z M48.31,10.802c0,0.122,0.054,0.22,0.168,0.291
		c0.097,0.086,0.221,0.131,0.373,0.131h1.595c0.361,0,0.546-0.14,0.557-0.422v-0.596c0-0.321-0.192-0.486-0.574-0.486h-1.577
		c-0.208,0-0.35,0.035-0.429,0.1c-0.074,0.078-0.112,0.229-0.112,0.456V10.802z"/>
	<path fill="#fff" d="M54.74,3.727c0.012-0.572,0.226-1.032,0.641-1.377c0.401-0.354,0.932-0.536,1.585-0.544h1.317v2.059h-0.798
		c-0.438,0.006-0.661,0.217-0.67,0.623v0.452h1.468v2.126h-1.468v6.289H54.74V3.727z"/>
	<path fill="#fff" d="M61.612,10.495v0.133c0,0.174,0.043,0.309,0.136,0.404c0.063,0.128,0.151,0.191,0.269,0.191h0.26h3.996
		v2.131h-4.524c-0.415,0-0.737-0.041-0.963-0.117c-0.25-0.082-0.473-0.217-0.668-0.4c-0.228-0.229-0.384-0.453-0.461-0.692
		c-0.087-0.247-0.128-0.573-0.128-0.979L59.51,6.906c0.024-1.292,0.697-1.945,2.019-1.967h2.793
		c1.292,0.021,1.946,0.696,1.967,2.033v1.687L61.612,10.495z M64.179,7.487V7.438c0-0.111-0.044-0.2-0.133-0.271
		c-0.098-0.068-0.216-0.102-0.358-0.102h-1.443c-0.185,0-0.334,0.055-0.449,0.159c-0.143,0.099-0.216,0.228-0.216,0.386v0.858
		L64.179,7.487z"/>
	<path fill="#fff" d="M70.676,13.354c-0.314,0-0.6-0.028-0.859-0.082c-0.273-0.045-0.543-0.172-0.821-0.385
		c-0.286-0.246-0.481-0.529-0.59-0.832c-0.114-0.301-0.168-0.643-0.168-1.029V7.05c-0.013-0.32,0.021-0.605,0.098-0.852
		c0.069-0.248,0.214-0.49,0.437-0.722c0.251-0.247,0.51-0.417,0.781-0.497c0.261-0.064,0.557-0.1,0.887-0.1h3.176v0.5h-3.103
		c-0.548,0-0.978,0.113-1.292,0.338c-0.323,0.248-0.488,0.668-0.488,1.264v3.979c0,0.283,0.043,0.553,0.129,0.818
		c0.088,0.258,0.231,0.481,0.44,0.682c0.226,0.17,0.449,0.276,0.669,0.322c0.229,0.049,0.475,0.073,0.732,0.073h2.963v0.499H70.676z
		"/>
	<path fill="#fff" d="M82.281,11.06c0,0.32-0.023,0.602-0.063,0.85c-0.069,0.268-0.206,0.528-0.415,0.772
		c-0.436,0.458-0.975,0.685-1.617,0.673h-2.478c-0.644,0-1.164-0.191-1.569-0.575c-0.413-0.377-0.621-0.901-0.621-1.577V9.92
		c0.02-1.446,0.741-2.187,2.16-2.219h4.125v-0.56c0-0.467-0.133-0.87-0.398-1.218c-0.17-0.227-0.37-0.374-0.597-0.45
		C80.578,5.407,80.32,5.38,80.033,5.38h-4.501v-0.5h4.266c0.393,0,0.745,0.029,1.063,0.084c0.164,0.032,0.313,0.096,0.453,0.189
		c0.146,0.087,0.281,0.221,0.407,0.387c0.382,0.492,0.569,1.061,0.56,1.701V11.06z M81.788,8.196h-4.167
		c-0.496,0.014-0.888,0.17-1.17,0.463c-0.291,0.301-0.435,0.716-0.435,1.24v1.273c0,0.244,0.025,0.466,0.077,0.671
		c0.053,0.212,0.185,0.401,0.391,0.563c0.36,0.302,0.757,0.448,1.193,0.448h2.523c1.055-0.009,1.587-0.568,1.587-1.669V8.196z"/>
	<path fill="#fff" d="M86.942,5.38c-1.158,0.021-1.727,0.652-1.704,1.893v6.082h-0.497v-6.08
		c-0.023-1.598,0.736-2.395,2.28-2.395h0.551v0.5H86.942z"/>
	<path fill="#fff" d="M95.827,10.999c-0.043,1.604-0.894,2.389-2.547,2.355h-1.84c-0.391,0-0.736-0.031-1.044-0.095
		c-0.316-0.081-0.619-0.278-0.912-0.578c-0.22-0.266-0.359-0.54-0.416-0.82c-0.075-0.28-0.108-0.591-0.098-0.933V7.31
		c0.022-1.627,0.844-2.441,2.466-2.428h3.895V2.137h0.496V10.999z M95.331,5.383h-3.926c-0.282,0-0.536,0.032-0.765,0.091
		c-0.239,0.057-0.47,0.203-0.687,0.434c-0.206,0.217-0.337,0.431-0.393,0.645c-0.071,0.216-0.104,0.471-0.093,0.771v3.879
		c0,0.645,0.187,1.085,0.563,1.315c0.188,0.112,0.393,0.196,0.624,0.249c0.229,0.064,0.483,0.093,0.766,0.093h1.716
		c0.642,0,1.168-0.147,1.569-0.443c0.404-0.279,0.61-0.767,0.624-1.448V5.383z"/>
	<path fill="#fff" d="M1.512,4.619C1.674,4.546,1.839,4.49,2.001,4.456C2.299,3.029,3.564,1.954,5.08,1.954
		c1.52,0,2.785,1.075,3.084,2.502c0.466,0.09,0.852,0.279,1.151,0.555c0.011-0.271,0.001-0.537-0.031-0.787
		C9.092,2.066,7.282,0.372,5.075,0.372c-2.273,0-4.122,1.803-4.219,4.051C0.843,4.619,0.84,4.821,0.846,5.036
		C1.038,4.874,1.255,4.729,1.512,4.619"/>
	<path fill="#fff" d="M7.548,4.939H2.484c-0.244,0-0.497,0.054-0.754,0.168C1.478,5.219,1.271,5.349,1.108,5.509
		C0.794,5.888,0.631,6.442,0.62,7.167v3.957c0.011,0.728,0.174,1.278,0.488,1.655c0.163,0.16,0.369,0.294,0.622,0.404
		c0.257,0.114,0.51,0.171,0.754,0.171h5.063c1.308-0.014,1.973-0.729,1.994-2.146V7.083C9.521,5.663,8.855,4.95,7.548,4.939"/>
	<path fill="#fff" d="M38.519,24.743v-4.256c0-0.07,0.008-0.135,0.014-0.199c0.064-0.506,0.265-0.724,0.729-0.812
		c0.042-0.007,0.091-0.019,0.134-0.019h1.396c0.07,0,0.135,0.012,0.197,0.025c0.492,0.086,0.742,0.398,0.742,0.963v1.992
		c0,0.154-0.059,0.327-0.178,0.483c-0.039,0.042-0.072,0.085-0.108,0.119c-0.185,0.171-0.398,0.267-0.627,0.267h-1.323v1.436
		C39.487,24.715,38.519,24.743,38.519,24.743 M39.502,22.095c0.021,0.145,0.092,0.207,0.241,0.231
		c0.014,0.007,0.035,0.007,0.058,0.007h0.696h0.044c0.07-0.018,0.122-0.045,0.154-0.086c0.037-0.059,0.057-0.111,0.057-0.146v-1.432
		v-0.034c-0.02-0.112-0.061-0.16-0.182-0.188c-0.015-0.008-0.022-0.008-0.035-0.008h-0.765c-0.119,0-0.19,0.049-0.241,0.165
		c-0.027,0.056-0.035,0.089-0.035,0.125v1.312C39.494,22.058,39.494,22.077,39.502,22.095"/>
	<path fill="#fff" d="M42.396,22.438v-0.782c0-0.578,0.359-0.915,0.941-0.915h1.303l-0.006-0.205c0-0.09-0.065-0.125-0.206-0.149
		h-0.052h-1.964v-0.929h2.214c0.057,0,0.113,0.012,0.171,0.019c0.492,0.058,0.72,0.265,0.794,0.72
		c0.019,0.057,0.019,0.115,0.019,0.17v2.033c0,0.06,0,0.123-0.019,0.182c-0.082,0.439-0.423,0.727-0.866,0.727H43.39
		c-0.57,0-0.893-0.249-0.977-0.702C42.418,22.552,42.396,22.438,42.396,22.438 M43.424,22.269c0.028,0.041,0.077,0.071,0.15,0.088
		c0.019,0.002,0.035,0.002,0.049,0.002h0.762c0.093,0,0.149-0.019,0.193-0.067c0.033-0.044,0.057-0.098,0.057-0.155v-0.267
		c0-0.122-0.008-0.134-0.123-0.194c-0.027-0.019-0.064-0.027-0.135-0.027h-0.812l-0.042,0.009c-0.094,0.014-0.134,0.054-0.15,0.185
		v0.057v0.238C43.373,22.166,43.39,22.228,43.424,22.269"/>
	<path fill="#fff" d="M46.277,24.743v-0.973h1.952c0.021,0,0.043,0,0.057-0.01c0.136-0.026,0.201-0.105,0.22-0.227v-0.086v-0.141
		h-1.259c-0.391,0-0.598-0.098-0.833-0.431c-0.092-0.138-0.137-0.29-0.137-0.544v-2.875h0.976v2.57c0,0.205,0.092,0.305,0.265,0.305
		h0.689c0.014,0,0.039,0,0.058-0.007c0.134-0.024,0.223-0.11,0.241-0.235v-0.1v-2.533h0.967v4.241c0,0.062,0,0.128-0.012,0.189
		c-0.065,0.472-0.307,0.741-0.703,0.837c-0.067,0.012-0.135,0.018-0.201,0.018H46.277z"/>
	<path fill="#fff" d="M51.107,22.31v-1.936c0-0.549,0.22-0.818,0.654-0.897c0.05-0.01,0.108-0.019,0.157-0.019h1.771v0.98h-1.317
		c-0.205,0-0.263,0.027-0.291,0.156v0.121v1.342c0,0.06,0.014,0.118,0.049,0.158c0.05,0.08,0.124,0.117,0.222,0.117h1.338v0.975
		h-1.565C51.428,23.308,51.107,22.985,51.107,22.31"/>
	<path fill="#fff" d="M54.255,22.438v-0.782c0-0.578,0.355-0.915,0.937-0.915h1.306l-0.007-0.205c0-0.09-0.065-0.125-0.208-0.149
		h-0.05h-1.966v-0.929h2.214c0.059,0,0.114,0.012,0.171,0.019c0.492,0.058,0.721,0.265,0.799,0.72
		c0.014,0.057,0.014,0.115,0.014,0.17v2.033c0,0.06,0,0.123-0.014,0.182c-0.087,0.439-0.426,0.727-0.868,0.727h-1.34
		c-0.569,0-0.89-0.249-0.976-0.702C54.273,22.552,54.255,22.438,54.255,22.438 M55.279,22.269c0.028,0.041,0.077,0.071,0.148,0.088
		c0.021,0.002,0.035,0.002,0.051,0.002h0.762c0.093,0,0.148-0.019,0.193-0.067c0.033-0.044,0.057-0.098,0.057-0.155v-0.267
		c0-0.122-0.01-0.134-0.122-0.194c-0.03-0.019-0.063-0.027-0.136-0.027h-0.812l-0.043,0.009c-0.093,0.014-0.136,0.054-0.149,0.185
		v0.057v0.238C55.229,22.166,55.242,22.228,55.279,22.269"/>
	<path fill="#fff" d="M58.031,23.308v-0.975h1.695h0.042c0.114-0.023,0.173-0.059,0.192-0.15
		c0.007-0.017,0.007-0.029,0.007-0.047v-0.078c0-0.018-0.007-0.049-0.021-0.082c-0.034-0.066-0.07-0.093-0.144-0.106h-0.098h-0.741
		c-0.154,0-0.298-0.034-0.419-0.106c-0.349-0.193-0.491-0.412-0.491-0.709v-0.725c0-0.072,0.009-0.15,0.028-0.219
		c0.103-0.418,0.42-0.652,0.919-0.652h1.966l0.006,0.98h-1.672h-0.087h-0.013c-0.031,0.008-0.05,0.014-0.08,0.027
		c-0.006,0.009-0.013,0.014-0.019,0.021c-0.065,0.054-0.088,0.103-0.088,0.13v0.089c0,0.022,0.015,0.068,0.05,0.115
		c0.028,0.037,0.072,0.059,0.185,0.072h0.052h0.819c0.247,0,0.439,0.09,0.611,0.291c0.155,0.195,0.235,0.4,0.235,0.563l-0.014,0.709
		c0,0.16-0.06,0.318-0.149,0.463c-0.217,0.293-0.401,0.389-0.765,0.389H58.031z"/>
	<path fill="#fff" d="M61.593,23.308v-5.284h0.975v1.435h1.325c0.056,0,0.106,0.012,0.155,0.019
		c0.42,0.088,0.648,0.321,0.728,0.712c0.004,0.047,0.004,0.1,0.004,0.15v2.969h-0.965v-2.574v-0.081l-0.008-0.035
		c0-0.106-0.06-0.165-0.191-0.179h-0.053h-0.719c-0.118,0-0.171,0.021-0.22,0.072c-0.035,0.03-0.049,0.066-0.057,0.106v0.124v2.566
		H61.593z"/>
	<path fill="#fff" d="M65.293,22.717c-0.006-0.165,0.059-0.319,0.173-0.442c0.234-0.241,0.632-0.246,0.864,0
		c0.237,0.232,0.237,0.617-0.003,0.852c-0.229,0.236-0.606,0.236-0.851,0.008C65.367,23.027,65.302,22.88,65.293,22.717"/>
	<path fill="#fff" d="M69.086,24.743v-4.256c0-0.07,0.008-0.135,0.016-0.199c0.066-0.506,0.264-0.724,0.726-0.812
		c0.042-0.007,0.093-0.019,0.136-0.019h1.396c0.07,0,0.133,0.012,0.198,0.025c0.491,0.086,0.74,0.398,0.74,0.963v1.992
		c0,0.154-0.058,0.327-0.179,0.483c-0.035,0.042-0.07,0.085-0.107,0.119c-0.185,0.171-0.397,0.267-0.625,0.267h-1.324v1.436
		C70.055,24.715,69.086,24.743,69.086,24.743 M70.071,22.095c0.021,0.145,0.092,0.207,0.241,0.231
		c0.014,0.007,0.036,0.007,0.057,0.007h0.697h0.044c0.07-0.018,0.12-0.045,0.154-0.086c0.038-0.059,0.06-0.111,0.06-0.146v-1.432
		v-0.034c-0.021-0.112-0.067-0.16-0.186-0.188c-0.016-0.008-0.023-0.008-0.037-0.008h-0.76c-0.122,0-0.192,0.049-0.242,0.165
		c-0.028,0.056-0.037,0.089-0.037,0.125v1.312C70.063,22.058,70.063,22.077,70.071,22.095"/>
	<path fill="#fff" d="M72.967,22.438v-0.782c0-0.578,0.357-0.915,0.94-0.915h1.302l-0.005-0.205c0-0.09-0.068-0.125-0.209-0.149
		h-0.048h-1.966v-0.929h2.214c0.058,0,0.117,0.012,0.171,0.019c0.491,0.058,0.718,0.265,0.798,0.72
		c0.011,0.057,0.011,0.115,0.011,0.17v2.033c0,0.06,0,0.123-0.011,0.182c-0.084,0.439-0.43,0.727-0.871,0.727h-1.336
		c-0.571,0-0.891-0.249-0.976-0.702C72.99,22.552,72.967,22.438,72.967,22.438 M73.992,22.269c0.028,0.041,0.077,0.071,0.15,0.088
		c0.022,0.002,0.034,0.002,0.049,0.002h0.763c0.093,0,0.149-0.019,0.192-0.067c0.035-0.044,0.058-0.098,0.058-0.155v-0.267
		c0-0.122-0.009-0.134-0.122-0.194c-0.029-0.019-0.064-0.027-0.135-0.027h-0.811l-0.045,0.009c-0.093,0.014-0.135,0.054-0.149,0.185
		v0.057v0.238C73.942,22.166,73.957,22.228,73.992,22.269"/>
	<path fill="#fff" d="M76.847,24.743v-0.973h1.95c0.023,0,0.043,0,0.059-0.01c0.134-0.026,0.196-0.105,0.22-0.227v-0.086v-0.141
		h-1.259c-0.394,0-0.6-0.098-0.836-0.431c-0.094-0.138-0.134-0.29-0.134-0.544v-2.875h0.975v2.57c0,0.205,0.093,0.305,0.264,0.305
		h0.69c0.015,0,0.035,0,0.059-0.007c0.133-0.024,0.218-0.11,0.241-0.235v-0.1v-2.533h0.969v4.241c0,0.062,0,0.128-0.014,0.189
		c-0.065,0.472-0.307,0.741-0.707,0.837c-0.063,0.012-0.134,0.018-0.196,0.018H76.847z"/>
	<path fill="#fff" d="M81.625,23.308v-0.975h1.695h0.041c0.115-0.023,0.171-0.059,0.195-0.15
		c0.003-0.017,0.003-0.029,0.003-0.047v-0.078c0-0.018-0.003-0.049-0.018-0.082c-0.037-0.066-0.07-0.093-0.143-0.106h-0.101H82.56
		c-0.157,0-0.302-0.034-0.422-0.106c-0.347-0.193-0.491-0.412-0.491-0.709v-0.725c0-0.072,0.009-0.15,0.03-0.219
		c0.099-0.418,0.421-0.652,0.917-0.652h1.963l0.008,0.98h-1.67h-0.087h-0.015c-0.029,0.008-0.049,0.014-0.077,0.027
		c-0.008,0.009-0.015,0.014-0.021,0.021c-0.065,0.054-0.084,0.103-0.084,0.13v0.089c0,0.022,0.013,0.068,0.047,0.115
		c0.028,0.037,0.071,0.059,0.185,0.072h0.053h0.816c0.249,0,0.441,0.09,0.613,0.291c0.155,0.195,0.232,0.4,0.232,0.563l-0.013,0.709
		c0,0.16-0.057,0.318-0.147,0.463c-0.216,0.293-0.4,0.389-0.766,0.389H81.625z"/>
	<path fill="#fff" d="M85.185,22.438v-0.782c0-0.578,0.355-0.915,0.938-0.915h1.304l-0.007-0.205c0-0.09-0.063-0.125-0.206-0.149
		h-0.049h-1.967v-0.929h2.216c0.057,0,0.114,0.012,0.17,0.019c0.491,0.058,0.721,0.265,0.798,0.72
		c0.014,0.057,0.014,0.115,0.014,0.17v2.033c0,0.06,0,0.123-0.014,0.182c-0.086,0.439-0.429,0.727-0.87,0.727h-1.337
		c-0.569,0-0.89-0.249-0.977-0.702C85.206,22.552,85.185,22.438,85.185,22.438 M86.21,22.269c0.027,0.041,0.079,0.071,0.15,0.088
		c0.021,0.002,0.035,0.002,0.051,0.002h0.761c0.091,0,0.147-0.019,0.192-0.067c0.037-0.044,0.056-0.098,0.056-0.155v-0.267
		c0-0.122-0.006-0.134-0.122-0.194c-0.027-0.019-0.062-0.027-0.133-0.027h-0.813l-0.042,0.009c-0.093,0.014-0.136,0.054-0.149,0.185
		v0.057v0.238C86.161,22.166,86.175,22.228,86.21,22.269"/>
	<path fill="#fff" d="M89.065,23.308v-4.396c0-0.488,0.411-0.881,1.038-0.881h0.619v0.935h-0.37
		c-0.012,0-0.036,0.005-0.049,0.005c-0.179,0.03-0.263,0.131-0.263,0.288v0.2h0.682v0.98h-0.682v2.869H89.065z"/>
	<path fill="#fff" d="M90.984,20.359c0-0.065,0.009-0.13,0.024-0.19c0.108-0.472,0.399-0.711,0.934-0.711h1.322
		c0.059,0,0.114,0.012,0.173,0.019c0.449,0.07,0.684,0.315,0.742,0.753c0.005,0.051,0.005,0.105,0.005,0.164v0.77l-2.207,0.832
		v0.063c0,0.158,0.07,0.271,0.19,0.271h2.012v0.979h-2.145c-0.315,0-0.444-0.031-0.578-0.105c-0.34-0.188-0.473-0.44-0.473-0.893
		V20.359z M93.193,20.677v-0.018v-0.018c-0.014-0.064-0.072-0.125-0.185-0.152c-0.02-0.002-0.035-0.002-0.049-0.002h-0.684
		c-0.022,0-0.058,0.002-0.108,0.023c-0.101,0.025-0.148,0.063-0.185,0.124c-0.014,0.034-0.022,0.069-0.022,0.099v0.391
		L93.193,20.677z"/>
	<path fill="#fff" d="M94.646,22.717c-0.008-0.165,0.058-0.319,0.173-0.442c0.234-0.241,0.632-0.246,0.868,0
		c0.234,0.232,0.234,0.617-0.007,0.852c-0.229,0.236-0.605,0.236-0.848,0.008C94.718,23.027,94.652,22.88,94.646,22.717"/>
</g>
</svg>
