<?xml version="1.0" encoding="utf-8"?>
<!-- Generator: Adobe Illustrator 19.0.0, SVG Export Plug-In . SVG Version: 6.00 Build 0)  -->
<svg version="1.1" id="Слой_1" xmlns="http://www.w3.org/2000/svg" xmlns:xlink="http://www.w3.org/1999/xlink" x="0px" y="0px"
	 viewBox="0 0 18.1 18.4" style="enable-background:new 0 0 18.1 18.4;" xml:space="preserve">
<style type="text/css">
	.st0{fill:none;stroke:#56606E;stroke-width:1.3336;stroke-linecap:round;stroke-linejoin:round;stroke-miterlimit:10;}
	.st1{fill:none;stroke:#56606E;stroke-linecap:round;stroke-linejoin:round;stroke-miterlimit:2;}
</style>
<g id="XMLID_2_">
	<circle id="XMLID_6_" class="st0" cx="13.3" cy="13.2" r="3"/>
	<path id="XMLID_5_" class="st0" d="M11.1,11.5c0,0,1.3-0.3,1.9,0.8c0.3,0.6,0.9,1.4,0.7,2.2c-0.2,0.6-0.8,1.2-1.2,1.4"/>
	<path id="XMLID_4_" class="st1" d="M1,17.4c0,0,0.5,0.4,0.7,0.2c0.2-0.2,0.1-0.4,0.2-0.6c0.1-0.2,5.5-5.9,5.8-6.1
		c0.3-0.2,5.3-4.6,5.5-4.8c0.1-0.1,3.3-3.4,3.4-3.4c0.1-0.1,0.9-0.8,0.9-1c0-0.2-0.1-0.2-0.1-0.5c0,0-0.2-0.1-0.3-0.2L16.9,1
		c0,0-0.2-0.2-0.2-0.2c-0.2-0.1-0.3-0.1-0.5-0.1c-0.2,0-0.9,0.8-1,0.9C15.3,1.6,12.1,4.9,12,5c-0.1,0.1-4.4,5.3-4.6,5.6
		c-0.2,0.3-5.8,5.9-6,6c-0.2,0.1-0.4,0.1-0.6,0.2C0.6,16.9,0.9,17.4,1,17.4L1,17.4z"/>
	<path id="XMLID_3_" class="st0" d="M14.5,10.5c0,0-0.1,0.9-0.1,1.1s0.7,1.6,0.7,1.6l1,0.9"/>
</g>
</svg>
