<?xml version="1.0" encoding="utf-8"?>
<!-- Generator: Adobe Illustrator 18.1.1, SVG Export Plug-In . SVG Version: 6.00 Build 0)  -->
<svg version="1.1" id="Слой_1" xmlns="http://www.w3.org/2000/svg" xmlns:xlink="http://www.w3.org/1999/xlink" x="0px" y="0px"
	 width="512px" height="512px" viewBox="-23 225 512 512" enable-background="new -23 225 512 512" xml:space="preserve">
<path fill="#555F6D" d="M435.37,616.29h-14.91V519.4H14.27v96.89H-4.37c-10.29,0-18.63-8.34-18.63-18.63V407.6
	c0-10.29,8.34-18.63,18.63-18.63h63.35l0-137.88c0-14.41,11.68-26.09,26.08-26.09h156.52v48.45H111.16c-6.17,0-7.45,1.28-7.45,7.45
	v126.7h227.32v-44.72h44.72v26.09h59.63c10.29,0,18.63,8.34,18.63,18.63v190.05C454,607.95,445.66,616.29,435.37,616.29z
	 M14.27,433.69v14.91c0,4.12,3.34,7.45,7.45,7.45h14.91c4.12,0,7.45-3.34,7.45-7.45v-14.91c0-4.12-3.34-7.45-7.45-7.45H21.72
	C17.6,426.23,14.27,429.57,14.27,433.69z M256.49,318.17V225l119.25,119.25h-93.16C268.17,344.25,256.49,332.57,256.49,318.17z
	 M319.85,575.3H114.88c-6.17,0-11.18-5.01-11.18-11.18v-7.45c0-6.17,5-11.18,11.18-11.18h204.96c6.17,0,11.18,5.01,11.18,11.18v7.45
	C331.02,570.29,326.02,575.3,319.85,575.3z M331.02,616.29c0,6.17-5.01,11.18-11.18,11.18H114.88c-6.17,0-11.18-5-11.18-11.18v-7.45
	c0-6.17,5-11.18,11.18-11.18h204.96c6.17,0,11.18,5.01,11.18,11.18L331.02,616.29L331.02,616.29z M73.89,649.83
	c0,6.18,1.28,7.45,7.45,7.45h14.91h257.13c6.17,0,7.45-1.28,7.45-7.45V534.3h44.72v141.61c0,14.41-11.68,26.09-26.09,26.09h-3.73
	H58.99h-3.73c-14.41,0-26.09-11.68-26.09-26.09V534.3h44.72L73.89,649.83L73.89,649.83z"/>
</svg>
