<?xml version="1.0" encoding="utf-8"?>
<!-- Generator: Adobe Illustrator 19.0.0, SVG Export Plug-In . SVG Version: 6.00 Build 0)  -->
<svg version="1.1" id="Слой_1" xmlns="http://www.w3.org/2000/svg" xmlns:xlink="http://www.w3.org/1999/xlink" x="0px" y="0px"
	 viewBox="0 0 17 11.5" style="enable-background:new 0 0 17 11.5;" xml:space="preserve">
<style type="text/css">
	.st0{fill:none;stroke:#56606E;stroke-width:1.322;stroke-linecap:round;stroke-linejoin:round;stroke-miterlimit:10;}
</style>
<path class="st0" d="M8.6,2.5C8.1,3,7.1,3.5,6.7,3.1c-0.4-0.4,0-1.4,0.5-2c0.5-0.6,1.2-0.7,1.6-0.3C9.2,1.2,9.2,1.9,8.6,2.5z"/>
<path class="st0" d="M15.3,5.5c0,0-2.5-0.6-4.2-0.7c-1.7,0-3.7,0-4.8,0.1C4.2,5.1,2.5,4.8,2.5,4.8l-1.6,2"/>
<path class="st0" d="M0.7,9.9c0.6,0.3,1.6,0.7,3.6,0.9c4,0.4,4.4-3.6,8.8-2.5c2.1,0.5,3.2,1.6,3.2,1.6"/>
<line class="st0" x1="5.7" y1="5" x2="3.6" y2="7.6"/>
<line class="st0" x1="8.2" y1="5.1" x2="4.7" y2="7.6"/>
</svg>
