<?xml version="1.0" encoding="utf-8"?>
<!-- Generator: Adobe Illustrator 19.0.0, SVG Export Plug-In . SVG Version: 6.00 Build 0)  -->
<svg version="1.1" id="Слой_1" xmlns="http://www.w3.org/2000/svg" xmlns:xlink="http://www.w3.org/1999/xlink" x="0px" y="0px"
	 viewBox="0 0 58.8 19.5" style="enable-background:new 0 0 58.8 19.5;" xml:space="preserve">
<style type="text/css">
	.st0{fill:#FFFFFF;}
</style>
<g>
	<path class="st0" d="M42.2,4.7c1.3,0,2.4-1.1,2.4-2.4S43.5,0,42.2,0c-1.3,0-2.4,1.1-2.4,2.4S40.9,4.7,42.2,4.7
		C42.2,4.7,40.9,4.7,42.2,4.7L42.2,4.7L42.2,4.7z M23.7,6c-0.1,0.3-0.9,2.4-2.8,4.7V1.1l-5,1v17.4h5v-5.4c1.5,2.2,2.2,5.4,2.2,5.4h6
		c-0.6-2.4-3.2-6.9-3.2-6.9c2.3-2.9,3.4-6,3.5-6.5H23.7L23.7,6L23.7,6L23.7,6z M37,5.8C32.5,6,30.2,8,30.2,11.9v7.6h4.9v-6.2
		c0-2.4,0.3-3.4,3.2-3.5V5.9C37.8,5.8,37,5.8,37,5.8L37,5.8L37,5.8L37,5.8z M7.4,7.9c-0.6,0-2-0.1-2-1.4C5.4,5,7.4,5,8.2,5
		c1.4,0,3.1,0.4,4.4,0.8c0,0,0.7,0.2,1.3,0.5l0.1,0V2.1l-0.1,0c-1.5-0.5-3.2-1-6.4-1C2,1.1,0,4.2,0,6.9c0,1.6,0.7,5.2,7,5.6
		c0.5,0,2,0.1,2,1.4c0,1.1-1.2,1.7-3.1,1.7c-2.1,0-4.2-0.5-5.5-1V19c1.9,0.5,4,0.7,6.5,0.7c5.4,0,7.8-3,7.8-5.9
		C14.7,10.4,12,8.2,7.4,7.9C7.4,7.9,12,8.2,7.4,7.9L7.4,7.9L7.4,7.9z M39.8,19.5h4.9V6h-4.9V19.5L39.8,19.5L39.8,19.5L39.8,19.5z
		 M53.9,1.9v17.6h4.9V1.1L53.9,1.9L53.9,1.9L53.9,1.9L53.9,1.9z M46.7,1.9l4.9-0.9v18.4h-4.9V1.9L46.7,1.9z"/>
</g>
</svg>
