<?xml version="1.0" encoding="utf-8"?>
<!-- Generator: Adobe Illustrator 19.0.0, SVG Export Plug-In . SVG Version: 6.00 Build 0)  -->
<svg version="1.1" id="Слой_1" xmlns="http://www.w3.org/2000/svg" xmlns:xlink="http://www.w3.org/1999/xlink" x="0px" y="0px"
	 viewBox="0 0 14.5 14.1" style="enable-background:new 0 0 14.5 14.1;" xml:space="preserve">
<style type="text/css">
	.st0{fill:none;stroke:#56606E;stroke-width:1.3216;stroke-miterlimit:10;}
</style>
<path id="XMLID_4_" class="st0" d="M6.7,9c0.5,1,0.4,2.1-0.1,3c-0.3,0.5-0.7,0.9-1.2,1.2c-1.5,0.8-3.4,0.2-4.1-1.3
	c-0.6-1.2-0.4-2.7,0.6-3.6C2,8,2.2,7.8,2.5,7.7C4,6.9,5.9,7.5,6.7,9z"/>
<path id="XMLID_3_" class="st0" d="M10.2,2.7c0.5,1,0.4,2.1-0.1,3C9.8,6.2,9.4,6.6,8.8,6.8C7.3,7.6,5.5,7,4.7,5.5
	C4,4.3,4.3,2.8,5.3,1.9C5.5,1.7,5.7,1.5,6,1.4C7.5,0.6,9.4,1.2,10.2,2.7z"/>
<path id="XMLID_2_" class="st0" d="M13.4,8.9c0.5,1,0.4,2.1-0.1,3c-0.3,0.5-0.7,0.9-1.2,1.2c-1.5,0.8-3.4,0.2-4.1-1.3
	C7.3,10.5,7.5,9,8.5,8.1c0.2-0.2,0.5-0.4,0.7-0.5C10.7,6.8,12.6,7.4,13.4,8.9z"/>
</svg>
