<?xml version="1.0" encoding="utf-8"?>
<!-- Generator: Adobe Illustrator 19.0.0, SVG Export Plug-In . SVG Version: 6.00 Build 0)  -->
<svg version="1.1" id="Слой_1" xmlns="http://www.w3.org/2000/svg" xmlns:xlink="http://www.w3.org/1999/xlink" x="0px" y="0px"
	 viewBox="0 0 13 13" style="enable-background:new 0 0 13 13;" xml:space="preserve">
<style type="text/css">
	.st0{fill:#56606E;}
</style>
<g id="XMLID_2_">
	<path id="XMLID_3_" class="st0" d="M13,6.5c0,3.6-2.9,6.5-6.5,6.5S0,10.1,0,6.5S2.9,0,6.5,0S13,2.9,13,6.5z M12.1,6.5
		C12.1,6.5,12.1,6.5,12.1,6.5l-0.7,0.6L9.6,5.5L10,3.2l1,0.1c-0.7-0.9-1.7-1.7-2.8-2l0.4,0.9L6.5,3.2L4.4,2.1l0.4-0.9
		C3.7,1.6,2.7,2.3,2,3.2l1-0.1l0.4,2.3L1.7,7.1L0.9,6.5c0,0,0,0,0,0c0,1.2,0.4,2.4,1.1,3.3l0.2-1l2.4,0.3l1,2.2l-0.8,0.5
		c0.5,0.2,1.1,0.3,1.7,0.3s1.2-0.1,1.7-0.3l-0.8-0.5l1-2.2l2.4-0.3l0.2,1C11.7,8.9,12.1,7.7,12.1,6.5z M6.5,4.4l2.1,1.5L7.8,8.3H5.2
		L4.4,5.9L6.5,4.4z"/>
</g>
</svg>
