<?xml version="1.0" encoding="utf-8"?>
<!-- Generator: Adobe Illustrator 16.0.0, SVG Export Plug-In . SVG Version: 6.00 Build 0)  -->
<!DOCTYPE svg PUBLIC "-//W3C//DTD SVG 1.1//EN" "http://www.w3.org/Graphics/SVG/1.1/DTD/svg11.dtd">
<svg version="1.1" id="Layer_1" xmlns="http://www.w3.org/2000/svg" xmlns:xlink="http://www.w3.org/1999/xlink" x="0px" y="0px"
	 width="61px" height="19.847px" viewBox="0 0 61 19.847" enable-background="new 0 0 61 19.847" xml:space="preserve">
<g id="layer1" transform="translate(85.788367,-282.23124)">
	<path id="path66" fill="#fff" d="M-65.01,282.365c-0.816,0-1.607,0.188-2.352,0.537c-1.062,0.504-2.024,1.343-2.812,2.455
		c-0.51,0.723-0.946,1.56-1.29,2.498c-0.646,1.767-0.639,3.201,0.021,4.146c0.375,0.534,1.152,1.173,2.733,1.175h0.006
		c2.881,0,5.032-1.889,6.395-5.613c0.36-0.984,0.835-2.824-0.033-4.064C-62.865,282.748-63.761,282.367-65.01,282.365
		L-65.01,282.365z M-47.626,282.365c-0.815,0-1.607,0.188-2.351,0.537c-1.063,0.504-2.025,1.343-2.812,2.455
		c-0.511,0.723-0.947,1.56-1.29,2.498c-0.647,1.767-0.639,3.201,0.022,4.146c0.373,0.534,1.15,1.173,2.732,1.175h0.005
		c2.883,0,5.033-1.889,6.395-5.613c0.361-0.984,0.836-2.824-0.032-4.064C-45.48,282.748-46.378,282.367-47.626,282.365z
		 M-74.261,282.515c-0.95,0-1.871,0-2.697,0.419c-0.824,0.418-1.552,1.256-2.113,2.933c-0.122,0.361-0.185,0.67-0.193,0.939
		c-0.01,0.271,0.039,0.501,0.141,0.701c0.126,0.242,0.331,0.471,0.587,0.666c0.256,0.191,0.563,0.35,0.893,0.449
		c0.012,0.004,0.185,0.053,0.396,0.114c0.209,0.06,0.453,0.132,0.609,0.179c0.091,0.027,0.191,0.063,0.28,0.119
		c0.091,0.053,0.173,0.125,0.224,0.227c0.034,0.064,0.052,0.138,0.054,0.215c0.002,0.079-0.011,0.163-0.041,0.251
		c-0.077,0.228-0.195,0.374-0.418,0.464c-0.22,0.09-0.548,0.119-1.043,0.122h-6.188l-0.978,2.688h6.623c0.623,0,1.763,0,2.858-0.466
		c1.095-0.463,2.146-1.395,2.59-3.254c0.166-0.699,0.115-1.27-0.159-1.717s-0.771-0.771-1.495-0.979c0,0-0.162-0.048-0.353-0.103
		c-0.189-0.054-0.409-0.116-0.521-0.148c-0.185-0.055-0.328-0.16-0.412-0.297c-0.084-0.136-0.109-0.303-0.062-0.471
		c0.05-0.176,0.17-0.316,0.343-0.412c0.174-0.097,0.404-0.15,0.671-0.15h3.85c0.026-0.037,0.053-0.08,0.08-0.12
		c0.704-0.995,1.553-1.8,2.486-2.368H-74.261z M-56.955,282.515c-1.715,0-2.99,0.867-3.592,2.488l-2.911,7.997h3.188l1.496-4.11
		l2.817,0.002l0.802-2.201l-2.808-0.002l0.452-1.275c0.093-0.227,0.318-0.41,0.649-0.41c0.182,0,2.252,0,3.322,0
		c0.028-0.037,0.053-0.08,0.079-0.12c0.703-0.995,1.699-1.8,2.632-2.368H-56.955z M-42.165,282.521l-3.816,10.486h3.241l1.39-3.691
		c0.067,0.153,0.887,3.691,0.887,3.691h3.409c0,0-0.62-2.601-1.076-3.65c-0.116-0.271-0.24-0.574-0.404-0.826
		c0.964-0.357,2.36-1.126,2.938-2.684c0.355-0.957,0.334-1.73-0.06-2.297c-0.479-0.691-1.451-1.029-2.978-1.029H-42.165
		L-42.165,282.521z M-35.513,282.521c0.206,0.162,0.383,0.348,0.53,0.56c0.377,0.542,0.522,1.19,0.436,1.931h1.932l-2.911,7.998
		h2.908l2.913-7.998h3.736l0.906-2.49H-35.513z M-40.028,284.685h0.535c0.979,0.002,1.346,0.287,1.012,1.182
		c-0.31,0.838-0.869,1.356-1.933,1.356h-0.005l-0.551-0.001L-40.028,284.685L-40.028,284.685z M-65.776,284.737L-65.776,284.737
		c0.999,0.001,1.227,0.579,0.351,2.974l0,0c-0.898,2.459-1.551,3.078-2.531,3.078h-0.003c-0.956,0-1.291-0.605-0.396-3.055
		C-67.688,285.906-66.823,284.737-65.776,284.737L-65.776,284.737z M-48.391,284.737L-48.391,284.737
		c0.997,0.001,1.227,0.579,0.35,2.974c-0.897,2.459-1.552,3.078-2.531,3.078h-0.002c-0.958,0-1.292-0.605-0.396-3.055
		C-50.304,285.906-49.438,284.737-48.391,284.737L-48.391,284.737z"/>
	<path id="path98" fill="#fff" d="M-81.597,294.113c-0.204,0-0.355,0.037-0.459,0.109c-0.1,0.074-0.187,0.207-0.255,0.396
		c-0.067,0.184-0.078,0.311-0.032,0.383c0.048,0.072,0.174,0.108,0.38,0.108s0.36-0.036,0.461-0.112
		c0.102-0.075,0.188-0.207,0.255-0.395c0.066-0.186,0.079-0.313,0.033-0.385C-81.259,294.148-81.387,294.113-81.597,294.113z
		 M-79.838,294.113c-0.207,0-0.359,0.037-0.459,0.109c-0.104,0.074-0.188,0.207-0.256,0.396c-0.067,0.184-0.078,0.311-0.032,0.383
		c0.044,0.072,0.17,0.108,0.377,0.108c0.206,0,0.359-0.036,0.463-0.112c0.102-0.075,0.188-0.207,0.256-0.395
		c0.068-0.186,0.078-0.313,0.031-0.385C-79.505,294.148-79.631,294.113-79.838,294.113z M-47.013,295.476
		c-0.238,0-0.475,0.031-0.711,0.092c-0.235,0.063-0.456,0.156-0.657,0.279c-0.202,0.127-0.385,0.283-0.546,0.471
		c-0.161,0.19-0.286,0.41-0.378,0.66c-0.079,0.217-0.114,0.402-0.106,0.559c0.006,0.156,0.041,0.291,0.104,0.404
		s0.144,0.211,0.245,0.294c0.102,0.081,0.211,0.155,0.327,0.218c0.115,0.064,0.228,0.127,0.339,0.184
		c0.111,0.059,0.206,0.119,0.285,0.186c0.08,0.066,0.136,0.141,0.17,0.226c0.033,0.084,0.028,0.187-0.016,0.303
		c-0.036,0.103-0.089,0.195-0.157,0.278c-0.067,0.084-0.146,0.152-0.238,0.21c-0.093,0.058-0.192,0.101-0.307,0.13
		c-0.114,0.031-0.235,0.048-0.363,0.048c-0.196,0-0.361-0.023-0.493-0.067c-0.131-0.044-0.242-0.094-0.33-0.146
		c-0.088-0.054-0.158-0.103-0.209-0.146c-0.054-0.045-0.1-0.066-0.138-0.066c-0.025,0-0.052,0.006-0.077,0.021
		c-0.025,0.015-0.05,0.039-0.074,0.072c-0.024,0.037-0.052,0.082-0.076,0.139c-0.027,0.056-0.055,0.127-0.084,0.209
		c-0.047,0.123-0.073,0.219-0.082,0.283c-0.011,0.066-0.002,0.115,0.02,0.152c0.021,0.033,0.064,0.074,0.127,0.121
		c0.063,0.045,0.145,0.088,0.247,0.13c0.104,0.042,0.229,0.075,0.37,0.106c0.145,0.029,0.306,0.043,0.484,0.043
		c0.267,0,0.529-0.034,0.787-0.104c0.261-0.07,0.502-0.174,0.726-0.313c0.224-0.138,0.425-0.309,0.604-0.516
		c0.177-0.207,0.314-0.447,0.415-0.721c0.075-0.209,0.108-0.391,0.101-0.545s-0.044-0.289-0.105-0.402
		c-0.065-0.115-0.146-0.213-0.253-0.294c-0.104-0.081-0.214-0.156-0.331-0.22c-0.116-0.064-0.23-0.125-0.344-0.182
		c-0.111-0.059-0.209-0.121-0.292-0.186c-0.083-0.065-0.14-0.142-0.172-0.226c-0.031-0.084-0.027-0.185,0.016-0.302
		c0.027-0.076,0.068-0.15,0.122-0.219c0.055-0.07,0.118-0.131,0.192-0.18c0.076-0.05,0.163-0.09,0.258-0.116
		c0.098-0.03,0.204-0.044,0.319-0.044c0.147,0,0.276,0.018,0.387,0.055c0.109,0.037,0.203,0.076,0.282,0.122
		c0.075,0.044,0.141,0.085,0.192,0.122c0.05,0.038,0.091,0.056,0.119,0.056c0.03,0,0.057-0.007,0.079-0.023
		c0.024-0.017,0.047-0.042,0.07-0.077c0.021-0.033,0.043-0.078,0.067-0.133c0.022-0.053,0.049-0.118,0.077-0.197
		c0.026-0.068,0.045-0.127,0.059-0.174c0.017-0.049,0.024-0.086,0.03-0.117c0.003-0.031,0.005-0.056,0.003-0.074
		c-0.003-0.02-0.014-0.043-0.03-0.068c-0.017-0.027-0.06-0.061-0.128-0.1c-0.07-0.041-0.151-0.078-0.246-0.111
		c-0.096-0.03-0.201-0.057-0.317-0.074C-46.769,295.486-46.889,295.476-47.013,295.476L-47.013,295.476z M-30.304,295.48
		c-0.41,0-0.805,0.063-1.186,0.188c-0.38,0.128-0.729,0.31-1.053,0.546c-0.323,0.238-0.61,0.525-0.862,0.865
		c-0.253,0.339-0.456,0.723-0.61,1.148c-0.151,0.414-0.226,0.784-0.223,1.108c0.003,0.327,0.076,0.604,0.22,0.83
		c0.146,0.227,0.362,0.399,0.648,0.519c0.285,0.119,0.635,0.179,1.05,0.179c0.144,0,0.287-0.007,0.431-0.019
		c0.147-0.016,0.294-0.033,0.442-0.062c0.146-0.027,0.293-0.06,0.435-0.097c0.144-0.037,0.263-0.072,0.363-0.108
		c0.101-0.035,0.177-0.084,0.226-0.144c0.05-0.06,0.089-0.131,0.119-0.211l0.754-2.072c0.02-0.055,0.03-0.102,0.032-0.143
		c0-0.041-0.005-0.076-0.02-0.107c-0.016-0.027-0.037-0.051-0.064-0.066c-0.029-0.014-0.064-0.022-0.106-0.022h-1.759
		c-0.023,0-0.049,0.009-0.071,0.022c-0.024,0.016-0.049,0.039-0.073,0.07s-0.051,0.07-0.076,0.121
		c-0.024,0.051-0.052,0.114-0.078,0.189c-0.052,0.146-0.076,0.248-0.072,0.308c0.006,0.062,0.031,0.091,0.08,0.091h0.986
		l-0.441,1.207c-0.116,0.053-0.238,0.094-0.364,0.121c-0.124,0.025-0.246,0.041-0.365,0.041c-0.241,0-0.447-0.04-0.618-0.119
		c-0.173-0.076-0.302-0.191-0.389-0.346c-0.086-0.151-0.127-0.342-0.125-0.568c0.005-0.227,0.061-0.489,0.169-0.786
		c0.098-0.271,0.228-0.519,0.388-0.743c0.157-0.223,0.339-0.416,0.543-0.576c0.203-0.158,0.422-0.281,0.656-0.369
		c0.236-0.086,0.48-0.131,0.732-0.131c0.236,0,0.434,0.024,0.596,0.072c0.16,0.049,0.294,0.102,0.402,0.157
		c0.108,0.057,0.193,0.108,0.253,0.157c0.061,0.049,0.108,0.073,0.144,0.073c0.024,0,0.046-0.009,0.069-0.021
		c0.022-0.013,0.045-0.036,0.07-0.071c0.024-0.032,0.05-0.078,0.077-0.134s0.055-0.124,0.083-0.202
		c0.049-0.133,0.077-0.234,0.085-0.303c0.012-0.068,0.003-0.121-0.019-0.158c-0.023-0.038-0.07-0.083-0.144-0.133
		c-0.072-0.052-0.171-0.1-0.293-0.143c-0.121-0.045-0.269-0.083-0.442-0.113C-29.878,295.495-30.078,295.48-30.304,295.48z
		 M-63.196,295.544c-0.139,0-0.245,0.005-0.324,0.011c-0.08,0.008-0.14,0.025-0.185,0.055c-0.044,0.029-0.074,0.072-0.092,0.127
		s-0.031,0.131-0.042,0.229l-0.473,4.541c-0.006,0.065-0.005,0.117,0.006,0.154c0.01,0.04,0.038,0.068,0.084,0.09
		c0.046,0.02,0.114,0.033,0.203,0.041c0.093,0.006,0.215,0.008,0.369,0.008c0.148,0,0.269-0.002,0.359-0.008
		c0.093-0.008,0.17-0.021,0.229-0.043s0.108-0.053,0.147-0.092c0.038-0.037,0.075-0.088,0.111-0.15l1.99-3.299h0.008l-0.368,3.299
		c-0.01,0.065-0.01,0.117,0,0.154c0.011,0.04,0.038,0.068,0.084,0.09c0.046,0.02,0.113,0.033,0.204,0.041
		c0.092,0.006,0.213,0.008,0.365,0.008c0.136,0,0.251-0.002,0.342-0.008c0.091-0.008,0.168-0.021,0.23-0.041
		c0.065-0.021,0.118-0.05,0.16-0.09c0.042-0.037,0.084-0.089,0.122-0.154l2.846-4.529c0.06-0.099,0.103-0.179,0.128-0.236
		c0.024-0.058,0.027-0.102,0.008-0.131c-0.019-0.029-0.06-0.047-0.122-0.055c-0.063-0.006-0.154-0.011-0.271-0.011
		c-0.127,0-0.226,0.005-0.298,0.011c-0.073,0.008-0.131,0.02-0.175,0.037c-0.042,0.018-0.077,0.042-0.103,0.072
		c-0.023,0.032-0.049,0.067-0.072,0.111l-2.36,3.974h-0.009l0.46-3.958c0.009-0.055,0.01-0.098,0.003-0.131
		c-0.007-0.031-0.028-0.055-0.063-0.072c-0.036-0.018-0.09-0.029-0.165-0.035c-0.074-0.006-0.176-0.009-0.305-0.009
		c-0.121,0-0.22,0.005-0.293,0.011c-0.076,0.008-0.137,0.02-0.185,0.037c-0.049,0.018-0.087,0.042-0.116,0.074
		c-0.029,0.033-0.058,0.074-0.087,0.125l-2.391,3.958h-0.004l0.539-3.986c0.011-0.052,0.013-0.091,0.011-0.118
		c-0.004-0.028-0.021-0.052-0.055-0.064c-0.032-0.016-0.084-0.025-0.156-0.029C-62.97,295.547-63.071,295.544-63.196,295.544
		L-63.196,295.544z M-50.64,295.544c-0.104,0-0.188,0.006-0.258,0.014c-0.07,0.009-0.128,0.019-0.175,0.032
		c-0.047,0.013-0.083,0.03-0.107,0.052c-0.024,0.022-0.043,0.046-0.053,0.072l-1.789,4.917c-0.011,0.027-0.011,0.052,0,0.073
		c0.008,0.021,0.031,0.038,0.066,0.052c0.036,0.014,0.085,0.024,0.151,0.032c0.064,0.009,0.148,0.013,0.251,0.013
		c0.104,0,0.191-0.004,0.262-0.013c0.069-0.008,0.128-0.019,0.173-0.032c0.046-0.014,0.081-0.031,0.105-0.052
		c0.024-0.021,0.044-0.046,0.052-0.073l1.791-4.917c0.011-0.026,0.011-0.05,0-0.072c-0.009-0.021-0.033-0.039-0.068-0.052
		c-0.035-0.014-0.084-0.023-0.147-0.032C-50.45,295.55-50.537,295.544-50.64,295.544L-50.64,295.544z M-82.828,295.544
		c-0.106,0-0.193,0.006-0.264,0.014c-0.069,0.009-0.127,0.019-0.174,0.032c-0.047,0.013-0.082,0.03-0.105,0.052
		c-0.024,0.022-0.041,0.046-0.052,0.072l-1.152,3.167c-0.12,0.332-0.18,0.623-0.174,0.871c0.005,0.248,0.067,0.455,0.187,0.621
		c0.12,0.167,0.293,0.291,0.524,0.371c0.23,0.084,0.51,0.124,0.837,0.124c0.349,0,0.674-0.046,0.975-0.137
		c0.302-0.091,0.575-0.223,0.821-0.397c0.245-0.176,0.462-0.387,0.646-0.641c0.187-0.252,0.337-0.538,0.453-0.855l1.137-3.124
		c0.011-0.026,0.011-0.05,0.002-0.072c-0.007-0.021-0.028-0.039-0.065-0.052c-0.035-0.014-0.084-0.023-0.148-0.032
		c-0.062-0.008-0.144-0.014-0.246-0.014c-0.102,0-0.188,0.006-0.261,0.014c-0.07,0.009-0.128,0.019-0.174,0.032
		c-0.046,0.013-0.078,0.03-0.103,0.052c-0.024,0.022-0.041,0.046-0.052,0.072l-1.14,3.135c-0.067,0.182-0.151,0.346-0.252,0.489
		c-0.104,0.143-0.217,0.264-0.345,0.361c-0.126,0.098-0.265,0.172-0.415,0.224c-0.149,0.05-0.307,0.075-0.474,0.075
		c-0.164,0-0.303-0.023-0.419-0.074c-0.114-0.049-0.201-0.123-0.261-0.223c-0.057-0.099-0.085-0.223-0.081-0.375
		c0.006-0.152,0.043-0.331,0.119-0.537l1.119-3.075c0.01-0.026,0.01-0.05,0-0.072c-0.01-0.021-0.032-0.039-0.067-0.052
		c-0.036-0.014-0.086-0.023-0.148-0.032C-82.644,295.55-82.729,295.544-82.828,295.544L-82.828,295.544z M-43.792,295.545
		c-0.106,0-0.193,0.005-0.264,0.013c-0.069,0.009-0.127,0.018-0.174,0.031c-0.046,0.014-0.081,0.031-0.105,0.053
		c-0.024,0.022-0.041,0.046-0.052,0.073l-1.151,3.166c-0.121,0.332-0.179,0.624-0.174,0.871c0.004,0.248,0.066,0.455,0.187,0.621
		c0.119,0.167,0.293,0.291,0.523,0.371c0.23,0.084,0.51,0.124,0.837,0.124c0.349,0,0.674-0.046,0.975-0.137
		c0.302-0.091,0.575-0.223,0.821-0.397c0.245-0.176,0.462-0.387,0.646-0.641c0.188-0.252,0.337-0.538,0.453-0.855l1.137-3.123
		c0.011-0.027,0.011-0.051,0.003-0.073c-0.01-0.021-0.03-0.039-0.065-0.053s-0.084-0.022-0.147-0.031
		c-0.063-0.008-0.146-0.013-0.248-0.013c-0.101,0-0.188,0.005-0.26,0.013c-0.071,0.009-0.129,0.018-0.175,0.031
		c-0.045,0.014-0.078,0.031-0.103,0.053c-0.024,0.022-0.041,0.046-0.052,0.073l-1.14,3.134c-0.067,0.182-0.151,0.346-0.252,0.489
		c-0.104,0.143-0.218,0.264-0.344,0.361c-0.126,0.099-0.266,0.172-0.416,0.224c-0.149,0.05-0.31,0.075-0.474,0.075
		s-0.303-0.023-0.418-0.072c-0.113-0.051-0.202-0.125-0.262-0.225c-0.059-0.099-0.087-0.225-0.081-0.375
		c0.004-0.152,0.043-0.331,0.119-0.537l1.118-3.074c0.011-0.027,0.011-0.051,0-0.073c-0.009-0.021-0.031-0.039-0.065-0.053
		c-0.036-0.014-0.087-0.022-0.149-0.031C-43.608,295.55-43.693,295.545-43.792,295.545L-43.792,295.545z M-34.745,295.553
		c-0.098,0-0.178,0.004-0.242,0.01c-0.064,0.008-0.118,0.02-0.162,0.035c-0.043,0.018-0.075,0.035-0.1,0.057
		c-0.024,0.02-0.041,0.045-0.051,0.072l-0.89,2.442c-0.066,0.185-0.135,0.38-0.205,0.583s-0.137,0.398-0.196,0.588h-0.004
		c-0.01-0.107-0.02-0.215-0.033-0.323c-0.011-0.105-0.024-0.216-0.036-0.327c-0.013-0.112-0.028-0.223-0.045-0.334
		c-0.019-0.111-0.035-0.225-0.052-0.34l-0.321-1.903c-0.012-0.104-0.031-0.192-0.053-0.265c-0.023-0.07-0.055-0.125-0.095-0.165
		c-0.041-0.041-0.093-0.069-0.155-0.087s-0.146-0.027-0.248-0.027h-0.568c-0.105,0-0.209,0.033-0.305,0.096
		c-0.097,0.063-0.167,0.158-0.213,0.284l-1.704,4.679c-0.011,0.027-0.013,0.051-0.008,0.073c0.008,0.021,0.024,0.039,0.054,0.053
		c0.03,0.017,0.073,0.027,0.133,0.035c0.06,0.009,0.135,0.013,0.229,0.013c0.098,0,0.176-0.004,0.242-0.013
		c0.064-0.008,0.118-0.019,0.159-0.035c0.04-0.014,0.073-0.032,0.098-0.053c0.021-0.022,0.038-0.046,0.046-0.073l0.993-2.725
		c0.073-0.203,0.144-0.402,0.207-0.592c0.065-0.193,0.126-0.386,0.187-0.578h0.008c0.003,0.157,0.015,0.321,0.031,0.488
		c0.018,0.168,0.036,0.324,0.059,0.469l0.409,2.434c0.019,0.135,0.039,0.244,0.063,0.328c0.022,0.085,0.054,0.152,0.092,0.201
		c0.041,0.051,0.091,0.086,0.152,0.104c0.063,0.02,0.141,0.028,0.234,0.028h0.449c0.052,0,0.105-0.007,0.16-0.021
		c0.054-0.015,0.107-0.04,0.154-0.072c0.049-0.031,0.093-0.071,0.131-0.119c0.039-0.049,0.07-0.103,0.092-0.165l1.704-4.68
		c0.009-0.027,0.011-0.053,0.005-0.072c-0.005-0.021-0.021-0.039-0.049-0.057c-0.026-0.016-0.071-0.027-0.13-0.035
		C-34.579,295.556-34.656,295.553-34.745,295.553L-34.745,295.553z M-72.311,295.568c-0.09,0-0.174,0.027-0.254,0.079
		c-0.08,0.053-0.14,0.138-0.183,0.255l-1.652,4.539c-0.044,0.119-0.044,0.203-0.003,0.256c0.044,0.053,0.108,0.078,0.195,0.078
		h2.615c0.024,0,0.049-0.006,0.076-0.022c0.024-0.014,0.049-0.038,0.074-0.069c0.026-0.032,0.051-0.074,0.078-0.127
		c0.024-0.052,0.051-0.117,0.08-0.195c0.028-0.078,0.047-0.143,0.061-0.194c0.012-0.053,0.018-0.095,0.017-0.128
		c-0.002-0.032-0.011-0.055-0.024-0.07c-0.016-0.014-0.035-0.021-0.06-0.021h-1.875l0.534-1.467h1.574
		c0.023,0,0.049-0.008,0.072-0.022c0.026-0.013,0.052-0.036,0.076-0.066s0.049-0.072,0.073-0.122
		c0.027-0.051,0.054-0.115,0.082-0.194c0.026-0.075,0.047-0.138,0.06-0.19c0.012-0.051,0.016-0.093,0.015-0.124
		c-0.001-0.03-0.01-0.054-0.025-0.069c-0.016-0.015-0.034-0.021-0.059-0.021h-1.572l0.461-1.271h1.858
		c0.026,0,0.049-0.008,0.073-0.023c0.024-0.014,0.049-0.036,0.075-0.07c0.025-0.031,0.05-0.074,0.076-0.125
		c0.025-0.053,0.053-0.117,0.079-0.191c0.03-0.08,0.049-0.146,0.063-0.199c0.013-0.053,0.018-0.096,0.017-0.129
		s-0.008-0.058-0.023-0.07c-0.012-0.014-0.032-0.021-0.056-0.021H-72.311L-72.311,295.568z M-67.946,295.568
		c-0.088,0-0.172,0.027-0.252,0.079c-0.079,0.053-0.142,0.138-0.184,0.255l-1.722,4.729c-0.008,0.027-0.011,0.052-0.002,0.073
		c0.009,0.021,0.03,0.038,0.067,0.052c0.035,0.014,0.084,0.024,0.15,0.032c0.064,0.009,0.148,0.013,0.251,0.013
		c0.104,0,0.192-0.004,0.262-0.013c0.069-0.008,0.128-0.019,0.173-0.032s0.081-0.031,0.105-0.052
		c0.024-0.021,0.043-0.046,0.052-0.073l0.723-1.982h0.33c0.112,0,0.206,0.016,0.279,0.053c0.073,0.033,0.13,0.085,0.171,0.154
		c0.041,0.068,0.067,0.153,0.085,0.255s0.028,0.218,0.038,0.351l0.044,1.162c-0.002,0.032,0.003,0.06,0.009,0.082
		c0.009,0.023,0.03,0.043,0.063,0.058c0.033,0.015,0.083,0.024,0.148,0.028c0.064,0.006,0.153,0.01,0.267,0.01
		c0.135,0,0.241-0.004,0.32-0.01c0.081-0.004,0.143-0.014,0.188-0.027c0.046-0.014,0.077-0.029,0.095-0.051
		c0.02-0.02,0.032-0.044,0.043-0.074c0.012-0.027,0.017-0.063,0.02-0.111c0.006-0.046,0.006-0.121,0.003-0.223l-0.066-1.026
		c-0.006-0.123-0.018-0.231-0.037-0.331c-0.017-0.098-0.043-0.186-0.076-0.262c-0.032-0.077-0.07-0.141-0.122-0.195
		c-0.047-0.055-0.103-0.099-0.168-0.137c0.18-0.051,0.348-0.118,0.505-0.201c0.154-0.082,0.297-0.182,0.423-0.294
		c0.128-0.112,0.239-0.24,0.337-0.383c0.095-0.144,0.176-0.304,0.238-0.478c0.076-0.207,0.111-0.391,0.108-0.551
		c-0.004-0.158-0.043-0.297-0.116-0.412c-0.075-0.117-0.182-0.211-0.324-0.285c-0.142-0.072-0.311-0.123-0.511-0.152
		c-0.068-0.008-0.146-0.014-0.234-0.02c-0.085-0.006-0.197-0.01-0.333-0.01H-67.946L-67.946,295.568z M-55.233,295.568
		c-0.089,0-0.174,0.027-0.253,0.079c-0.078,0.053-0.141,0.138-0.183,0.255l-1.652,4.539c-0.042,0.119-0.045,0.203-0.004,0.256
		c0.043,0.053,0.108,0.078,0.196,0.078h2.614c0.025,0,0.052-0.006,0.076-0.022c0.025-0.014,0.05-0.038,0.075-0.069
		c0.026-0.032,0.052-0.074,0.076-0.127c0.026-0.052,0.053-0.117,0.081-0.195l0,0c0.029-0.078,0.05-0.143,0.062-0.194
		c0.013-0.053,0.018-0.095,0.015-0.128c0-0.032-0.009-0.055-0.024-0.07c-0.013-0.014-0.033-0.021-0.058-0.021h-1.875l0.534-1.467
		h1.572c0.026,0,0.049-0.008,0.075-0.022c0.025-0.013,0.05-0.036,0.074-0.066s0.049-0.072,0.076-0.122
		c0.024-0.051,0.051-0.115,0.078-0.194c0.027-0.075,0.049-0.138,0.06-0.19c0.014-0.051,0.02-0.093,0.017-0.124
		c-0.003-0.03-0.011-0.054-0.025-0.069c-0.016-0.015-0.034-0.021-0.059-0.021h-1.573l0.464-1.271h1.858
		c0.022,0,0.047-0.008,0.073-0.023c0.021-0.014,0.049-0.036,0.073-0.07c0.024-0.031,0.052-0.074,0.075-0.125
		c0.025-0.053,0.052-0.117,0.08-0.191c0.029-0.08,0.051-0.146,0.062-0.199c0.014-0.053,0.019-0.096,0.018-0.129
		s-0.01-0.058-0.023-0.07c-0.013-0.014-0.032-0.021-0.057-0.021H-55.233L-55.233,295.568z M-77.305,295.568
		c-0.089,0-0.173,0.027-0.253,0.079c-0.078,0.053-0.14,0.138-0.183,0.257l-1.652,4.538c-0.042,0.118-0.043,0.202-0.001,0.255
		c0.04,0.052,0.105,0.078,0.193,0.078h1.386c0.208,0,0.403-0.012,0.583-0.037c0.179-0.025,0.353-0.065,0.523-0.119
		c0.168-0.055,0.331-0.123,0.487-0.205c0.155-0.084,0.297-0.184,0.43-0.297c0.133-0.115,0.249-0.248,0.355-0.399
		c0.105-0.15,0.192-0.318,0.26-0.503c0.065-0.176,0.097-0.336,0.096-0.479c-0.003-0.143-0.03-0.266-0.086-0.372
		c-0.053-0.106-0.131-0.192-0.231-0.261c-0.101-0.066-0.219-0.113-0.355-0.14c0.13-0.043,0.252-0.101,0.368-0.169
		c0.116-0.069,0.221-0.15,0.315-0.242c0.095-0.09,0.179-0.192,0.251-0.304c0.073-0.11,0.131-0.229,0.178-0.356
		c0.084-0.225,0.113-0.42,0.094-0.586c-0.021-0.167-0.086-0.305-0.197-0.414c-0.113-0.108-0.27-0.189-0.472-0.242
		c-0.201-0.055-0.462-0.082-0.781-0.082H-77.305z M-76.868,296.362h0.534c0.163,0,0.289,0.015,0.377,0.044
		c0.087,0.029,0.152,0.071,0.195,0.127c0.047,0.056,0.068,0.125,0.071,0.207c0.001,0.084-0.017,0.177-0.055,0.281
		c-0.034,0.095-0.081,0.184-0.141,0.269c-0.063,0.084-0.134,0.159-0.218,0.222c-0.081,0.062-0.176,0.111-0.279,0.146
		c-0.105,0.037-0.233,0.057-0.388,0.057h-0.59L-76.868,296.362z M-67.495,296.377h0.475c0.121,0,0.215,0.006,0.279,0.014
		c0.065,0.008,0.122,0.02,0.171,0.031c0.16,0.051,0.258,0.131,0.292,0.251c0.034,0.116,0.021,0.263-0.042,0.435
		c-0.041,0.111-0.095,0.214-0.168,0.305c-0.069,0.091-0.155,0.17-0.254,0.236c-0.1,0.064-0.21,0.115-0.338,0.152
		c-0.125,0.035-0.263,0.055-0.414,0.055h-0.538L-67.495,296.377z M-77.642,298.486h0.627c0.192,0,0.343,0.018,0.452,0.053
		c0.106,0.035,0.189,0.084,0.244,0.148c0.053,0.064,0.082,0.145,0.088,0.24c0.008,0.094-0.013,0.203-0.057,0.322
		c-0.041,0.117-0.1,0.22-0.174,0.309c-0.075,0.09-0.16,0.165-0.256,0.227c-0.095,0.059-0.2,0.105-0.312,0.135
		c-0.111,0.033-0.241,0.047-0.388,0.047h-0.766L-77.642,298.486z"/>
</g>
</svg>
