<?xml version="1.0" encoding="utf-8"?>
<!-- Generator: Adobe Illustrator 18.1.1, SVG Export Plug-In . SVG Version: 6.00 Build 0)  -->
<svg version="1.1" id="Слой_1" xmlns="http://www.w3.org/2000/svg" xmlns:xlink="http://www.w3.org/1999/xlink" x="0px" y="0px"
	 width="29.77px" height="29.77px" viewBox="0 0 29.77 29.77" enable-background="new 0 0 29.77 29.77" xml:space="preserve">
<g>
	<g>
		<path fill="#D9D9D9" d="M1.43,19.67c-0.61,0.16-1.23-0.2-1.39-0.8l0,0c-0.16-0.61,0.2-1.23,0.8-1.39l5.5-1.47
			c0.61-0.16,1.23,0.2,1.39,0.81l0,0c0.16,0.61-0.2,1.23-0.8,1.39L1.43,19.67z"/>
		<g>
			<path fill="#8C8C8C" d="M23.43,13.78c-0.61,0.16-1.23-0.2-1.4-0.81l0,0c-0.16-0.61,0.2-1.23,0.81-1.39l5.5-1.47
				c0.61-0.16,1.23,0.2,1.39,0.8l0,0c0.16,0.61-0.2,1.23-0.81,1.39L23.43,13.78z"/>
		</g>
	</g>
	<g>
		<path fill="#E5E5E5" d="M5.63,25.75c-0.45,0.45-1.17,0.45-1.61,0l0,0c-0.44-0.44-0.44-1.16,0-1.61l4.03-4.03
			c0.44-0.45,1.16-0.45,1.61,0l0,0c0.45,0.45,0.45,1.17,0,1.61L5.63,25.75z"/>
		<g>
			<path fill="#999999" d="M21.73,9.65c-0.44,0.44-1.16,0.44-1.61,0l0,0c-0.45-0.45-0.45-1.17,0-1.61l4.02-4.03
				c0.45-0.44,1.17-0.44,1.61,0l0,0c0.44,0.45,0.44,1.17,0,1.61L21.73,9.65z"/>
		</g>
	</g>
	<g>
		<path fill="#F2F2F2" d="M12.3,28.93c-0.16,0.61-0.79,0.97-1.39,0.81l0,0c-0.61-0.16-0.97-0.79-0.8-1.4l1.47-5.5
			c0.16-0.61,0.79-0.97,1.39-0.8l0,0c0.61,0.16,0.97,0.79,0.81,1.39L12.3,28.93z"/>
		<g>
			<path fill="#A6A6A6" d="M18.2,6.93c-0.16,0.61-0.79,0.97-1.39,0.8l0,0C16.19,7.57,15.83,6.95,16,6.34l1.47-5.5
				c0.16-0.61,0.79-0.97,1.39-0.8l0,0c0.61,0.16,0.97,0.79,0.81,1.39L18.2,6.93z"/>
		</g>
	</g>
	<g>
		<path fill="#FAFAFA" d="M19.67,28.34c0.16,0.61-0.2,1.23-0.81,1.39l0,0c-0.61,0.16-1.23-0.2-1.39-0.8L16,23.43
			c-0.16-0.61,0.2-1.23,0.81-1.39l0,0c0.61-0.16,1.23,0.2,1.39,0.8L19.67,28.34z"/>
		<g>
			<path fill="#B2B2B2" d="M13.78,6.34c0.16,0.61-0.2,1.23-0.81,1.39l0,0c-0.61,0.16-1.23-0.2-1.39-0.8l-1.47-5.5
				c-0.16-0.61,0.2-1.23,0.8-1.39l0,0c0.61-0.16,1.23,0.2,1.39,0.8L13.78,6.34z"/>
		</g>
	</g>
	<g>
		<path fill="#737373" d="M25.75,24.14c0.44,0.45,0.44,1.17,0,1.61l0,0c-0.44,0.45-1.16,0.45-1.61,0l-4.03-4.03
			c-0.44-0.44-0.44-1.16,0-1.61l0,0c0.44-0.45,1.17-0.45,1.61,0L25.75,24.14z"/>
		<g>
			<path fill="#BFBFBF" d="M9.65,8.04c0.44,0.45,0.44,1.17,0,1.61l0,0c-0.44,0.45-1.17,0.45-1.61,0L4.02,5.63
				c-0.44-0.45-0.44-1.17,0-1.61l0,0c0.44-0.44,1.17-0.44,1.61,0L9.65,8.04z"/>
		</g>
	</g>
	<g>
		<path fill="#808080" d="M28.93,17.47c0.61,0.16,0.97,0.79,0.81,1.39l0,0c-0.16,0.61-0.79,0.97-1.39,0.8l-5.5-1.47
			c-0.61-0.16-0.97-0.79-0.8-1.39l0,0c0.16-0.61,0.79-0.97,1.39-0.81L28.93,17.47z"/>
		<g>
			<path fill="#CCCCCC" d="M6.93,11.58c0.61,0.16,0.97,0.79,0.8,1.39l0,0c-0.16,0.61-0.79,0.97-1.39,0.81l-5.5-1.47
				c-0.61-0.16-0.97-0.79-0.81-1.39l0,0c0.16-0.61,0.79-0.97,1.39-0.8L6.93,11.58z"/>
		</g>
	</g>
</g>
</svg>
