<?xml version="1.0" encoding="utf-8"?>
<!-- Generator: Adobe Illustrator 19.0.0, SVG Export Plug-In . SVG Version: 6.00 Build 0)  -->
<svg version="1.1" id="Слой_1" xmlns="http://www.w3.org/2000/svg" xmlns:xlink="http://www.w3.org/1999/xlink" x="0px" y="0px"
	 viewBox="0 0 16 15" style="enable-background:new 0 0 16 15;" xml:space="preserve">
<style type="text/css">
	.st0{fill:none;stroke:#56606E;stroke-miterlimit:10;}
</style>
<g>
	<g>
		<path class="st0" d="M14.4,6.8c0-1.6-0.6-3.2-1.8-4.3c-1.2-1.2-2.7-1.8-4.3-1.8c-1.6,0-3.2,0.6-4.3,1.8c-2,2-2.4,5-0.9,7.4
			l-2.2,2.2c-0.1,0.1-0.2,0.3-0.2,0.5c0,0.2,0.1,0.3,0.2,0.5l1.2,1.2c0.1,0.1,0.3,0.2,0.5,0.2c0.2,0,0.3-0.1,0.5-0.2l2.2-2.2
			c0.9,0.5,2,0.8,3.1,0.8h0c1.6,0,3.2-0.6,4.3-1.8C13.7,10,14.4,8.4,14.4,6.8z M4.6,10.7l-2.1,2.1l-0.3-0.3l2.1-2.1
			c0.2-0.2,0.3-0.6,0.1-0.9C3.9,8.9,3.6,8.2,3.5,7.5l4,4c-0.7-0.1-1.5-0.4-2.1-0.8C5.2,10.5,4.9,10.5,4.6,10.7z"/>
		<path class="st0" d="M13.9,11.4c-0.8,0-1.5,0.7-1.5,1.5c0,0.8,0.7,1.5,1.5,1.5c0.8,0,1.5-0.7,1.5-1.5
			C15.4,12.1,14.7,11.4,13.9,11.4z"/>
	</g>
</g>
</svg>
