<?xml version="1.0" encoding="utf-8"?>
<!-- Generator: Adobe Illustrator 19.0.0, SVG Export Plug-In . SVG Version: 6.00 Build 0)  -->
<svg version="1.1" id="Слой_1" xmlns="http://www.w3.org/2000/svg" xmlns:xlink="http://www.w3.org/1999/xlink" x="0px" y="0px"
	 viewBox="0 0 17.6 18.5" style="enable-background:new 0 0 17.6 18.5;" xml:space="preserve">
<style type="text/css">
	.st0{fill:none;stroke:#56606E;stroke-width:1.1342;stroke-linecap:round;stroke-linejoin:round;stroke-miterlimit:10;}
	.st1{fill:#FFFFFF;stroke:#56606E;stroke-miterlimit:10;}
	.st2{fill:none;stroke:#56606E;stroke-miterlimit:10;}
</style>
<g>
	<ellipse transform="matrix(0.6052 0.7961 -0.7961 0.6052 11.5316 -6.2254)" class="st0" cx="12" cy="8.5" rx="4.1" ry="5.3"/>
	<path class="st0" d="M5.6,14c0,0,1.1-1,1.4-3.5"/>
	<path class="st0" d="M5.5,13.9c0,0,1.1-1.1,3.4-1"/>
	<g>
		<path class="st0" d="M2,17.8c-0.1,0-0.1,0-0.2,0l-1-1.4c0-0.1,0-0.1,0-0.2l3.6-2.8c0.1,0,0.1,0,0.2,0l1,1.4c0,0.1,0,0.1,0,0.2
			L2,17.8z"/>
		<path class="st0" d="M2,17.8c-0.1,0-0.1,0-0.2,0l-1-1.4c0-0.1,0-0.1,0-0.2l3.6-2.8c0.1,0,0.1,0,0.2,0l1,1.4c0,0.1,0,0.1,0,0.2
			L2,17.8z"/>
	</g>
</g>
<g>
	<path class="st1" d="M11.3,1.5C12,2.2,12.2,3.1,12,4c-0.1,0.5-0.3,0.9-0.7,1.3c-1,1-2.7,1-3.8,0c-0.8-0.8-1-2.1-0.5-3.1
		c0.1-0.2,0.3-0.4,0.5-0.6C8.6,0.5,10.3,0.5,11.3,1.5z"/>
	<path class="st2" d="M7.4,5.1c0.7-0.7,1.7-1.8,1.9-2.5c0.2-0.6,0.1-1.4,0-2"/>
	<path class="st2" d="M9.5,6c0-0.9,0.1-2.4,0.7-3.2c0.4-0.5,0.9-0.9,1.4-1.2"/>
</g>
</svg>
