<?xml version="1.0" encoding="utf-8"?>
<!-- Generator: Adobe Illustrator 19.0.0, SVG Export Plug-In . SVG Version: 6.00 Build 0)  -->
<svg version="1.1" id="Слой_1" xmlns="http://www.w3.org/2000/svg" xmlns:xlink="http://www.w3.org/1999/xlink" x="0px" y="0px"
	 viewBox="0 0 14 10" style="enable-background:new 0 0 14 10;" xml:space="preserve">
<style type="text/css">
	.st0{fill:#EE2D2A;}
	.st1{fill:#FFFFFF;}
</style>
<rect id="XMLID_299_" class="st0" width="14" height="10"/>
<path id="XMLID_298_" class="st1" d="M4.8,6c0-1.2,0.9-2.2,2.1-2.4c-0.1,0-0.2,0-0.4,0C5.2,3.6,4.1,4.7,4.1,6c0,1.3,1.1,2.4,2.4,2.4
	c0.1,0,0.2,0,0.4,0C5.7,8.3,4.8,7.3,4.8,6z"/>
<polygon id="XMLID_297_" class="st1" points="7.2,5.2 7.5,4.8 7.5,5.3 7.9,5.1 7.6,5.5 8.1,5.6 7.7,5.7 8,6.1 7.5,6 7.7,6.4 
	7.3,6.1 7.2,6.6 7.1,6.1 6.7,6.4 6.9,6 6.4,6.1 6.8,5.7 6.3,5.6 6.8,5.5 6.5,5.1 7,5.3 7,4.8 "/>
</svg>
