<?xml version="1.0" encoding="utf-8"?>
<!-- Generator: Adobe Illustrator 19.0.0, SVG Export Plug-In . SVG Version: 6.00 Build 0)  -->
<svg version="1.1" id="Слой_1" xmlns="http://www.w3.org/2000/svg" xmlns:xlink="http://www.w3.org/1999/xlink" x="0px" y="0px"
	 viewBox="0 0 33.2 10" style="enable-background:new 0 0 33.2 10;" xml:space="preserve">
<style type="text/css">
	.st0{fill:#344050;}
</style>
<g>
	<polygon class="st0" points="11.8,10 13.5,0.2 16.2,0.2 14.5,10 	"/>
	<path class="st0" d="M24.2,0.4C23.7,0.2,22.8,0,21.8,0c-2.6,0-4.5,1.3-4.5,3.2c0,1.4,1.3,2.2,2.3,2.7c1,0.5,1.4,0.8,1.4,1.2
		c0,0.7-0.8,1-1.6,1c-1.1,0-1.6-0.1-2.5-0.5l-0.3-0.2l-0.4,2.2c0.6,0.3,1.8,0.5,3,0.5c2.8,0,4.6-1.3,4.7-3.4c0-1.1-0.7-2-2.2-2.7
		c-0.9-0.5-1.5-0.8-1.5-1.2c0-0.4,0.5-0.8,1.5-0.8c0.9,0,1.5,0.2,2,0.4l0.2,0.1L24.2,0.4"/>
	<path class="st0" d="M31.1,0.2H29c-0.6,0-1.1,0.2-1.4,0.8l-4,9h2.8c0,0,0.5-1.2,0.6-1.5c0.3,0,3,0,3.4,0c0.1,0.3,0.3,1.5,0.3,1.5
		h2.5L31.1,0.2 M27.8,6.5c0.2-0.6,1.1-2.7,1.1-2.7c0,0,0.2-0.6,0.4-0.9l0.2,0.8c0,0,0.5,2.3,0.6,2.8H27.8z"/>
	<path class="st0" d="M9.6,0.2L6.9,6.9L6.7,5.5C6.2,3.9,4.7,2.2,3,1.4L5.4,10l2.8,0l4.2-9.8H9.6"/>
	<path class="st0" d="M4.5,0.2H0.2l0,0.2c3.4,0.8,5.6,2.8,6.5,5.1L5.7,1C5.6,0.4,5.1,0.2,4.5,0.2"/>
</g>
</svg>
