<?xml version="1.0" encoding="utf-8"?>
<!-- Generator: Adobe Illustrator 19.0.0, SVG Export Plug-In . SVG Version: 6.00 Build 0)  -->
<svg version="1.1" id="Слой_1" xmlns="http://www.w3.org/2000/svg" xmlns:xlink="http://www.w3.org/1999/xlink" x="0px" y="0px"
	 viewBox="0 0 14.1 14" style="enable-background:new 0 0 14.1 14;" xml:space="preserve">
<style type="text/css">
	.st0{fill:none;stroke:#56606E;stroke-width:0.9471;stroke-miterlimit:10;}
</style>
<path class="st0" d="M7.1,0.7c-3.5,0-6.3,2.8-6.3,6.3c0,3.5,2.8,6.3,6.3,6.3c3.5,0,6.3-2.8,6.3-6.3C13.5,3.6,10.6,0.7,7.1,0.7z
	 M6.3,1.3c0,0,0.2,0,0.4,0c0.2,0,0.3,0,0.5,0c2.1,0,4,1.1,5,2.8c0.1,0.2,0.3,0.5,0.2,0.4c-1.8-1.1-3.9-1.7-6.1-1.4
	C6.2,2.5,6.2,1.9,6.3,1.3z M3.3,2.7L3.3,2.7c0,0,0.2-0.2,0.3-0.3C4.1,2,4.8,1.7,5.4,1.5c0.1,0,0.3-0.1,0.3-0.1
	C5.6,3.2,5.9,4.9,6.8,6.6C6.3,7.4,5.7,8.1,5,8.7C3.6,6.9,3.1,4.8,3.3,2.7C3.2,2.7,3.2,2.7,3.3,2.7z M2.2,10.2L2.2,10.2
	c0,0-0.2-0.3-0.3-0.5C1.5,8.9,1.3,8,1.3,7.1c0-1.3,0.4-2.5,1.1-3.5c0.1-0.2,0.3-0.4,0.3-0.3c-0.1,2,0.6,4,1.9,5.8
	C3.8,9.6,3.1,10,2.2,10.2C2.2,10.2,2.2,10.2,2.2,10.2z M4.2,12.1c-0.6-0.3-1.1-0.8-1.5-1.3c-0.1-0.1-0.2-0.2-0.2-0.2
	c1.9-0.7,3.6-2,4.7-3.8c1,0,1.9,0.2,2.8,0.5c-1,2.5-3.1,4.2-5.5,4.9C4.6,12.3,4.4,12.2,4.2,12.1z M12.6,9.2c-0.8,2.2-3,3.8-5.4,3.8
	c-0.6,0-1.2-0.1-1.8-0.3c-0.1,0-0.1,0-0.1,0c2.3-0.8,4.3-2.6,5.3-5c0.8,0.3,1.5,0.8,2.1,1.4C12.7,8.9,12.6,9,12.6,9.2z M12.8,8.4
	C12.8,8.4,12.8,8.4,12.8,8.4c-1.5-1.3-3.4-2-5.5-2.1C6.8,5.5,6.5,4.6,6.3,3.6c2.4-0.3,4.6,0.4,6.4,1.7c0,0,0,0,0,0l0,0
	c0,0,0,0.2,0.1,0.3c0.1,0.4,0.2,0.9,0.2,1.4c0,0.3,0,0.6-0.1,0.9C12.9,8.1,12.8,8.4,12.8,8.4L12.8,8.4z"/>
</svg>
