<?xml version="1.0" encoding="utf-8"?>
<!-- Generator: Adobe Illustrator 19.0.0, SVG Export Plug-In . SVG Version: 6.00 Build 0)  -->
<svg version="1.1" id="Слой_1" xmlns="http://www.w3.org/2000/svg" xmlns:xlink="http://www.w3.org/1999/xlink" x="0px" y="0px"
	 viewBox="0 0 19.6 12.8" style="enable-background:new 0 0 19.6 12.8;" xml:space="preserve">
<style type="text/css">
	.st0{fill:none;stroke:#56606E;stroke-width:1.3216;stroke-linecap:round;stroke-linejoin:round;stroke-miterlimit:10;}
</style>
<g id="XMLID_3_">
	<path id="XMLID_8_" class="st0" d="M9.1,2.7c0.2,0.8,0,1.8-0.5,2C8.1,4.8,7.4,3.9,7.2,3.2C7,2.4,7.3,1.8,7.8,1.6
		C8.3,1.5,8.9,1.9,9.1,2.7z"/>
	<path id="XMLID_7_" class="st0" d="M16.9,6.1c0,0-5.7-0.2-7.9,0C6.8,6.3,3.8,7.7,3.8,7.7l-1-3"/>
	<line id="XMLID_6_" class="st0" x1="6.8" y1="7.4" x2="9.2" y2="10"/>
	<line id="XMLID_5_" class="st0" x1="10.8" y1="8.8" x2="9.8" y2="6"/>
	<circle id="XMLID_4_" class="st0" cx="2.2" cy="2.1" r="1.3"/>
</g>
<path id="XMLID_2_" class="st0" d="M3.3,11.2c0.6,0.3,1.6,0.7,3.6,0.9c4,0.4,4.4-3.6,8.8-2.5c2.1,0.5,3.2,1.6,3.2,1.6"/>
</svg>
