<?xml version="1.0" encoding="utf-8"?>
<!-- Generator: Adobe Illustrator 19.0.0, SVG Export Plug-In . SVG Version: 6.00 Build 0)  -->
<svg version="1.1" id="Слой_1" xmlns="http://www.w3.org/2000/svg" xmlns:xlink="http://www.w3.org/1999/xlink" x="0px" y="0px"
	 viewBox="0 0 25.7 25.6" style="enable-background:new 0 0 25.7 25.6;" xml:space="preserve">
<style type="text/css">
	.st0{fill:#56606E;}
</style>
<g>
	<path class="st0" d="M12.8,0c2,0,3.9,0.5,5.6,1.3c0.3,0.1,0.5,0.3,0.8,0.4l-1.2,1.1l-1.8-1.8l-3,2.7l-1.8-1.9l-5.6,5l3.6,3.9
		l-1.4,1.2l3.5,3.9L10.2,17l5,5.6l3-2.7l2.6,2.9c-0.5,0.4-1.1,0.8-1.7,1.1c-1.9,1.1-4,1.7-6.3,1.7C5.8,25.6,0,19.9,0,12.8
		C0,5.8,5.8,0,12.8,0L12.8,0z"/>
	<polygon class="st0" points="10.5,12 13.5,9.3 16.3,12.3 13.2,15.1 	"/>
	<polygon class="st0" points="12.6,17.3 15.7,14.5 18.4,17.6 15.4,20.3 	"/>
	<polygon class="st0" points="8.3,6.8 11.3,4.1 14.1,7.1 11,9.9 	"/>
	<polygon class="st0" points="13.9,5.3 16.2,3.3 18.2,5.6 16,7.6 	"/>
	<polygon class="st0" points="18,14.8 20.2,12.7 22.3,15 20,17 	"/>
	<polygon class="st0" points="20,19.4 22.3,17.3 24.3,19.6 22,21.7 	"/>
	<polygon class="st0" points="20.9,8.8 22.4,7.4 23.8,8.9 22.3,10.3 	"/>
	<polygon class="st0" points="18.9,4.3 20.5,2.9 21.8,4.4 20.3,5.8 	"/>
	<polygon class="st0" points="22.8,13.3 24.4,11.9 25.7,13.5 24.2,14.8 	"/>
	<polygon class="st0" points="16,9.9 18.3,7.9 20.3,10.2 18.1,12.2 	"/>
</g>
</svg>
