<?xml version="1.0" encoding="utf-8"?>
<!-- Generator: Adobe Illustrator 19.0.0, SVG Export Plug-In . SVG Version: 6.00 Build 0)  -->
<svg version="1.1" id="Слой_1" xmlns="http://www.w3.org/2000/svg" xmlns:xlink="http://www.w3.org/1999/xlink" x="0px" y="0px"
	 viewBox="0 0 12.7 13.9" style="enable-background:new 0 0 12.7 13.9;" xml:space="preserve">
<style type="text/css">
	.st0{fill:#56606E;}
</style>
<g id="XMLID_2_">
	<path id="XMLID_3_" class="st0" d="M11.9,7.4L9.4,8l-1-0.6V6.4l1-0.6l2.5,0.7c0.1,0,0.1,0,0.2,0c0.3,0,0.5-0.2,0.6-0.4
		c0.1-0.3-0.1-0.6-0.4-0.7L10.8,5l1.3-0.7c0.3-0.2,0.4-0.5,0.2-0.8c-0.2-0.3-0.5-0.4-0.8-0.2L10.2,4l0.4-1.4
		c0.1-0.3-0.1-0.6-0.4-0.7C9.9,1.8,9.6,2,9.5,2.3L8.8,4.8l-1,0.6L6.9,4.9V3.7l1.9-1.9C9,1.7,9,1.3,8.8,1.1c-0.2-0.2-0.6-0.2-0.8,0
		l-1,1V0.6C6.9,0.3,6.6,0,6.3,0C6,0,5.7,0.3,5.7,0.6v1.5l-1-1c-0.2-0.2-0.6-0.2-0.8,0c-0.2,0.2-0.2,0.6,0,0.8l1.9,1.8v1.1L4.8,5.4
		l-1-0.6L3.2,2.3C3.1,2,2.8,1.8,2.4,1.9C2.1,2,1.9,2.3,2,2.6L2.4,4L1.1,3.3C0.8,3.1,0.5,3.2,0.3,3.5C0.1,3.8,0.2,4.1,0.5,4.3L1.8,5
		L0.4,5.4C0.1,5.5-0.1,5.8,0,6.1c0.1,0.3,0.3,0.4,0.6,0.4c0.1,0,0.1,0,0.2,0l2.5-0.7l1,0.6l0,1.1L3.2,8L0.7,7.4
		C0.4,7.3,0.1,7.5,0,7.8c-0.1,0.3,0.1,0.6,0.4,0.7l1.4,0.4L0.5,9.6c-0.3,0.2-0.4,0.5-0.2,0.8c0.1,0.2,0.3,0.3,0.5,0.3
		c0.1,0,0.2,0,0.3-0.1l1.3-0.7L2,11.3c-0.1,0.3,0.1,0.6,0.4,0.7c0.1,0,0.1,0,0.2,0c0.3,0,0.5-0.2,0.6-0.4L3.8,9l1-0.6L5.7,9v1.1
		L3.9,12c-0.2,0.2-0.2,0.6,0,0.8C4,13,4.1,13,4.3,13c0.2,0,0.3-0.1,0.4-0.2l1-1v1.5c0,0.3,0.3,0.6,0.6,0.6c0.3,0,0.6-0.3,0.6-0.6
		v-1.5l1,1C8,13,8.2,13,8.3,13c0.2,0,0.3-0.1,0.4-0.2C9,12.6,9,12.2,8.8,12l-1.9-1.9V9l0.9-0.5l1,0.6l0.7,2.5C9.5,11.8,9.8,12,10,12
		c0.1,0,0.1,0,0.2,0c0.3-0.1,0.5-0.4,0.4-0.7l-0.4-1.4l1.3,0.7c0.1,0.1,0.2,0.1,0.3,0.1c0.2,0,0.4-0.1,0.5-0.3
		c0.2-0.3,0.1-0.6-0.2-0.8l-1.3-0.7l1.4-0.4c0.3-0.1,0.5-0.4,0.4-0.7C12.6,7.5,12.2,7.3,11.9,7.4z M7.2,7.5L6.3,8L5.4,7.5l0-1.1
		l0.9-0.5l0.9,0.5V7.5z"/>
</g>
</svg>
